M48
; DRILL file {KiCad 5.1.5} date 2020年05月24日 星期日 05时14分09秒
; FORMAT={-:-/ absolute / metric / decimal}
; #@! TF.CreationDate,2020-05-24T05:14:09+08:00
; #@! TF.GenerationSoftware,Kicad,Pcbnew,5.1.5
; #@! TF.FileFunction,Plated,1,4,PTH
FMAT,2
METRIC
T1C0.300
%
G90
G05
T1
X66.497Y-52.934
X67.716Y-55.626
X67.767Y-66.599
X67.767Y-73.863
X68.377Y-62.382
X68.816Y-71.406
X69.545Y-72.644
X70.409Y-72.593
X71.425Y-70.866
X71.476Y-67.869
X71.476Y-68.681
X71.526Y-67.107
X71.577Y-65.481
X71.577Y-69.647
X71.628Y-56.083
X71.628Y-57.302
X71.654Y-60.681
X71.663Y-58.607
X71.679Y-53.492
X71.679Y-54.813
X71.73Y-61.976
X71.882Y-64.719
X71.907Y-66.421
X72.314Y-57.988
X72.339Y-54.102
X72.339Y-55.423
X72.542Y-73.914
X72.644Y-62.078
X73.101Y-62.687
X73.254Y-52.781
X73.66Y-64.262
X74.524Y-64.211
X74.676Y-59.182
X75.032Y-54.102
X75.184Y-72.492
X75.641Y-53.594
X75.794Y-56.693
X75.895Y-59.233
X76.403Y-73.914
X76.454Y-72.187
X76.708Y-52.68
X76.708Y-54.762
X77.267Y-71.323
X77.343Y-55.448
X77.673Y-65.075
X77.724Y-72.187
X77.826Y-57.81
X78.08Y-63.246
X78.232Y-52.68
X78.384Y-54.762
X78.384Y-61.417
X78.435Y-67.005
X78.638Y-57.15
X78.638Y-58.42
X78.689Y-72.441
X78.791Y-65.735
X78.892Y-73.914
X78.943Y-67.818
X79.045Y-68.783
X79.096Y-63.297
X79.172Y-55.956
X79.299Y-59.08
X79.35Y-70.104
X79.578Y-60.681
X79.604Y-61.976
X79.768Y-53.481
X79.807Y-63.906
X79.858Y-56.54
X79.858Y-68.174
X79.871Y-66.332
X80.01Y-69.393
X80.01Y-70.917
X80.721Y-72.644
X81.737Y-72.593
X81.991Y-73.762
X82.855Y-72.644
X83.871Y-72.746
X84.785Y-63.805
X84.785Y-71.171
X84.988Y-56.54
X84.988Y-68.123
X85.039Y-60.757
X85.09Y-58.42
X85.192Y-53.543
X85.344Y-63.144
X85.344Y-69.494
X85.547Y-55.118
X85.598Y-70.663
X85.852Y-67.818
X85.954Y-56.54
X85.954Y-57.76
X85.954Y-59.08
X86.106Y-73.863
X86.157Y-69.088
X86.309Y-54.204
X86.665Y-62.636
X86.817Y-56.54
X87.071Y-69.494
X87.173Y-61.417
X87.274Y-65.38
X87.325Y-63.297
X87.427Y-67.513
X87.478Y-55.27
X87.782Y-61.976
X87.884Y-52.781
X88.087Y-68.275
X88.24Y-63.246
X88.24Y-65.38
X88.748Y-67.564
X89.052Y-52.73
X90.018Y-73.762
X90.221Y-52.781
X90.221Y-55.829
X90.627Y-61.417
X90.793Y-66.332
X90.819Y-71.132
X90.83Y-54.61
X90.844Y-69.532
X90.881Y-64.719
X91.237Y-63.652
X91.288Y-58.115
X91.288Y-61.976
X91.314Y-67.132
X91.365Y-70.332
X91.389Y-68.732
X91.39Y-65.532
X91.491Y-52.73
X91.491Y-55.321
X91.796Y-55.982
X92.151Y-71.933
X92.202Y-54.051
X92.202Y-58.064
X92.71Y-57.455
X93.116Y-63.144
X93.167Y-67.869
X93.192Y-54.431
X93.208Y-53.533
X95.746Y-67.932
X96.114Y-61.976
X96.114Y-63.754
X96.215Y-57.76
X96.672Y-52.019
X96.723Y-55.728
X96.723Y-72.288
X96.774Y-61.316
X96.774Y-68.224
X97.028Y-62.586
X97.079Y-73.914
X97.13Y-57.81
X97.384Y-60.604
X97.384Y-63.703
X97.688Y-67.97
X98.4Y-72.644
X99.365Y-72.542
X100.076Y-71.12
X100.127Y-66.243
X100.127Y-67.97
X100.178Y-64.719
X100.178Y-69.494
X100.228Y-53.442
X100.228Y-54.305
X100.228Y-63.144
X100.533Y-65.532
X100.533Y-68.732
X100.584Y-67.005
X100.584Y-70.358
X100.635Y-58.826
X100.71Y-57.43
X100.889Y-64.059
X101.194Y-54.051
X101.448Y-58.166
X101.676Y-60.63
X101.702Y-61.976
X101.803Y-73.812
X101.854Y-56.337
X101.905Y-55.067
X102.057Y-63.195
X102.565Y-52.73
X102.565Y-54.508
X102.565Y-55.728
X102.718Y-57.404
X102.921Y-67.056
X102.972Y-65.532
X102.972Y-71.171
X103.022Y-69.647
X103.327Y-56.744
X103.327Y-58.064
X103.378Y-61.316
X103.378Y-62.586
X103.48Y-64.77
X103.48Y-66.294
X103.48Y-70.409
X103.53Y-68.732
X104.292Y-73.914
X104.699Y-52.68
X105.613Y-63.805
X105.664Y-62.586
X106.324Y-61.976
X106.375Y-52.73
X106.731Y-56.744
X106.883Y-58.064
X107.086Y-67.005
X107.087Y-65.43
X107.137Y-63.144
X107.137Y-68.174
X107.137Y-73.406
X107.239Y-61.366
X107.442Y-56.388
X107.594Y-64.618
X107.594Y-66.294
X107.594Y-69.139
X107.645Y-58.623
X107.798Y-53.442
X107.848Y-54.712
X107.874Y-60.732
X108.052Y-63.043
X108.229Y-57.379
X108.356Y-68.275
X108.407Y-70.51
X108.433Y-59.106
X108.458Y-63.754
X108.509Y-54.051
X108.661Y-55.728
X108.763Y-71.476
X108.814Y-69.748
X109.626Y-72.593
X110.592Y-72.542
X111.709Y-72.542
X111.963Y-73.762
X112.725Y-72.542
X113.386Y-73.762
X113.425Y-71.03
X113.45Y-69.43
X113.487Y-68.224
X113.538Y-71.882
X113.589Y-54.407
X113.589Y-55.728
X113.589Y-64.719
X113.61Y-60.634
X113.704Y-66.23
X113.792Y-63.805
X113.894Y-58.166
X114.022Y-70.23
X114.046Y-68.885
X114.198Y-61.366
X114.25Y-65.43
X114.402Y-53.391
X114.452Y-54.712
X114.452Y-60.046
X114.554Y-57.709
X114.554Y-63.144
X114.554Y-73.762
X114.732Y-67.03
X114.757Y-56.388
X114.757Y-68.174
X115.062Y-54.051
X115.164Y-61.265
X115.468Y-72.746
X115.545Y-58.598
X115.57Y-56.642
X115.621Y-71.78
X115.773Y-54.661
X115.773Y-61.874
X116.129Y-52.527
X116.18Y-63.195
X116.383Y-55.321
X116.484Y-59.385
X116.637Y-73.812
X116.789Y-62.586
X117.196Y-73.101
X117.653Y-52.781
X118.872Y-73.152
X119.431Y-73.812
X120.294Y-59.385
X120.955Y-61.925
X121.006Y-60.046
X121.056Y-57.353
X121.107Y-54.051
X121.107Y-55.321
X121.463Y-68.682
X121.514Y-62.687
X121.564Y-66.954
X121.615Y-55.931
X121.615Y-65.481
X121.818Y-70.358
X121.869Y-60.655
X121.887Y-53.424
X121.92Y-58.572
X121.971Y-54.661
X122.072Y-66.192
X122.072Y-69.444
X122.123Y-67.869
X122.162Y-71.03
X122.174Y-64.668
X123.342Y-73.762
X125.579Y-71.83
X125.679Y-65.989
X125.984Y-73.762
X126.34Y-72.644
X126.898Y-65.278
X127.102Y-54.661
X127.432Y-73.787
X128.27Y-63.957
X128.981Y-73.762
X129.235Y-53.391
T0
M30
