G04 #@! TF.GenerationSoftware,KiCad,Pcbnew,5.1.5*
G04 #@! TF.CreationDate,2020-05-24T05:14:00+08:00*
G04 #@! TF.ProjectId,EDO RAM Stick Recreated,45444f20-5241-44d2-9053-7469636b2052,01*
G04 #@! TF.SameCoordinates,Original*
G04 #@! TF.FileFunction,Copper,L1,Top*
G04 #@! TF.FilePolarity,Positive*
%FSLAX46Y46*%
G04 Gerber Fmt 4.6, Leading zero omitted, Abs format (unit mm)*
G04 Created by KiCad (PCBNEW 5.1.5) date 2020-05-24 05:14:00*
%MOMM*%
%LPD*%
G04 APERTURE LIST*
%ADD10C,0.100000*%
%ADD11R,1.500000X0.300000*%
%ADD12R,0.600000X2.300000*%
%ADD13C,0.600000*%
%ADD14C,0.203200*%
%ADD15C,0.152400*%
G04 APERTURE END LIST*
G04 #@! TA.AperFunction,SMDPad,CuDef*
D10*
G36*
X125716903Y-61676322D02*
G01*
X125731464Y-61678482D01*
X125745743Y-61682059D01*
X125759603Y-61687018D01*
X125772910Y-61693312D01*
X125785536Y-61700880D01*
X125797359Y-61709648D01*
X125808266Y-61719534D01*
X125818152Y-61730441D01*
X125826920Y-61742264D01*
X125834488Y-61754890D01*
X125840782Y-61768197D01*
X125845741Y-61782057D01*
X125849318Y-61796336D01*
X125851478Y-61810897D01*
X125852200Y-61825600D01*
X125852200Y-63475600D01*
X125851478Y-63490303D01*
X125849318Y-63504864D01*
X125845741Y-63519143D01*
X125840782Y-63533003D01*
X125834488Y-63546310D01*
X125826920Y-63558936D01*
X125818152Y-63570759D01*
X125808266Y-63581666D01*
X125797359Y-63591552D01*
X125785536Y-63600320D01*
X125772910Y-63607888D01*
X125759603Y-63614182D01*
X125745743Y-63619141D01*
X125731464Y-63622718D01*
X125716903Y-63624878D01*
X125702200Y-63625600D01*
X125402200Y-63625600D01*
X125387497Y-63624878D01*
X125372936Y-63622718D01*
X125358657Y-63619141D01*
X125344797Y-63614182D01*
X125331490Y-63607888D01*
X125318864Y-63600320D01*
X125307041Y-63591552D01*
X125296134Y-63581666D01*
X125286248Y-63570759D01*
X125277480Y-63558936D01*
X125269912Y-63546310D01*
X125263618Y-63533003D01*
X125258659Y-63519143D01*
X125255082Y-63504864D01*
X125252922Y-63490303D01*
X125252200Y-63475600D01*
X125252200Y-61825600D01*
X125252922Y-61810897D01*
X125255082Y-61796336D01*
X125258659Y-61782057D01*
X125263618Y-61768197D01*
X125269912Y-61754890D01*
X125277480Y-61742264D01*
X125286248Y-61730441D01*
X125296134Y-61719534D01*
X125307041Y-61709648D01*
X125318864Y-61700880D01*
X125331490Y-61693312D01*
X125344797Y-61687018D01*
X125358657Y-61682059D01*
X125372936Y-61678482D01*
X125387497Y-61676322D01*
X125402200Y-61675600D01*
X125702200Y-61675600D01*
X125716903Y-61676322D01*
G37*
G04 #@! TD.AperFunction*
G04 #@! TA.AperFunction,SMDPad,CuDef*
G36*
X126986903Y-61676322D02*
G01*
X127001464Y-61678482D01*
X127015743Y-61682059D01*
X127029603Y-61687018D01*
X127042910Y-61693312D01*
X127055536Y-61700880D01*
X127067359Y-61709648D01*
X127078266Y-61719534D01*
X127088152Y-61730441D01*
X127096920Y-61742264D01*
X127104488Y-61754890D01*
X127110782Y-61768197D01*
X127115741Y-61782057D01*
X127119318Y-61796336D01*
X127121478Y-61810897D01*
X127122200Y-61825600D01*
X127122200Y-63475600D01*
X127121478Y-63490303D01*
X127119318Y-63504864D01*
X127115741Y-63519143D01*
X127110782Y-63533003D01*
X127104488Y-63546310D01*
X127096920Y-63558936D01*
X127088152Y-63570759D01*
X127078266Y-63581666D01*
X127067359Y-63591552D01*
X127055536Y-63600320D01*
X127042910Y-63607888D01*
X127029603Y-63614182D01*
X127015743Y-63619141D01*
X127001464Y-63622718D01*
X126986903Y-63624878D01*
X126972200Y-63625600D01*
X126672200Y-63625600D01*
X126657497Y-63624878D01*
X126642936Y-63622718D01*
X126628657Y-63619141D01*
X126614797Y-63614182D01*
X126601490Y-63607888D01*
X126588864Y-63600320D01*
X126577041Y-63591552D01*
X126566134Y-63581666D01*
X126556248Y-63570759D01*
X126547480Y-63558936D01*
X126539912Y-63546310D01*
X126533618Y-63533003D01*
X126528659Y-63519143D01*
X126525082Y-63504864D01*
X126522922Y-63490303D01*
X126522200Y-63475600D01*
X126522200Y-61825600D01*
X126522922Y-61810897D01*
X126525082Y-61796336D01*
X126528659Y-61782057D01*
X126533618Y-61768197D01*
X126539912Y-61754890D01*
X126547480Y-61742264D01*
X126556248Y-61730441D01*
X126566134Y-61719534D01*
X126577041Y-61709648D01*
X126588864Y-61700880D01*
X126601490Y-61693312D01*
X126614797Y-61687018D01*
X126628657Y-61682059D01*
X126642936Y-61678482D01*
X126657497Y-61676322D01*
X126672200Y-61675600D01*
X126972200Y-61675600D01*
X126986903Y-61676322D01*
G37*
G04 #@! TD.AperFunction*
G04 #@! TA.AperFunction,SMDPad,CuDef*
G36*
X128256903Y-61676322D02*
G01*
X128271464Y-61678482D01*
X128285743Y-61682059D01*
X128299603Y-61687018D01*
X128312910Y-61693312D01*
X128325536Y-61700880D01*
X128337359Y-61709648D01*
X128348266Y-61719534D01*
X128358152Y-61730441D01*
X128366920Y-61742264D01*
X128374488Y-61754890D01*
X128380782Y-61768197D01*
X128385741Y-61782057D01*
X128389318Y-61796336D01*
X128391478Y-61810897D01*
X128392200Y-61825600D01*
X128392200Y-63475600D01*
X128391478Y-63490303D01*
X128389318Y-63504864D01*
X128385741Y-63519143D01*
X128380782Y-63533003D01*
X128374488Y-63546310D01*
X128366920Y-63558936D01*
X128358152Y-63570759D01*
X128348266Y-63581666D01*
X128337359Y-63591552D01*
X128325536Y-63600320D01*
X128312910Y-63607888D01*
X128299603Y-63614182D01*
X128285743Y-63619141D01*
X128271464Y-63622718D01*
X128256903Y-63624878D01*
X128242200Y-63625600D01*
X127942200Y-63625600D01*
X127927497Y-63624878D01*
X127912936Y-63622718D01*
X127898657Y-63619141D01*
X127884797Y-63614182D01*
X127871490Y-63607888D01*
X127858864Y-63600320D01*
X127847041Y-63591552D01*
X127836134Y-63581666D01*
X127826248Y-63570759D01*
X127817480Y-63558936D01*
X127809912Y-63546310D01*
X127803618Y-63533003D01*
X127798659Y-63519143D01*
X127795082Y-63504864D01*
X127792922Y-63490303D01*
X127792200Y-63475600D01*
X127792200Y-61825600D01*
X127792922Y-61810897D01*
X127795082Y-61796336D01*
X127798659Y-61782057D01*
X127803618Y-61768197D01*
X127809912Y-61754890D01*
X127817480Y-61742264D01*
X127826248Y-61730441D01*
X127836134Y-61719534D01*
X127847041Y-61709648D01*
X127858864Y-61700880D01*
X127871490Y-61693312D01*
X127884797Y-61687018D01*
X127898657Y-61682059D01*
X127912936Y-61678482D01*
X127927497Y-61676322D01*
X127942200Y-61675600D01*
X128242200Y-61675600D01*
X128256903Y-61676322D01*
G37*
G04 #@! TD.AperFunction*
G04 #@! TA.AperFunction,SMDPad,CuDef*
G36*
X129526903Y-61676322D02*
G01*
X129541464Y-61678482D01*
X129555743Y-61682059D01*
X129569603Y-61687018D01*
X129582910Y-61693312D01*
X129595536Y-61700880D01*
X129607359Y-61709648D01*
X129618266Y-61719534D01*
X129628152Y-61730441D01*
X129636920Y-61742264D01*
X129644488Y-61754890D01*
X129650782Y-61768197D01*
X129655741Y-61782057D01*
X129659318Y-61796336D01*
X129661478Y-61810897D01*
X129662200Y-61825600D01*
X129662200Y-63475600D01*
X129661478Y-63490303D01*
X129659318Y-63504864D01*
X129655741Y-63519143D01*
X129650782Y-63533003D01*
X129644488Y-63546310D01*
X129636920Y-63558936D01*
X129628152Y-63570759D01*
X129618266Y-63581666D01*
X129607359Y-63591552D01*
X129595536Y-63600320D01*
X129582910Y-63607888D01*
X129569603Y-63614182D01*
X129555743Y-63619141D01*
X129541464Y-63622718D01*
X129526903Y-63624878D01*
X129512200Y-63625600D01*
X129212200Y-63625600D01*
X129197497Y-63624878D01*
X129182936Y-63622718D01*
X129168657Y-63619141D01*
X129154797Y-63614182D01*
X129141490Y-63607888D01*
X129128864Y-63600320D01*
X129117041Y-63591552D01*
X129106134Y-63581666D01*
X129096248Y-63570759D01*
X129087480Y-63558936D01*
X129079912Y-63546310D01*
X129073618Y-63533003D01*
X129068659Y-63519143D01*
X129065082Y-63504864D01*
X129062922Y-63490303D01*
X129062200Y-63475600D01*
X129062200Y-61825600D01*
X129062922Y-61810897D01*
X129065082Y-61796336D01*
X129068659Y-61782057D01*
X129073618Y-61768197D01*
X129079912Y-61754890D01*
X129087480Y-61742264D01*
X129096248Y-61730441D01*
X129106134Y-61719534D01*
X129117041Y-61709648D01*
X129128864Y-61700880D01*
X129141490Y-61693312D01*
X129154797Y-61687018D01*
X129168657Y-61682059D01*
X129182936Y-61678482D01*
X129197497Y-61676322D01*
X129212200Y-61675600D01*
X129512200Y-61675600D01*
X129526903Y-61676322D01*
G37*
G04 #@! TD.AperFunction*
G04 #@! TA.AperFunction,SMDPad,CuDef*
G36*
X129526903Y-66626322D02*
G01*
X129541464Y-66628482D01*
X129555743Y-66632059D01*
X129569603Y-66637018D01*
X129582910Y-66643312D01*
X129595536Y-66650880D01*
X129607359Y-66659648D01*
X129618266Y-66669534D01*
X129628152Y-66680441D01*
X129636920Y-66692264D01*
X129644488Y-66704890D01*
X129650782Y-66718197D01*
X129655741Y-66732057D01*
X129659318Y-66746336D01*
X129661478Y-66760897D01*
X129662200Y-66775600D01*
X129662200Y-68425600D01*
X129661478Y-68440303D01*
X129659318Y-68454864D01*
X129655741Y-68469143D01*
X129650782Y-68483003D01*
X129644488Y-68496310D01*
X129636920Y-68508936D01*
X129628152Y-68520759D01*
X129618266Y-68531666D01*
X129607359Y-68541552D01*
X129595536Y-68550320D01*
X129582910Y-68557888D01*
X129569603Y-68564182D01*
X129555743Y-68569141D01*
X129541464Y-68572718D01*
X129526903Y-68574878D01*
X129512200Y-68575600D01*
X129212200Y-68575600D01*
X129197497Y-68574878D01*
X129182936Y-68572718D01*
X129168657Y-68569141D01*
X129154797Y-68564182D01*
X129141490Y-68557888D01*
X129128864Y-68550320D01*
X129117041Y-68541552D01*
X129106134Y-68531666D01*
X129096248Y-68520759D01*
X129087480Y-68508936D01*
X129079912Y-68496310D01*
X129073618Y-68483003D01*
X129068659Y-68469143D01*
X129065082Y-68454864D01*
X129062922Y-68440303D01*
X129062200Y-68425600D01*
X129062200Y-66775600D01*
X129062922Y-66760897D01*
X129065082Y-66746336D01*
X129068659Y-66732057D01*
X129073618Y-66718197D01*
X129079912Y-66704890D01*
X129087480Y-66692264D01*
X129096248Y-66680441D01*
X129106134Y-66669534D01*
X129117041Y-66659648D01*
X129128864Y-66650880D01*
X129141490Y-66643312D01*
X129154797Y-66637018D01*
X129168657Y-66632059D01*
X129182936Y-66628482D01*
X129197497Y-66626322D01*
X129212200Y-66625600D01*
X129512200Y-66625600D01*
X129526903Y-66626322D01*
G37*
G04 #@! TD.AperFunction*
G04 #@! TA.AperFunction,SMDPad,CuDef*
G36*
X128256903Y-66626322D02*
G01*
X128271464Y-66628482D01*
X128285743Y-66632059D01*
X128299603Y-66637018D01*
X128312910Y-66643312D01*
X128325536Y-66650880D01*
X128337359Y-66659648D01*
X128348266Y-66669534D01*
X128358152Y-66680441D01*
X128366920Y-66692264D01*
X128374488Y-66704890D01*
X128380782Y-66718197D01*
X128385741Y-66732057D01*
X128389318Y-66746336D01*
X128391478Y-66760897D01*
X128392200Y-66775600D01*
X128392200Y-68425600D01*
X128391478Y-68440303D01*
X128389318Y-68454864D01*
X128385741Y-68469143D01*
X128380782Y-68483003D01*
X128374488Y-68496310D01*
X128366920Y-68508936D01*
X128358152Y-68520759D01*
X128348266Y-68531666D01*
X128337359Y-68541552D01*
X128325536Y-68550320D01*
X128312910Y-68557888D01*
X128299603Y-68564182D01*
X128285743Y-68569141D01*
X128271464Y-68572718D01*
X128256903Y-68574878D01*
X128242200Y-68575600D01*
X127942200Y-68575600D01*
X127927497Y-68574878D01*
X127912936Y-68572718D01*
X127898657Y-68569141D01*
X127884797Y-68564182D01*
X127871490Y-68557888D01*
X127858864Y-68550320D01*
X127847041Y-68541552D01*
X127836134Y-68531666D01*
X127826248Y-68520759D01*
X127817480Y-68508936D01*
X127809912Y-68496310D01*
X127803618Y-68483003D01*
X127798659Y-68469143D01*
X127795082Y-68454864D01*
X127792922Y-68440303D01*
X127792200Y-68425600D01*
X127792200Y-66775600D01*
X127792922Y-66760897D01*
X127795082Y-66746336D01*
X127798659Y-66732057D01*
X127803618Y-66718197D01*
X127809912Y-66704890D01*
X127817480Y-66692264D01*
X127826248Y-66680441D01*
X127836134Y-66669534D01*
X127847041Y-66659648D01*
X127858864Y-66650880D01*
X127871490Y-66643312D01*
X127884797Y-66637018D01*
X127898657Y-66632059D01*
X127912936Y-66628482D01*
X127927497Y-66626322D01*
X127942200Y-66625600D01*
X128242200Y-66625600D01*
X128256903Y-66626322D01*
G37*
G04 #@! TD.AperFunction*
G04 #@! TA.AperFunction,SMDPad,CuDef*
G36*
X126986903Y-66626322D02*
G01*
X127001464Y-66628482D01*
X127015743Y-66632059D01*
X127029603Y-66637018D01*
X127042910Y-66643312D01*
X127055536Y-66650880D01*
X127067359Y-66659648D01*
X127078266Y-66669534D01*
X127088152Y-66680441D01*
X127096920Y-66692264D01*
X127104488Y-66704890D01*
X127110782Y-66718197D01*
X127115741Y-66732057D01*
X127119318Y-66746336D01*
X127121478Y-66760897D01*
X127122200Y-66775600D01*
X127122200Y-68425600D01*
X127121478Y-68440303D01*
X127119318Y-68454864D01*
X127115741Y-68469143D01*
X127110782Y-68483003D01*
X127104488Y-68496310D01*
X127096920Y-68508936D01*
X127088152Y-68520759D01*
X127078266Y-68531666D01*
X127067359Y-68541552D01*
X127055536Y-68550320D01*
X127042910Y-68557888D01*
X127029603Y-68564182D01*
X127015743Y-68569141D01*
X127001464Y-68572718D01*
X126986903Y-68574878D01*
X126972200Y-68575600D01*
X126672200Y-68575600D01*
X126657497Y-68574878D01*
X126642936Y-68572718D01*
X126628657Y-68569141D01*
X126614797Y-68564182D01*
X126601490Y-68557888D01*
X126588864Y-68550320D01*
X126577041Y-68541552D01*
X126566134Y-68531666D01*
X126556248Y-68520759D01*
X126547480Y-68508936D01*
X126539912Y-68496310D01*
X126533618Y-68483003D01*
X126528659Y-68469143D01*
X126525082Y-68454864D01*
X126522922Y-68440303D01*
X126522200Y-68425600D01*
X126522200Y-66775600D01*
X126522922Y-66760897D01*
X126525082Y-66746336D01*
X126528659Y-66732057D01*
X126533618Y-66718197D01*
X126539912Y-66704890D01*
X126547480Y-66692264D01*
X126556248Y-66680441D01*
X126566134Y-66669534D01*
X126577041Y-66659648D01*
X126588864Y-66650880D01*
X126601490Y-66643312D01*
X126614797Y-66637018D01*
X126628657Y-66632059D01*
X126642936Y-66628482D01*
X126657497Y-66626322D01*
X126672200Y-66625600D01*
X126972200Y-66625600D01*
X126986903Y-66626322D01*
G37*
G04 #@! TD.AperFunction*
G04 #@! TA.AperFunction,SMDPad,CuDef*
G36*
X125716903Y-66626322D02*
G01*
X125731464Y-66628482D01*
X125745743Y-66632059D01*
X125759603Y-66637018D01*
X125772910Y-66643312D01*
X125785536Y-66650880D01*
X125797359Y-66659648D01*
X125808266Y-66669534D01*
X125818152Y-66680441D01*
X125826920Y-66692264D01*
X125834488Y-66704890D01*
X125840782Y-66718197D01*
X125845741Y-66732057D01*
X125849318Y-66746336D01*
X125851478Y-66760897D01*
X125852200Y-66775600D01*
X125852200Y-68425600D01*
X125851478Y-68440303D01*
X125849318Y-68454864D01*
X125845741Y-68469143D01*
X125840782Y-68483003D01*
X125834488Y-68496310D01*
X125826920Y-68508936D01*
X125818152Y-68520759D01*
X125808266Y-68531666D01*
X125797359Y-68541552D01*
X125785536Y-68550320D01*
X125772910Y-68557888D01*
X125759603Y-68564182D01*
X125745743Y-68569141D01*
X125731464Y-68572718D01*
X125716903Y-68574878D01*
X125702200Y-68575600D01*
X125402200Y-68575600D01*
X125387497Y-68574878D01*
X125372936Y-68572718D01*
X125358657Y-68569141D01*
X125344797Y-68564182D01*
X125331490Y-68557888D01*
X125318864Y-68550320D01*
X125307041Y-68541552D01*
X125296134Y-68531666D01*
X125286248Y-68520759D01*
X125277480Y-68508936D01*
X125269912Y-68496310D01*
X125263618Y-68483003D01*
X125258659Y-68469143D01*
X125255082Y-68454864D01*
X125252922Y-68440303D01*
X125252200Y-68425600D01*
X125252200Y-66775600D01*
X125252922Y-66760897D01*
X125255082Y-66746336D01*
X125258659Y-66732057D01*
X125263618Y-66718197D01*
X125269912Y-66704890D01*
X125277480Y-66692264D01*
X125286248Y-66680441D01*
X125296134Y-66669534D01*
X125307041Y-66659648D01*
X125318864Y-66650880D01*
X125331490Y-66643312D01*
X125344797Y-66637018D01*
X125358657Y-66632059D01*
X125372936Y-66628482D01*
X125387497Y-66626322D01*
X125402200Y-66625600D01*
X125702200Y-66625600D01*
X125716903Y-66626322D01*
G37*
G04 #@! TD.AperFunction*
D11*
X112106000Y-71830000D03*
X123206000Y-71830000D03*
X112106000Y-71030000D03*
X123206000Y-71030000D03*
X112106000Y-70230000D03*
X123206000Y-70230000D03*
X112106000Y-69430000D03*
X123206000Y-69430000D03*
X112106000Y-68630000D03*
X123206000Y-68630000D03*
X112106000Y-67830000D03*
X123206000Y-67830000D03*
X112106000Y-67030000D03*
X123206000Y-67030000D03*
X112106000Y-66230000D03*
X123206000Y-66230000D03*
X112106000Y-65430000D03*
X123206000Y-65430000D03*
X112106000Y-64630000D03*
X123206000Y-64630000D03*
X112106000Y-63830000D03*
X123206000Y-63830000D03*
X112106000Y-63030000D03*
X123206000Y-63030000D03*
X112106000Y-62230000D03*
X123206000Y-62230000D03*
X112106000Y-61430000D03*
X123206000Y-61430000D03*
X112106000Y-60630000D03*
X123206000Y-60630000D03*
X112106000Y-59830000D03*
X123206000Y-59830000D03*
X112106000Y-59030000D03*
X123206000Y-59030000D03*
X112106000Y-58230000D03*
X123206000Y-58230000D03*
X112106000Y-57430000D03*
X123206000Y-57430000D03*
X112106000Y-56630000D03*
X123206000Y-56630000D03*
X112106000Y-55830000D03*
X123206000Y-55830000D03*
X112106000Y-55030000D03*
X123206000Y-55030000D03*
X112106000Y-54230000D03*
X123206000Y-54230000D03*
X112106000Y-53430000D03*
X123206000Y-53430000D03*
X112106000Y-52630000D03*
X123206000Y-52630000D03*
X98898000Y-71830000D03*
X109998000Y-71830000D03*
X98898000Y-71030000D03*
X109998000Y-71030000D03*
X98898000Y-70230000D03*
X109998000Y-70230000D03*
X98898000Y-69430000D03*
X109998000Y-69430000D03*
X98898000Y-68630000D03*
X109998000Y-68630000D03*
X98898000Y-67830000D03*
X109998000Y-67830000D03*
X98898000Y-67030000D03*
X109998000Y-67030000D03*
X98898000Y-66230000D03*
X109998000Y-66230000D03*
X98898000Y-65430000D03*
X109998000Y-65430000D03*
X98898000Y-64630000D03*
X109998000Y-64630000D03*
X98898000Y-63830000D03*
X109998000Y-63830000D03*
X98898000Y-63030000D03*
X109998000Y-63030000D03*
X98898000Y-62230000D03*
X109998000Y-62230000D03*
X98898000Y-61430000D03*
X109998000Y-61430000D03*
X98898000Y-60630000D03*
X109998000Y-60630000D03*
X98898000Y-59830000D03*
X109998000Y-59830000D03*
X98898000Y-59030000D03*
X109998000Y-59030000D03*
X98898000Y-58230000D03*
X109998000Y-58230000D03*
X98898000Y-57430000D03*
X109998000Y-57430000D03*
X98898000Y-56630000D03*
X109998000Y-56630000D03*
X98898000Y-55830000D03*
X109998000Y-55830000D03*
X98898000Y-55030000D03*
X109998000Y-55030000D03*
X98898000Y-54230000D03*
X109998000Y-54230000D03*
X98898000Y-53430000D03*
X109998000Y-53430000D03*
X98898000Y-52630000D03*
X109998000Y-52630000D03*
X83302400Y-71880800D03*
X94402400Y-71880800D03*
X83302400Y-71080800D03*
X94402400Y-71080800D03*
X83302400Y-70280800D03*
X94402400Y-70280800D03*
X83302400Y-69480800D03*
X94402400Y-69480800D03*
X83302400Y-68680800D03*
X94402400Y-68680800D03*
X83302400Y-67880800D03*
X94402400Y-67880800D03*
X83302400Y-67080800D03*
X94402400Y-67080800D03*
X83302400Y-66280800D03*
X94402400Y-66280800D03*
X83302400Y-65480800D03*
X94402400Y-65480800D03*
X83302400Y-64680800D03*
X94402400Y-64680800D03*
X83302400Y-63880800D03*
X94402400Y-63880800D03*
X83302400Y-63080800D03*
X94402400Y-63080800D03*
X83302400Y-62280800D03*
X94402400Y-62280800D03*
X83302400Y-61480800D03*
X94402400Y-61480800D03*
X83302400Y-60680800D03*
X94402400Y-60680800D03*
X83302400Y-59880800D03*
X94402400Y-59880800D03*
X83302400Y-59080800D03*
X94402400Y-59080800D03*
X83302400Y-58280800D03*
X94402400Y-58280800D03*
X83302400Y-57480800D03*
X94402400Y-57480800D03*
X83302400Y-56680800D03*
X94402400Y-56680800D03*
X83302400Y-55880800D03*
X94402400Y-55880800D03*
X83302400Y-55080800D03*
X94402400Y-55080800D03*
X83302400Y-54280800D03*
X94402400Y-54280800D03*
X83302400Y-53480800D03*
X94402400Y-53480800D03*
X83302400Y-52680800D03*
X94402400Y-52680800D03*
X81143600Y-52680800D03*
X70043600Y-52680800D03*
X81143600Y-53480800D03*
X70043600Y-53480800D03*
X81143600Y-54280800D03*
X70043600Y-54280800D03*
X81143600Y-55080800D03*
X70043600Y-55080800D03*
X81143600Y-55880800D03*
X70043600Y-55880800D03*
X81143600Y-56680800D03*
X70043600Y-56680800D03*
X81143600Y-57480800D03*
X70043600Y-57480800D03*
X81143600Y-58280800D03*
X70043600Y-58280800D03*
X81143600Y-59080800D03*
X70043600Y-59080800D03*
X81143600Y-59880800D03*
X70043600Y-59880800D03*
X81143600Y-60680800D03*
X70043600Y-60680800D03*
X81143600Y-61480800D03*
X70043600Y-61480800D03*
X81143600Y-62280800D03*
X70043600Y-62280800D03*
X81143600Y-63080800D03*
X70043600Y-63080800D03*
X81143600Y-63880800D03*
X70043600Y-63880800D03*
X81143600Y-64680800D03*
X70043600Y-64680800D03*
X81143600Y-65480800D03*
X70043600Y-65480800D03*
X81143600Y-66280800D03*
X70043600Y-66280800D03*
X81143600Y-67080800D03*
X70043600Y-67080800D03*
X81143600Y-67880800D03*
X70043600Y-67880800D03*
X81143600Y-68680800D03*
X70043600Y-68680800D03*
X81143600Y-69480800D03*
X70043600Y-69480800D03*
X81143600Y-70280800D03*
X70043600Y-70280800D03*
X81143600Y-71080800D03*
X70043600Y-71080800D03*
X81143600Y-71880800D03*
X70043600Y-71880800D03*
D12*
X67946699Y-75596599D03*
X68746699Y-75596599D03*
X69546699Y-75596599D03*
X70346699Y-75596599D03*
X71146699Y-75596599D03*
X71946699Y-75596599D03*
X72746699Y-75596599D03*
X73546699Y-75596599D03*
X74346699Y-75596599D03*
X75146699Y-75596599D03*
X75946699Y-75596599D03*
X76746699Y-75596599D03*
X77546699Y-75596599D03*
X78346699Y-75596599D03*
X79146699Y-75596599D03*
X79946699Y-75596599D03*
X80746699Y-75596599D03*
X81546699Y-75596599D03*
X82346699Y-75596599D03*
X83146699Y-75596599D03*
X83946699Y-75596599D03*
X84746699Y-75596599D03*
X85546699Y-75596599D03*
X86346699Y-75596599D03*
X87146699Y-75596599D03*
X87946699Y-75596599D03*
X88746699Y-75596599D03*
X89546699Y-75596599D03*
X90346699Y-75596599D03*
X91146699Y-75596599D03*
X95746699Y-75596599D03*
X96546699Y-75596599D03*
X97346699Y-75596599D03*
X98146699Y-75596599D03*
X98946699Y-75596599D03*
X99746699Y-75596599D03*
X100546699Y-75596599D03*
X101346699Y-75596599D03*
X102146699Y-75596599D03*
X102946699Y-75596599D03*
X103746699Y-75596599D03*
X104546699Y-75596599D03*
X105346699Y-75596599D03*
X106146699Y-75596599D03*
X106946699Y-75596599D03*
X107746699Y-75596599D03*
X108546699Y-75596599D03*
X109346699Y-75596599D03*
X110146699Y-75596599D03*
X110946699Y-75596599D03*
X111746699Y-75596599D03*
X112546699Y-75596599D03*
X113346699Y-75596599D03*
X114146699Y-75596599D03*
X114946699Y-75596599D03*
X115746699Y-75596599D03*
X116546699Y-75596599D03*
X117346699Y-75596599D03*
X118146699Y-75596599D03*
X118946699Y-75596599D03*
X119746699Y-75596599D03*
X120546699Y-75596599D03*
X121346699Y-75596599D03*
X122146699Y-75596599D03*
X122946699Y-75596599D03*
X123746699Y-75596599D03*
X124546699Y-75596599D03*
X125346699Y-75596599D03*
X126146699Y-75596599D03*
X126946699Y-75596599D03*
X127746699Y-75596599D03*
X128546699Y-75596599D03*
G04 #@! TA.AperFunction,SMDPad,CuDef*
D10*
G36*
X127677779Y-70036544D02*
G01*
X127700834Y-70039963D01*
X127723443Y-70045627D01*
X127745387Y-70053479D01*
X127766457Y-70063444D01*
X127786448Y-70075426D01*
X127805168Y-70089310D01*
X127822438Y-70104962D01*
X127838090Y-70122232D01*
X127851974Y-70140952D01*
X127863956Y-70160943D01*
X127873921Y-70182013D01*
X127881773Y-70203957D01*
X127887437Y-70226566D01*
X127890856Y-70249621D01*
X127892000Y-70272900D01*
X127892000Y-70747900D01*
X127890856Y-70771179D01*
X127887437Y-70794234D01*
X127881773Y-70816843D01*
X127873921Y-70838787D01*
X127863956Y-70859857D01*
X127851974Y-70879848D01*
X127838090Y-70898568D01*
X127822438Y-70915838D01*
X127805168Y-70931490D01*
X127786448Y-70945374D01*
X127766457Y-70957356D01*
X127745387Y-70967321D01*
X127723443Y-70975173D01*
X127700834Y-70980837D01*
X127677779Y-70984256D01*
X127654500Y-70985400D01*
X127079500Y-70985400D01*
X127056221Y-70984256D01*
X127033166Y-70980837D01*
X127010557Y-70975173D01*
X126988613Y-70967321D01*
X126967543Y-70957356D01*
X126947552Y-70945374D01*
X126928832Y-70931490D01*
X126911562Y-70915838D01*
X126895910Y-70898568D01*
X126882026Y-70879848D01*
X126870044Y-70859857D01*
X126860079Y-70838787D01*
X126852227Y-70816843D01*
X126846563Y-70794234D01*
X126843144Y-70771179D01*
X126842000Y-70747900D01*
X126842000Y-70272900D01*
X126843144Y-70249621D01*
X126846563Y-70226566D01*
X126852227Y-70203957D01*
X126860079Y-70182013D01*
X126870044Y-70160943D01*
X126882026Y-70140952D01*
X126895910Y-70122232D01*
X126911562Y-70104962D01*
X126928832Y-70089310D01*
X126947552Y-70075426D01*
X126967543Y-70063444D01*
X126988613Y-70053479D01*
X127010557Y-70045627D01*
X127033166Y-70039963D01*
X127056221Y-70036544D01*
X127079500Y-70035400D01*
X127654500Y-70035400D01*
X127677779Y-70036544D01*
G37*
G04 #@! TD.AperFunction*
G04 #@! TA.AperFunction,SMDPad,CuDef*
G36*
X125927779Y-70036544D02*
G01*
X125950834Y-70039963D01*
X125973443Y-70045627D01*
X125995387Y-70053479D01*
X126016457Y-70063444D01*
X126036448Y-70075426D01*
X126055168Y-70089310D01*
X126072438Y-70104962D01*
X126088090Y-70122232D01*
X126101974Y-70140952D01*
X126113956Y-70160943D01*
X126123921Y-70182013D01*
X126131773Y-70203957D01*
X126137437Y-70226566D01*
X126140856Y-70249621D01*
X126142000Y-70272900D01*
X126142000Y-70747900D01*
X126140856Y-70771179D01*
X126137437Y-70794234D01*
X126131773Y-70816843D01*
X126123921Y-70838787D01*
X126113956Y-70859857D01*
X126101974Y-70879848D01*
X126088090Y-70898568D01*
X126072438Y-70915838D01*
X126055168Y-70931490D01*
X126036448Y-70945374D01*
X126016457Y-70957356D01*
X125995387Y-70967321D01*
X125973443Y-70975173D01*
X125950834Y-70980837D01*
X125927779Y-70984256D01*
X125904500Y-70985400D01*
X125329500Y-70985400D01*
X125306221Y-70984256D01*
X125283166Y-70980837D01*
X125260557Y-70975173D01*
X125238613Y-70967321D01*
X125217543Y-70957356D01*
X125197552Y-70945374D01*
X125178832Y-70931490D01*
X125161562Y-70915838D01*
X125145910Y-70898568D01*
X125132026Y-70879848D01*
X125120044Y-70859857D01*
X125110079Y-70838787D01*
X125102227Y-70816843D01*
X125096563Y-70794234D01*
X125093144Y-70771179D01*
X125092000Y-70747900D01*
X125092000Y-70272900D01*
X125093144Y-70249621D01*
X125096563Y-70226566D01*
X125102227Y-70203957D01*
X125110079Y-70182013D01*
X125120044Y-70160943D01*
X125132026Y-70140952D01*
X125145910Y-70122232D01*
X125161562Y-70104962D01*
X125178832Y-70089310D01*
X125197552Y-70075426D01*
X125217543Y-70063444D01*
X125238613Y-70053479D01*
X125260557Y-70045627D01*
X125283166Y-70039963D01*
X125306221Y-70036544D01*
X125329500Y-70035400D01*
X125904500Y-70035400D01*
X125927779Y-70036544D01*
G37*
G04 #@! TD.AperFunction*
G04 #@! TA.AperFunction,SMDPad,CuDef*
G36*
X128490579Y-52866144D02*
G01*
X128513634Y-52869563D01*
X128536243Y-52875227D01*
X128558187Y-52883079D01*
X128579257Y-52893044D01*
X128599248Y-52905026D01*
X128617968Y-52918910D01*
X128635238Y-52934562D01*
X128650890Y-52951832D01*
X128664774Y-52970552D01*
X128676756Y-52990543D01*
X128686721Y-53011613D01*
X128694573Y-53033557D01*
X128700237Y-53056166D01*
X128703656Y-53079221D01*
X128704800Y-53102500D01*
X128704800Y-53577500D01*
X128703656Y-53600779D01*
X128700237Y-53623834D01*
X128694573Y-53646443D01*
X128686721Y-53668387D01*
X128676756Y-53689457D01*
X128664774Y-53709448D01*
X128650890Y-53728168D01*
X128635238Y-53745438D01*
X128617968Y-53761090D01*
X128599248Y-53774974D01*
X128579257Y-53786956D01*
X128558187Y-53796921D01*
X128536243Y-53804773D01*
X128513634Y-53810437D01*
X128490579Y-53813856D01*
X128467300Y-53815000D01*
X127892300Y-53815000D01*
X127869021Y-53813856D01*
X127845966Y-53810437D01*
X127823357Y-53804773D01*
X127801413Y-53796921D01*
X127780343Y-53786956D01*
X127760352Y-53774974D01*
X127741632Y-53761090D01*
X127724362Y-53745438D01*
X127708710Y-53728168D01*
X127694826Y-53709448D01*
X127682844Y-53689457D01*
X127672879Y-53668387D01*
X127665027Y-53646443D01*
X127659363Y-53623834D01*
X127655944Y-53600779D01*
X127654800Y-53577500D01*
X127654800Y-53102500D01*
X127655944Y-53079221D01*
X127659363Y-53056166D01*
X127665027Y-53033557D01*
X127672879Y-53011613D01*
X127682844Y-52990543D01*
X127694826Y-52970552D01*
X127708710Y-52951832D01*
X127724362Y-52934562D01*
X127741632Y-52918910D01*
X127760352Y-52905026D01*
X127780343Y-52893044D01*
X127801413Y-52883079D01*
X127823357Y-52875227D01*
X127845966Y-52869563D01*
X127869021Y-52866144D01*
X127892300Y-52865000D01*
X128467300Y-52865000D01*
X128490579Y-52866144D01*
G37*
G04 #@! TD.AperFunction*
G04 #@! TA.AperFunction,SMDPad,CuDef*
G36*
X126740579Y-52866144D02*
G01*
X126763634Y-52869563D01*
X126786243Y-52875227D01*
X126808187Y-52883079D01*
X126829257Y-52893044D01*
X126849248Y-52905026D01*
X126867968Y-52918910D01*
X126885238Y-52934562D01*
X126900890Y-52951832D01*
X126914774Y-52970552D01*
X126926756Y-52990543D01*
X126936721Y-53011613D01*
X126944573Y-53033557D01*
X126950237Y-53056166D01*
X126953656Y-53079221D01*
X126954800Y-53102500D01*
X126954800Y-53577500D01*
X126953656Y-53600779D01*
X126950237Y-53623834D01*
X126944573Y-53646443D01*
X126936721Y-53668387D01*
X126926756Y-53689457D01*
X126914774Y-53709448D01*
X126900890Y-53728168D01*
X126885238Y-53745438D01*
X126867968Y-53761090D01*
X126849248Y-53774974D01*
X126829257Y-53786956D01*
X126808187Y-53796921D01*
X126786243Y-53804773D01*
X126763634Y-53810437D01*
X126740579Y-53813856D01*
X126717300Y-53815000D01*
X126142300Y-53815000D01*
X126119021Y-53813856D01*
X126095966Y-53810437D01*
X126073357Y-53804773D01*
X126051413Y-53796921D01*
X126030343Y-53786956D01*
X126010352Y-53774974D01*
X125991632Y-53761090D01*
X125974362Y-53745438D01*
X125958710Y-53728168D01*
X125944826Y-53709448D01*
X125932844Y-53689457D01*
X125922879Y-53668387D01*
X125915027Y-53646443D01*
X125909363Y-53623834D01*
X125905944Y-53600779D01*
X125904800Y-53577500D01*
X125904800Y-53102500D01*
X125905944Y-53079221D01*
X125909363Y-53056166D01*
X125915027Y-53033557D01*
X125922879Y-53011613D01*
X125932844Y-52990543D01*
X125944826Y-52970552D01*
X125958710Y-52951832D01*
X125974362Y-52934562D01*
X125991632Y-52918910D01*
X126010352Y-52905026D01*
X126030343Y-52893044D01*
X126051413Y-52883079D01*
X126073357Y-52875227D01*
X126095966Y-52869563D01*
X126119021Y-52866144D01*
X126142300Y-52865000D01*
X126717300Y-52865000D01*
X126740579Y-52866144D01*
G37*
G04 #@! TD.AperFunction*
G04 #@! TA.AperFunction,SMDPad,CuDef*
G36*
X96882379Y-68908344D02*
G01*
X96905434Y-68911763D01*
X96928043Y-68917427D01*
X96949987Y-68925279D01*
X96971057Y-68935244D01*
X96991048Y-68947226D01*
X97009768Y-68961110D01*
X97027038Y-68976762D01*
X97042690Y-68994032D01*
X97056574Y-69012752D01*
X97068556Y-69032743D01*
X97078521Y-69053813D01*
X97086373Y-69075757D01*
X97092037Y-69098366D01*
X97095456Y-69121421D01*
X97096600Y-69144700D01*
X97096600Y-69719700D01*
X97095456Y-69742979D01*
X97092037Y-69766034D01*
X97086373Y-69788643D01*
X97078521Y-69810587D01*
X97068556Y-69831657D01*
X97056574Y-69851648D01*
X97042690Y-69870368D01*
X97027038Y-69887638D01*
X97009768Y-69903290D01*
X96991048Y-69917174D01*
X96971057Y-69929156D01*
X96949987Y-69939121D01*
X96928043Y-69946973D01*
X96905434Y-69952637D01*
X96882379Y-69956056D01*
X96859100Y-69957200D01*
X96384100Y-69957200D01*
X96360821Y-69956056D01*
X96337766Y-69952637D01*
X96315157Y-69946973D01*
X96293213Y-69939121D01*
X96272143Y-69929156D01*
X96252152Y-69917174D01*
X96233432Y-69903290D01*
X96216162Y-69887638D01*
X96200510Y-69870368D01*
X96186626Y-69851648D01*
X96174644Y-69831657D01*
X96164679Y-69810587D01*
X96156827Y-69788643D01*
X96151163Y-69766034D01*
X96147744Y-69742979D01*
X96146600Y-69719700D01*
X96146600Y-69144700D01*
X96147744Y-69121421D01*
X96151163Y-69098366D01*
X96156827Y-69075757D01*
X96164679Y-69053813D01*
X96174644Y-69032743D01*
X96186626Y-69012752D01*
X96200510Y-68994032D01*
X96216162Y-68976762D01*
X96233432Y-68961110D01*
X96252152Y-68947226D01*
X96272143Y-68935244D01*
X96293213Y-68925279D01*
X96315157Y-68917427D01*
X96337766Y-68911763D01*
X96360821Y-68908344D01*
X96384100Y-68907200D01*
X96859100Y-68907200D01*
X96882379Y-68908344D01*
G37*
G04 #@! TD.AperFunction*
G04 #@! TA.AperFunction,SMDPad,CuDef*
G36*
X96882379Y-70658344D02*
G01*
X96905434Y-70661763D01*
X96928043Y-70667427D01*
X96949987Y-70675279D01*
X96971057Y-70685244D01*
X96991048Y-70697226D01*
X97009768Y-70711110D01*
X97027038Y-70726762D01*
X97042690Y-70744032D01*
X97056574Y-70762752D01*
X97068556Y-70782743D01*
X97078521Y-70803813D01*
X97086373Y-70825757D01*
X97092037Y-70848366D01*
X97095456Y-70871421D01*
X97096600Y-70894700D01*
X97096600Y-71469700D01*
X97095456Y-71492979D01*
X97092037Y-71516034D01*
X97086373Y-71538643D01*
X97078521Y-71560587D01*
X97068556Y-71581657D01*
X97056574Y-71601648D01*
X97042690Y-71620368D01*
X97027038Y-71637638D01*
X97009768Y-71653290D01*
X96991048Y-71667174D01*
X96971057Y-71679156D01*
X96949987Y-71689121D01*
X96928043Y-71696973D01*
X96905434Y-71702637D01*
X96882379Y-71706056D01*
X96859100Y-71707200D01*
X96384100Y-71707200D01*
X96360821Y-71706056D01*
X96337766Y-71702637D01*
X96315157Y-71696973D01*
X96293213Y-71689121D01*
X96272143Y-71679156D01*
X96252152Y-71667174D01*
X96233432Y-71653290D01*
X96216162Y-71637638D01*
X96200510Y-71620368D01*
X96186626Y-71601648D01*
X96174644Y-71581657D01*
X96164679Y-71560587D01*
X96156827Y-71538643D01*
X96151163Y-71516034D01*
X96147744Y-71492979D01*
X96146600Y-71469700D01*
X96146600Y-70894700D01*
X96147744Y-70871421D01*
X96151163Y-70848366D01*
X96156827Y-70825757D01*
X96164679Y-70803813D01*
X96174644Y-70782743D01*
X96186626Y-70762752D01*
X96200510Y-70744032D01*
X96216162Y-70726762D01*
X96233432Y-70711110D01*
X96252152Y-70697226D01*
X96272143Y-70685244D01*
X96293213Y-70675279D01*
X96315157Y-70667427D01*
X96337766Y-70661763D01*
X96360821Y-70658344D01*
X96384100Y-70657200D01*
X96859100Y-70657200D01*
X96882379Y-70658344D01*
G37*
G04 #@! TD.AperFunction*
G04 #@! TA.AperFunction,SMDPad,CuDef*
G36*
X96831579Y-52336144D02*
G01*
X96854634Y-52339563D01*
X96877243Y-52345227D01*
X96899187Y-52353079D01*
X96920257Y-52363044D01*
X96940248Y-52375026D01*
X96958968Y-52388910D01*
X96976238Y-52404562D01*
X96991890Y-52421832D01*
X97005774Y-52440552D01*
X97017756Y-52460543D01*
X97027721Y-52481613D01*
X97035573Y-52503557D01*
X97041237Y-52526166D01*
X97044656Y-52549221D01*
X97045800Y-52572500D01*
X97045800Y-53147500D01*
X97044656Y-53170779D01*
X97041237Y-53193834D01*
X97035573Y-53216443D01*
X97027721Y-53238387D01*
X97017756Y-53259457D01*
X97005774Y-53279448D01*
X96991890Y-53298168D01*
X96976238Y-53315438D01*
X96958968Y-53331090D01*
X96940248Y-53344974D01*
X96920257Y-53356956D01*
X96899187Y-53366921D01*
X96877243Y-53374773D01*
X96854634Y-53380437D01*
X96831579Y-53383856D01*
X96808300Y-53385000D01*
X96333300Y-53385000D01*
X96310021Y-53383856D01*
X96286966Y-53380437D01*
X96264357Y-53374773D01*
X96242413Y-53366921D01*
X96221343Y-53356956D01*
X96201352Y-53344974D01*
X96182632Y-53331090D01*
X96165362Y-53315438D01*
X96149710Y-53298168D01*
X96135826Y-53279448D01*
X96123844Y-53259457D01*
X96113879Y-53238387D01*
X96106027Y-53216443D01*
X96100363Y-53193834D01*
X96096944Y-53170779D01*
X96095800Y-53147500D01*
X96095800Y-52572500D01*
X96096944Y-52549221D01*
X96100363Y-52526166D01*
X96106027Y-52503557D01*
X96113879Y-52481613D01*
X96123844Y-52460543D01*
X96135826Y-52440552D01*
X96149710Y-52421832D01*
X96165362Y-52404562D01*
X96182632Y-52388910D01*
X96201352Y-52375026D01*
X96221343Y-52363044D01*
X96242413Y-52353079D01*
X96264357Y-52345227D01*
X96286966Y-52339563D01*
X96310021Y-52336144D01*
X96333300Y-52335000D01*
X96808300Y-52335000D01*
X96831579Y-52336144D01*
G37*
G04 #@! TD.AperFunction*
G04 #@! TA.AperFunction,SMDPad,CuDef*
G36*
X96831579Y-54086144D02*
G01*
X96854634Y-54089563D01*
X96877243Y-54095227D01*
X96899187Y-54103079D01*
X96920257Y-54113044D01*
X96940248Y-54125026D01*
X96958968Y-54138910D01*
X96976238Y-54154562D01*
X96991890Y-54171832D01*
X97005774Y-54190552D01*
X97017756Y-54210543D01*
X97027721Y-54231613D01*
X97035573Y-54253557D01*
X97041237Y-54276166D01*
X97044656Y-54299221D01*
X97045800Y-54322500D01*
X97045800Y-54897500D01*
X97044656Y-54920779D01*
X97041237Y-54943834D01*
X97035573Y-54966443D01*
X97027721Y-54988387D01*
X97017756Y-55009457D01*
X97005774Y-55029448D01*
X96991890Y-55048168D01*
X96976238Y-55065438D01*
X96958968Y-55081090D01*
X96940248Y-55094974D01*
X96920257Y-55106956D01*
X96899187Y-55116921D01*
X96877243Y-55124773D01*
X96854634Y-55130437D01*
X96831579Y-55133856D01*
X96808300Y-55135000D01*
X96333300Y-55135000D01*
X96310021Y-55133856D01*
X96286966Y-55130437D01*
X96264357Y-55124773D01*
X96242413Y-55116921D01*
X96221343Y-55106956D01*
X96201352Y-55094974D01*
X96182632Y-55081090D01*
X96165362Y-55065438D01*
X96149710Y-55048168D01*
X96135826Y-55029448D01*
X96123844Y-55009457D01*
X96113879Y-54988387D01*
X96106027Y-54966443D01*
X96100363Y-54943834D01*
X96096944Y-54920779D01*
X96095800Y-54897500D01*
X96095800Y-54322500D01*
X96096944Y-54299221D01*
X96100363Y-54276166D01*
X96106027Y-54253557D01*
X96113879Y-54231613D01*
X96123844Y-54210543D01*
X96135826Y-54190552D01*
X96149710Y-54171832D01*
X96165362Y-54154562D01*
X96182632Y-54138910D01*
X96201352Y-54125026D01*
X96221343Y-54113044D01*
X96242413Y-54103079D01*
X96264357Y-54095227D01*
X96286966Y-54089563D01*
X96310021Y-54086144D01*
X96333300Y-54085000D01*
X96808300Y-54085000D01*
X96831579Y-54086144D01*
G37*
G04 #@! TD.AperFunction*
G04 #@! TA.AperFunction,SMDPad,CuDef*
G36*
X68027979Y-68778744D02*
G01*
X68051034Y-68782163D01*
X68073643Y-68787827D01*
X68095587Y-68795679D01*
X68116657Y-68805644D01*
X68136648Y-68817626D01*
X68155368Y-68831510D01*
X68172638Y-68847162D01*
X68188290Y-68864432D01*
X68202174Y-68883152D01*
X68214156Y-68903143D01*
X68224121Y-68924213D01*
X68231973Y-68946157D01*
X68237637Y-68968766D01*
X68241056Y-68991821D01*
X68242200Y-69015100D01*
X68242200Y-69590100D01*
X68241056Y-69613379D01*
X68237637Y-69636434D01*
X68231973Y-69659043D01*
X68224121Y-69680987D01*
X68214156Y-69702057D01*
X68202174Y-69722048D01*
X68188290Y-69740768D01*
X68172638Y-69758038D01*
X68155368Y-69773690D01*
X68136648Y-69787574D01*
X68116657Y-69799556D01*
X68095587Y-69809521D01*
X68073643Y-69817373D01*
X68051034Y-69823037D01*
X68027979Y-69826456D01*
X68004700Y-69827600D01*
X67529700Y-69827600D01*
X67506421Y-69826456D01*
X67483366Y-69823037D01*
X67460757Y-69817373D01*
X67438813Y-69809521D01*
X67417743Y-69799556D01*
X67397752Y-69787574D01*
X67379032Y-69773690D01*
X67361762Y-69758038D01*
X67346110Y-69740768D01*
X67332226Y-69722048D01*
X67320244Y-69702057D01*
X67310279Y-69680987D01*
X67302427Y-69659043D01*
X67296763Y-69636434D01*
X67293344Y-69613379D01*
X67292200Y-69590100D01*
X67292200Y-69015100D01*
X67293344Y-68991821D01*
X67296763Y-68968766D01*
X67302427Y-68946157D01*
X67310279Y-68924213D01*
X67320244Y-68903143D01*
X67332226Y-68883152D01*
X67346110Y-68864432D01*
X67361762Y-68847162D01*
X67379032Y-68831510D01*
X67397752Y-68817626D01*
X67417743Y-68805644D01*
X67438813Y-68795679D01*
X67460757Y-68787827D01*
X67483366Y-68782163D01*
X67506421Y-68778744D01*
X67529700Y-68777600D01*
X68004700Y-68777600D01*
X68027979Y-68778744D01*
G37*
G04 #@! TD.AperFunction*
G04 #@! TA.AperFunction,SMDPad,CuDef*
G36*
X68027979Y-67028744D02*
G01*
X68051034Y-67032163D01*
X68073643Y-67037827D01*
X68095587Y-67045679D01*
X68116657Y-67055644D01*
X68136648Y-67067626D01*
X68155368Y-67081510D01*
X68172638Y-67097162D01*
X68188290Y-67114432D01*
X68202174Y-67133152D01*
X68214156Y-67153143D01*
X68224121Y-67174213D01*
X68231973Y-67196157D01*
X68237637Y-67218766D01*
X68241056Y-67241821D01*
X68242200Y-67265100D01*
X68242200Y-67840100D01*
X68241056Y-67863379D01*
X68237637Y-67886434D01*
X68231973Y-67909043D01*
X68224121Y-67930987D01*
X68214156Y-67952057D01*
X68202174Y-67972048D01*
X68188290Y-67990768D01*
X68172638Y-68008038D01*
X68155368Y-68023690D01*
X68136648Y-68037574D01*
X68116657Y-68049556D01*
X68095587Y-68059521D01*
X68073643Y-68067373D01*
X68051034Y-68073037D01*
X68027979Y-68076456D01*
X68004700Y-68077600D01*
X67529700Y-68077600D01*
X67506421Y-68076456D01*
X67483366Y-68073037D01*
X67460757Y-68067373D01*
X67438813Y-68059521D01*
X67417743Y-68049556D01*
X67397752Y-68037574D01*
X67379032Y-68023690D01*
X67361762Y-68008038D01*
X67346110Y-67990768D01*
X67332226Y-67972048D01*
X67320244Y-67952057D01*
X67310279Y-67930987D01*
X67302427Y-67909043D01*
X67296763Y-67886434D01*
X67293344Y-67863379D01*
X67292200Y-67840100D01*
X67292200Y-67265100D01*
X67293344Y-67241821D01*
X67296763Y-67218766D01*
X67302427Y-67196157D01*
X67310279Y-67174213D01*
X67320244Y-67153143D01*
X67332226Y-67133152D01*
X67346110Y-67114432D01*
X67361762Y-67097162D01*
X67379032Y-67081510D01*
X67397752Y-67067626D01*
X67417743Y-67055644D01*
X67438813Y-67045679D01*
X67460757Y-67037827D01*
X67483366Y-67032163D01*
X67506421Y-67028744D01*
X67529700Y-67027600D01*
X68004700Y-67027600D01*
X68027979Y-67028744D01*
G37*
G04 #@! TD.AperFunction*
G04 #@! TA.AperFunction,SMDPad,CuDef*
G36*
X67977179Y-52449144D02*
G01*
X68000234Y-52452563D01*
X68022843Y-52458227D01*
X68044787Y-52466079D01*
X68065857Y-52476044D01*
X68085848Y-52488026D01*
X68104568Y-52501910D01*
X68121838Y-52517562D01*
X68137490Y-52534832D01*
X68151374Y-52553552D01*
X68163356Y-52573543D01*
X68173321Y-52594613D01*
X68181173Y-52616557D01*
X68186837Y-52639166D01*
X68190256Y-52662221D01*
X68191400Y-52685500D01*
X68191400Y-53260500D01*
X68190256Y-53283779D01*
X68186837Y-53306834D01*
X68181173Y-53329443D01*
X68173321Y-53351387D01*
X68163356Y-53372457D01*
X68151374Y-53392448D01*
X68137490Y-53411168D01*
X68121838Y-53428438D01*
X68104568Y-53444090D01*
X68085848Y-53457974D01*
X68065857Y-53469956D01*
X68044787Y-53479921D01*
X68022843Y-53487773D01*
X68000234Y-53493437D01*
X67977179Y-53496856D01*
X67953900Y-53498000D01*
X67478900Y-53498000D01*
X67455621Y-53496856D01*
X67432566Y-53493437D01*
X67409957Y-53487773D01*
X67388013Y-53479921D01*
X67366943Y-53469956D01*
X67346952Y-53457974D01*
X67328232Y-53444090D01*
X67310962Y-53428438D01*
X67295310Y-53411168D01*
X67281426Y-53392448D01*
X67269444Y-53372457D01*
X67259479Y-53351387D01*
X67251627Y-53329443D01*
X67245963Y-53306834D01*
X67242544Y-53283779D01*
X67241400Y-53260500D01*
X67241400Y-52685500D01*
X67242544Y-52662221D01*
X67245963Y-52639166D01*
X67251627Y-52616557D01*
X67259479Y-52594613D01*
X67269444Y-52573543D01*
X67281426Y-52553552D01*
X67295310Y-52534832D01*
X67310962Y-52517562D01*
X67328232Y-52501910D01*
X67346952Y-52488026D01*
X67366943Y-52476044D01*
X67388013Y-52466079D01*
X67409957Y-52458227D01*
X67432566Y-52452563D01*
X67455621Y-52449144D01*
X67478900Y-52448000D01*
X67953900Y-52448000D01*
X67977179Y-52449144D01*
G37*
G04 #@! TD.AperFunction*
G04 #@! TA.AperFunction,SMDPad,CuDef*
G36*
X67977179Y-54199144D02*
G01*
X68000234Y-54202563D01*
X68022843Y-54208227D01*
X68044787Y-54216079D01*
X68065857Y-54226044D01*
X68085848Y-54238026D01*
X68104568Y-54251910D01*
X68121838Y-54267562D01*
X68137490Y-54284832D01*
X68151374Y-54303552D01*
X68163356Y-54323543D01*
X68173321Y-54344613D01*
X68181173Y-54366557D01*
X68186837Y-54389166D01*
X68190256Y-54412221D01*
X68191400Y-54435500D01*
X68191400Y-55010500D01*
X68190256Y-55033779D01*
X68186837Y-55056834D01*
X68181173Y-55079443D01*
X68173321Y-55101387D01*
X68163356Y-55122457D01*
X68151374Y-55142448D01*
X68137490Y-55161168D01*
X68121838Y-55178438D01*
X68104568Y-55194090D01*
X68085848Y-55207974D01*
X68065857Y-55219956D01*
X68044787Y-55229921D01*
X68022843Y-55237773D01*
X68000234Y-55243437D01*
X67977179Y-55246856D01*
X67953900Y-55248000D01*
X67478900Y-55248000D01*
X67455621Y-55246856D01*
X67432566Y-55243437D01*
X67409957Y-55237773D01*
X67388013Y-55229921D01*
X67366943Y-55219956D01*
X67346952Y-55207974D01*
X67328232Y-55194090D01*
X67310962Y-55178438D01*
X67295310Y-55161168D01*
X67281426Y-55142448D01*
X67269444Y-55122457D01*
X67259479Y-55101387D01*
X67251627Y-55079443D01*
X67245963Y-55056834D01*
X67242544Y-55033779D01*
X67241400Y-55010500D01*
X67241400Y-54435500D01*
X67242544Y-54412221D01*
X67245963Y-54389166D01*
X67251627Y-54366557D01*
X67259479Y-54344613D01*
X67269444Y-54323543D01*
X67281426Y-54303552D01*
X67295310Y-54284832D01*
X67310962Y-54267562D01*
X67328232Y-54251910D01*
X67346952Y-54238026D01*
X67366943Y-54226044D01*
X67388013Y-54216079D01*
X67409957Y-54208227D01*
X67432566Y-54202563D01*
X67455621Y-54199144D01*
X67478900Y-54198000D01*
X67953900Y-54198000D01*
X67977179Y-54199144D01*
G37*
G04 #@! TD.AperFunction*
D13*
X104292400Y-73914000D03*
X97078800Y-73914000D03*
X86106000Y-73863200D03*
X78892400Y-73914000D03*
X110591600Y-72542400D03*
X85953600Y-56540400D03*
X67767200Y-73863200D03*
X68376800Y-62382400D03*
X66497200Y-52933600D03*
X79095600Y-63296800D03*
X89052400Y-52730400D03*
X92151200Y-71932800D03*
X91490800Y-52730400D03*
X84785200Y-63804800D03*
X90017600Y-73761600D03*
X85852000Y-67818000D03*
X96774000Y-68224400D03*
X97383600Y-63703200D03*
X97688400Y-67970400D03*
X108356400Y-68275200D03*
X106375200Y-52730400D03*
X93116400Y-63144400D03*
X79857600Y-68173600D03*
X76708000Y-52679600D03*
X114757200Y-68173600D03*
X113792000Y-63804800D03*
X116128800Y-52527200D03*
X129235200Y-53390800D03*
X127431800Y-73787000D03*
X125679200Y-65989200D03*
X108051600Y-63042800D03*
X96672400Y-52019200D03*
X126339600Y-72644000D03*
X95746000Y-67931600D03*
X69545200Y-72644000D03*
X83870800Y-72745600D03*
X99364800Y-72542400D03*
X112725200Y-72542400D03*
X109626400Y-72593200D03*
X80721200Y-72644000D03*
X119430800Y-73812400D03*
X114554000Y-73761600D03*
X107137200Y-73406000D03*
X101803200Y-73812400D03*
X81991200Y-73761600D03*
X76403200Y-73914000D03*
X67767200Y-66598800D03*
X67716400Y-55626000D03*
X78232000Y-52679600D03*
X79806800Y-63906400D03*
X78943200Y-67818000D03*
X90220800Y-52781200D03*
X85344000Y-63144400D03*
X84988400Y-68122800D03*
X96723200Y-55727600D03*
X102565200Y-52730400D03*
X93167200Y-67868800D03*
X96723200Y-72288400D03*
X96113600Y-63754000D03*
X104698800Y-52679600D03*
X108458000Y-63754000D03*
X107137200Y-68173600D03*
X100126800Y-67970400D03*
X100228400Y-63144400D03*
X73253600Y-52781200D03*
X127101600Y-54660800D03*
X122123200Y-67868800D03*
X125578800Y-71830000D03*
X114554000Y-63144400D03*
X126898400Y-65278000D03*
X117652800Y-52781200D03*
X87884000Y-52781200D03*
X113487200Y-68224400D03*
X81737200Y-72593200D03*
X111709200Y-72542400D03*
X98399600Y-72644000D03*
X82854800Y-72644000D03*
X70408800Y-72593200D03*
X72542400Y-73914000D03*
X116636800Y-73812400D03*
X123342400Y-73761600D03*
X128981200Y-73761600D03*
X111963200Y-73761600D03*
X71475600Y-67868800D03*
X68815600Y-71406400D03*
X80010000Y-70916800D03*
X71424800Y-70866000D03*
X79349600Y-70104000D03*
X71577200Y-69646800D03*
X80010000Y-69392800D03*
X71476400Y-68680800D03*
X79044800Y-68783200D03*
X71526400Y-67106800D03*
X78435200Y-67005200D03*
X71907400Y-66421000D03*
X79870800Y-66331600D03*
X71577200Y-65481200D03*
X78790800Y-65735200D03*
X71882000Y-64719200D03*
X77673200Y-65074800D03*
X71729600Y-61976000D03*
X73101200Y-62687200D03*
X75184000Y-72491600D03*
X72644000Y-62077600D03*
X73660000Y-64262000D03*
X88239600Y-63246000D03*
X88239600Y-65379600D03*
X76454000Y-72186800D03*
X86664800Y-62636400D03*
X87274400Y-65379600D03*
X74523600Y-64211200D03*
X78638400Y-58420000D03*
X72313800Y-57988200D03*
X85090000Y-58420000D03*
X101447600Y-58166000D03*
X107645200Y-58623200D03*
X113893600Y-58166000D03*
X92202000Y-58064400D03*
X77343000Y-55448200D03*
X78689200Y-72440800D03*
X75793600Y-56692800D03*
X77724000Y-72186800D03*
X78384400Y-54762400D03*
X74676000Y-59182000D03*
X79171800Y-55956200D03*
X75895200Y-59232800D03*
X77266800Y-71323200D03*
X79767600Y-53480800D03*
X78079600Y-63246000D03*
X79603600Y-61976000D03*
X78384400Y-61417200D03*
X71653600Y-60680800D03*
X79578000Y-60680800D03*
X71678800Y-53492400D03*
X72339200Y-54102000D03*
X71678800Y-54813200D03*
X91490800Y-55321200D03*
X101904800Y-55067200D03*
X115773200Y-54660800D03*
X121970800Y-54660800D03*
X86817200Y-56540400D03*
X84988400Y-56540400D03*
X96215200Y-57759600D03*
X102717600Y-57404000D03*
X108229400Y-57378600D03*
X115570000Y-56642000D03*
X90830400Y-54610000D03*
X102565200Y-54508400D03*
X115062000Y-54051200D03*
X121107200Y-54051200D03*
X90220800Y-55829200D03*
X101854000Y-56337200D03*
X116382800Y-55321200D03*
X121107200Y-55321200D03*
X92202000Y-54051200D03*
X101193600Y-54051200D03*
X108508800Y-54051200D03*
X114401600Y-53390800D03*
X121886674Y-53424126D03*
X84785200Y-71170800D03*
X90881200Y-64719200D03*
X85598000Y-70662800D03*
X91389600Y-65531600D03*
X85344000Y-69494400D03*
X90792800Y-66331600D03*
X86156800Y-69088000D03*
X91313600Y-67131600D03*
X87071200Y-69494400D03*
X91389200Y-68732400D03*
X87426800Y-67513200D03*
X90844000Y-69531600D03*
X88087200Y-68275200D03*
X91364800Y-70331600D03*
X88747600Y-67564000D03*
X90818800Y-71131600D03*
X91236800Y-63652400D03*
X87325200Y-63296800D03*
X97028000Y-62585600D03*
X100888800Y-64058800D03*
X107137200Y-63144400D03*
X116179600Y-63195200D03*
X91287600Y-61976000D03*
X96113600Y-61976000D03*
X102057200Y-63195200D03*
X105613200Y-63804800D03*
X87782400Y-61976000D03*
X115163600Y-61264800D03*
X90627200Y-61417200D03*
X87172800Y-61417200D03*
X103378000Y-61315600D03*
X107238800Y-61366400D03*
X96774000Y-61315600D03*
X114198400Y-61366400D03*
X85039200Y-60756800D03*
X97383600Y-60604400D03*
X101676000Y-60630000D03*
X107873600Y-60731600D03*
X121869200Y-60655200D03*
X113610118Y-60633882D03*
X100076000Y-71120000D03*
X102971600Y-71170800D03*
X108762800Y-71475600D03*
X100584000Y-70358000D03*
X103479600Y-70408800D03*
X108407200Y-70510400D03*
X100177600Y-69494400D03*
X103022400Y-69646800D03*
X108813600Y-69748400D03*
X100533200Y-68732400D03*
X103530400Y-68732400D03*
X107594400Y-69138800D03*
X100584000Y-67005200D03*
X102920800Y-67056000D03*
X107086400Y-67005200D03*
X100126800Y-66243200D03*
X103479600Y-66294000D03*
X107594400Y-66294000D03*
X100533200Y-65532000D03*
X102971600Y-65532000D03*
X107086800Y-65430000D03*
X100177600Y-64719200D03*
X103479600Y-64770000D03*
X107594400Y-64617600D03*
X85191600Y-53543200D03*
X93208061Y-53533261D03*
X100228400Y-53441600D03*
X107797600Y-53441600D03*
X75641200Y-53594000D03*
X113538000Y-71882000D03*
X86309200Y-54203600D03*
X93191900Y-54431500D03*
X100228400Y-54305200D03*
X107848400Y-54711600D03*
X75031600Y-54102000D03*
X113588800Y-54406800D03*
X85547200Y-55118000D03*
X91795600Y-55981600D03*
X102565200Y-55727600D03*
X108661200Y-55727600D03*
X76708000Y-54762400D03*
X114452400Y-54711600D03*
X72339200Y-55422800D03*
X87477600Y-55270400D03*
X107442000Y-56388000D03*
X79857600Y-56540400D03*
X113588800Y-55727600D03*
X113385600Y-73761600D03*
X115620800Y-71780400D03*
X71662800Y-58607200D03*
X85953600Y-59080400D03*
X91287600Y-58115200D03*
X100634800Y-58826400D03*
X108432600Y-59105800D03*
X79298800Y-59080400D03*
X121920000Y-58572400D03*
X115544600Y-58597800D03*
X71628000Y-56083200D03*
X97129600Y-57810400D03*
X103327200Y-56743600D03*
X106730800Y-56743600D03*
X121615200Y-55930800D03*
X114757200Y-56388000D03*
X78638400Y-57150000D03*
X115468400Y-72745600D03*
X71628000Y-57302400D03*
X85953600Y-57759600D03*
X92710000Y-57454800D03*
X103327200Y-58064400D03*
X100710400Y-57430000D03*
X106883200Y-58064400D03*
X77825600Y-57810400D03*
X121056400Y-57353200D03*
X114554000Y-57708800D03*
X103378000Y-62585600D03*
X105664000Y-62585600D03*
X117195600Y-73101200D03*
X120294400Y-59385200D03*
X116484400Y-59385200D03*
X101701600Y-61976000D03*
X106324400Y-61976000D03*
X121005600Y-60045600D03*
X114452400Y-60045600D03*
X115773200Y-61874400D03*
X116789200Y-62585600D03*
X118872000Y-73152000D03*
X121513600Y-62687200D03*
X120954800Y-61925200D03*
X113424800Y-71030000D03*
X122162400Y-71030000D03*
X114021600Y-70230000D03*
X121818400Y-70358000D03*
X113450000Y-69430000D03*
X122072400Y-69443600D03*
X114046000Y-68884800D03*
X121462800Y-68681600D03*
X114732400Y-67030000D03*
X121564400Y-66954400D03*
X113703600Y-66230000D03*
X122072400Y-66192400D03*
X114249600Y-65430000D03*
X121615200Y-65481200D03*
X113588800Y-64719200D03*
X125984000Y-73761600D03*
X122174000Y-64668400D03*
X128270000Y-63957200D03*
D14*
X103696699Y-74509701D02*
X104292400Y-73914000D01*
X103696699Y-75596599D02*
X103696699Y-74509701D01*
X96483099Y-74509701D02*
X97078800Y-73914000D01*
X96483099Y-75596599D02*
X96483099Y-74509701D01*
X85510299Y-74458901D02*
X86106000Y-73863200D01*
X85510299Y-75545799D02*
X85510299Y-74458901D01*
X78296699Y-74509701D02*
X78892400Y-73914000D01*
X78296699Y-75596599D02*
X78296699Y-74509701D01*
X110591600Y-72542400D02*
X110591600Y-72542400D01*
X109998000Y-71830000D02*
X110234800Y-71830000D01*
X110234800Y-71830000D02*
X110591600Y-72186800D01*
X110591600Y-72186800D02*
X110591600Y-72542400D01*
X68060600Y-69302600D02*
X67767200Y-69302600D01*
X70043600Y-67880800D02*
X69482400Y-67880800D01*
X69482400Y-67880800D02*
X68060600Y-69302600D01*
X67767200Y-69302600D02*
X67767200Y-73863200D01*
X67767200Y-73863200D02*
X67767200Y-73863200D01*
X67767200Y-75417100D02*
X67946699Y-75596599D01*
X67767200Y-73863200D02*
X67767200Y-75417100D01*
X69090400Y-63080800D02*
X68376800Y-62382400D01*
X70043600Y-63080800D02*
X69090400Y-63080800D01*
X68376800Y-62382400D02*
X68392000Y-62382400D01*
X69994000Y-52730400D02*
X70043600Y-52680800D01*
X67716400Y-52973000D02*
X67959000Y-52730400D01*
X67959000Y-52730400D02*
X69994000Y-52730400D01*
X67716400Y-52973000D02*
X66497200Y-52933600D01*
X66497200Y-52933600D02*
X66536600Y-52973000D01*
X83302400Y-52680800D02*
X86666000Y-52680800D01*
X86666000Y-52680800D02*
X87376000Y-53390800D01*
X87376000Y-53390800D02*
X88392000Y-53390800D01*
X88392000Y-53390800D02*
X89052400Y-52730400D01*
X89052400Y-52730400D02*
X89052400Y-52730400D01*
X84255600Y-63080800D02*
X84785200Y-63610400D01*
X83302400Y-63080800D02*
X84255600Y-63080800D01*
X84785200Y-63610400D02*
X84785200Y-63804800D01*
X84785200Y-63804800D02*
X84785200Y-63804800D01*
X89546699Y-74243399D02*
X90017600Y-73761600D01*
X89546699Y-75596599D02*
X89546699Y-74243399D01*
X90017600Y-73761600D02*
X90017600Y-73772498D01*
X83302400Y-67880800D02*
X84316000Y-67880800D01*
X84316000Y-67880800D02*
X84734400Y-67462400D01*
X84734400Y-67462400D02*
X85496400Y-67462400D01*
X85496400Y-67462400D02*
X85852000Y-67818000D01*
X85852000Y-67818000D02*
X85852000Y-67818000D01*
X96774000Y-68224400D02*
X96774000Y-68275200D01*
X96774000Y-68275200D02*
X96621600Y-68427600D01*
X96621600Y-68376800D02*
X96774000Y-68224400D01*
X96621600Y-69432200D02*
X96621600Y-68376800D01*
X98898000Y-63030000D02*
X98056800Y-63030000D01*
X98056800Y-63030000D02*
X97383600Y-63703200D01*
X97383600Y-63703200D02*
X97383600Y-63703200D01*
X98898000Y-67830000D02*
X97828800Y-67830000D01*
X97828800Y-67830000D02*
X97688400Y-67970400D01*
X97688400Y-67970400D02*
X97688400Y-67970400D01*
X96800800Y-52630000D02*
X96570800Y-52860000D01*
X98898000Y-52630000D02*
X96800800Y-52630000D01*
X112106000Y-67830000D02*
X112713200Y-67830000D01*
X112713200Y-67830000D02*
X113030000Y-67513200D01*
X113030000Y-67513200D02*
X114096800Y-67513200D01*
X114096800Y-67513200D02*
X114757200Y-68173600D01*
X114757200Y-68173600D02*
X114757200Y-68173600D01*
X112106000Y-63030000D02*
X113017200Y-63030000D01*
X113017200Y-63030000D02*
X113792000Y-63804800D01*
X113792000Y-63804800D02*
X113792000Y-63804800D01*
X112106000Y-52630000D02*
X116026000Y-52630000D01*
X116026000Y-52630000D02*
X116128800Y-52527200D01*
X116128800Y-52527200D02*
X116128800Y-52527200D01*
X128179800Y-53340000D02*
X129235200Y-53390800D01*
X129235200Y-53390800D02*
X129184400Y-53340000D01*
X127508000Y-73710800D02*
X127508000Y-70651400D01*
X126946699Y-75596599D02*
X126946699Y-74272101D01*
X127508000Y-70651400D02*
X127367000Y-70510400D01*
X126946699Y-74272101D02*
X127431800Y-73787000D01*
X127431800Y-73787000D02*
X127508000Y-73710800D01*
X126822200Y-67600600D02*
X126822200Y-66167000D01*
X126822200Y-66167000D02*
X126644400Y-65989200D01*
X126644400Y-65989200D02*
X125679200Y-65989200D01*
X125679200Y-65989200D02*
X125679200Y-65989200D01*
X125552200Y-66116200D02*
X125679200Y-65989200D01*
X125552200Y-67600600D02*
X125552200Y-66116200D01*
X126644400Y-65989200D02*
X127863600Y-65989200D01*
X128092200Y-66217800D02*
X128092200Y-67600600D01*
X127863600Y-65989200D02*
X128092200Y-66217800D01*
X96570800Y-52120800D02*
X96570800Y-52860000D01*
X96672400Y-52019200D02*
X96570800Y-52120800D01*
X70043600Y-71880800D02*
X69749600Y-71880800D01*
X69749600Y-71880800D02*
X69545200Y-72085200D01*
X69545200Y-72085200D02*
X69545200Y-72644000D01*
X69545200Y-72644000D02*
X69545200Y-72644000D01*
X83302400Y-71880800D02*
X83615600Y-71880800D01*
X83615600Y-71880800D02*
X83870800Y-72136000D01*
X83870800Y-72136000D02*
X83870800Y-72745600D01*
X83870800Y-72745600D02*
X83870800Y-72745600D01*
X98898000Y-71830000D02*
X99008000Y-71830000D01*
X99008000Y-71830000D02*
X99364800Y-72186800D01*
X99364800Y-72186800D02*
X99364800Y-72542400D01*
X99364800Y-72542400D02*
X99364800Y-72542400D01*
X112106000Y-71830000D02*
X112419200Y-71830000D01*
X112419200Y-71830000D02*
X112725200Y-72136000D01*
X112725200Y-72136000D02*
X112725200Y-72542400D01*
X112725200Y-72542400D02*
X112725200Y-72542400D01*
X118946699Y-75596599D02*
X118946699Y-74296501D01*
X118946699Y-74296501D02*
X119430800Y-73812400D01*
X119430800Y-73812400D02*
X119430800Y-73812400D01*
X114146699Y-75596599D02*
X114146699Y-74219701D01*
X114146699Y-74219701D02*
X114554000Y-73761600D01*
X114554000Y-73761600D02*
X114554000Y-73812400D01*
X107746699Y-75596599D02*
X107746699Y-74015499D01*
X107746699Y-74015499D02*
X107137200Y-73406000D01*
X107137200Y-73406000D02*
X107137200Y-73406000D01*
X101346699Y-75596599D02*
X101346699Y-74218101D01*
X101346699Y-74218101D02*
X101854000Y-73710800D01*
X81546699Y-74206101D02*
X81991200Y-73761600D01*
X81546699Y-75596599D02*
X81546699Y-74206101D01*
X75946699Y-75596599D02*
X75946699Y-74370501D01*
X75946699Y-74370501D02*
X76403200Y-73914000D01*
X76403200Y-73914000D02*
X76403200Y-73914000D01*
X127863600Y-65989200D02*
X128778000Y-65989200D01*
X129362200Y-66573400D02*
X129362200Y-67600600D01*
X128778000Y-65989200D02*
X129362200Y-66573400D01*
X67767200Y-67552600D02*
X67767200Y-67027600D01*
X67767200Y-67027600D02*
X67767200Y-66598800D01*
X67767200Y-66598800D02*
X67767200Y-66598800D01*
X67716400Y-54723000D02*
X67716400Y-55248000D01*
X67716400Y-55248000D02*
X67716400Y-55626000D01*
X67716400Y-55626000D02*
X67716400Y-55626000D01*
X81143600Y-52680800D02*
X78232000Y-52679600D01*
X78232000Y-52679600D02*
X78233200Y-52680800D01*
X80190400Y-63080800D02*
X79806800Y-63464400D01*
X81143600Y-63080800D02*
X80190400Y-63080800D01*
X79806800Y-63464400D02*
X79806800Y-63906400D01*
X79806800Y-63906400D02*
X79806800Y-63906400D01*
X78943200Y-67818000D02*
X78978000Y-67852800D01*
X80119600Y-67564000D02*
X79197200Y-67564000D01*
X79197200Y-67564000D02*
X78943200Y-67818000D01*
X81143600Y-67880800D02*
X80436400Y-67880800D01*
X80436400Y-67880800D02*
X80119600Y-67564000D01*
X94402400Y-52680800D02*
X92505600Y-52680800D01*
X92505600Y-52680800D02*
X91744800Y-53441600D01*
X91744800Y-53441600D02*
X90881200Y-53441600D01*
X90881200Y-53441600D02*
X90220800Y-52781200D01*
X90220800Y-52781200D02*
X90220800Y-52781200D01*
X94402400Y-67880800D02*
X93167200Y-67868800D01*
X93167200Y-67868800D02*
X93179200Y-67880800D01*
X95923000Y-71880800D02*
X96621600Y-71182200D01*
X94402400Y-71880800D02*
X95923000Y-71880800D01*
X96621600Y-71182200D02*
X96621600Y-72186800D01*
X96621600Y-72186800D02*
X96723200Y-72288400D01*
X96723200Y-72288400D02*
X96723200Y-72288400D01*
X94402400Y-63080800D02*
X95440400Y-63080800D01*
X95440400Y-63080800D02*
X96113600Y-63754000D01*
X96113600Y-63754000D02*
X96113600Y-63754000D01*
X96570800Y-55575200D02*
X96723200Y-55727600D01*
X96570800Y-54610000D02*
X96570800Y-55575200D01*
X109998000Y-52630000D02*
X107339200Y-52630000D01*
X107339200Y-52630000D02*
X106578400Y-53390800D01*
X106578400Y-53390800D02*
X105765600Y-53390800D01*
X105765600Y-53390800D02*
X105054400Y-52679600D01*
X105054400Y-52679600D02*
X104698800Y-52679600D01*
X104698800Y-52679600D02*
X104698800Y-52679600D01*
X109998000Y-63030000D02*
X109182000Y-63030000D01*
X109182000Y-63030000D02*
X108458000Y-63754000D01*
X108458000Y-63754000D02*
X108458000Y-63754000D01*
X109998000Y-67830000D02*
X109130400Y-67830000D01*
X109130400Y-67830000D02*
X108813600Y-67513200D01*
X108813600Y-67513200D02*
X107797600Y-67513200D01*
X107797600Y-67513200D02*
X107137200Y-68173600D01*
X123206000Y-52630000D02*
X124308800Y-52630000D01*
X125018800Y-53340000D02*
X126429800Y-53340000D01*
X124308800Y-52630000D02*
X125018800Y-53340000D01*
X126429800Y-53340000D02*
X126429800Y-53989000D01*
X126429800Y-53989000D02*
X127101600Y-54660800D01*
X127101600Y-54660800D02*
X127101600Y-54660800D01*
X123206000Y-63030000D02*
X124599600Y-63030000D01*
X124599600Y-63030000D02*
X125272800Y-63703200D01*
X125272800Y-63703200D02*
X125476000Y-63703200D01*
X125552200Y-63627000D02*
X125552200Y-62650600D01*
X125476000Y-63703200D02*
X125552200Y-63627000D01*
X123206000Y-67830000D02*
X122123200Y-67868800D01*
X122123200Y-67868800D02*
X122162000Y-67830000D01*
X123206000Y-71830000D02*
X125578800Y-71830000D01*
X125578800Y-71830000D02*
X125780800Y-71628000D01*
X125780800Y-70674200D02*
X125617000Y-70510400D01*
X125780800Y-71628000D02*
X125780800Y-70674200D01*
X125578800Y-71830000D02*
X125578800Y-71830000D01*
X81143600Y-71880800D02*
X81380400Y-71880800D01*
X81380400Y-71880800D02*
X81737200Y-72237600D01*
X81737200Y-72237600D02*
X81737200Y-72593200D01*
X81737200Y-72593200D02*
X81737200Y-72593200D01*
X71946699Y-75596599D02*
X71946699Y-74509701D01*
X71946699Y-74509701D02*
X72542400Y-73914000D01*
X72542400Y-73914000D02*
X72542400Y-73914000D01*
X116546699Y-75596599D02*
X116546699Y-73902501D01*
X116546699Y-73902501D02*
X116636800Y-73812400D01*
X116636800Y-73812400D02*
X116636800Y-73812400D01*
X122946699Y-75596599D02*
X122946699Y-74157301D01*
X122946699Y-74157301D02*
X123342400Y-73761600D01*
X123342400Y-73761600D02*
X123342400Y-73761600D01*
X128546699Y-75596599D02*
X128546699Y-74196101D01*
X128546699Y-74196101D02*
X128981200Y-73761600D01*
X128981200Y-73761600D02*
X128981200Y-73761600D01*
X126898400Y-65125600D02*
X125476000Y-63703200D01*
X126898400Y-65278000D02*
X126898400Y-65125600D01*
X111746699Y-73978101D02*
X111746699Y-75596599D01*
X111963200Y-73761600D02*
X111746699Y-73978101D01*
D15*
X69141200Y-71080800D02*
X68815600Y-71406400D01*
X70043600Y-71080800D02*
X69141200Y-71080800D01*
X68529200Y-71692800D02*
X68529200Y-73456800D01*
X68746699Y-73674299D02*
X68746699Y-75596599D01*
X68529200Y-73456800D02*
X68746699Y-73674299D01*
X68815600Y-71406400D02*
X68529200Y-71692800D01*
X80241200Y-71080800D02*
X80010000Y-70916800D01*
X81143600Y-71080800D02*
X80241200Y-71080800D01*
X80010000Y-70916800D02*
X80077200Y-70916800D01*
X70946000Y-70280800D02*
X70043600Y-70280800D01*
X71424800Y-70759600D02*
X70946000Y-70280800D01*
X69546699Y-75596599D02*
X69546699Y-73861701D01*
X69546699Y-73861701D02*
X69951600Y-73456800D01*
X69951600Y-73456800D02*
X70815200Y-73456800D01*
X70815200Y-73456800D02*
X71424800Y-72847200D01*
X71424800Y-72847200D02*
X71424800Y-70866000D01*
X71424800Y-70866000D02*
X71424800Y-70759600D01*
X81143600Y-70280800D02*
X79526400Y-70280800D01*
X79526400Y-70280800D02*
X79349600Y-70104000D01*
X79349600Y-70104000D02*
X79349600Y-70104000D01*
X70043600Y-69480800D02*
X71411200Y-69480800D01*
X72085200Y-70154800D02*
X72085200Y-72847200D01*
X71411200Y-69480800D02*
X71577200Y-69646800D01*
X72085200Y-72847200D02*
X70916800Y-74015600D01*
X70346699Y-74294199D02*
X70346699Y-75596599D01*
X70625298Y-74015600D02*
X70346699Y-74294199D01*
X70916800Y-74015600D02*
X70625298Y-74015600D01*
X71577200Y-69646800D02*
X72085200Y-70154800D01*
X80010000Y-69392800D02*
X80010000Y-69392800D01*
X80098000Y-69480800D02*
X80010000Y-69392800D01*
X81143600Y-69480800D02*
X80098000Y-69480800D01*
X72542898Y-72898000D02*
X71146699Y-74294199D01*
X71525600Y-68680800D02*
X72491600Y-69646800D01*
X72491600Y-72796400D02*
X72542898Y-72847698D01*
X71146699Y-74294199D02*
X71146699Y-75596599D01*
X70043600Y-68680800D02*
X71476400Y-68680800D01*
X72491600Y-69646800D02*
X72491600Y-72796400D01*
X72542898Y-72847698D02*
X72542898Y-72898000D01*
X71476400Y-68680800D02*
X71525600Y-68680800D01*
X79044800Y-68783200D02*
X79147200Y-68680800D01*
X81041200Y-68783200D02*
X79044800Y-68783200D01*
X81143600Y-68680800D02*
X81041200Y-68783200D01*
X72951256Y-75392042D02*
X72746699Y-75596599D01*
X72136000Y-67716400D02*
X72136000Y-68478400D01*
X71526400Y-67106800D02*
X72136000Y-67716400D01*
X70043600Y-67080800D02*
X70946000Y-67080800D01*
X70972000Y-67106800D02*
X71526400Y-67106800D01*
X72847200Y-69189600D02*
X72847200Y-73152000D01*
X72951256Y-74422000D02*
X72951256Y-75392042D01*
X70946000Y-67080800D02*
X70972000Y-67106800D01*
X72136000Y-68478400D02*
X72847200Y-69189600D01*
X73202800Y-74170456D02*
X72951256Y-74422000D01*
X72847200Y-73152000D02*
X73202800Y-73507600D01*
X73202800Y-73507600D02*
X73202800Y-74170456D01*
X71526400Y-67106800D02*
X71526400Y-67106800D01*
X78435200Y-67005200D02*
X78510800Y-67080800D01*
X78536800Y-67106800D02*
X78435200Y-67005200D01*
X81143600Y-67080800D02*
X81117600Y-67106800D01*
X81117600Y-67106800D02*
X78536800Y-67106800D01*
X73660000Y-73456800D02*
X73660000Y-75483298D01*
X73660000Y-75483298D02*
X73546699Y-75596599D01*
X73253600Y-73050400D02*
X73660000Y-73456800D01*
X71767200Y-66280800D02*
X71907400Y-66421000D01*
X70043600Y-66280800D02*
X71767200Y-66280800D01*
X72491600Y-67005200D02*
X72491600Y-68275200D01*
X72491600Y-68275200D02*
X73253600Y-69037200D01*
X73253600Y-69037200D02*
X73253600Y-73050400D01*
X71907400Y-66421000D02*
X72491600Y-67005200D01*
X81092800Y-66331600D02*
X81143600Y-66280800D01*
X79870800Y-66331600D02*
X81092800Y-66331600D01*
X70946000Y-65480800D02*
X70946400Y-65481200D01*
X70043600Y-65480800D02*
X70946000Y-65480800D01*
X70946400Y-65481200D02*
X71577200Y-65481200D01*
X72034400Y-65481200D02*
X72898000Y-66344800D01*
X72898000Y-66344800D02*
X72898000Y-68224400D01*
X72898000Y-68224400D02*
X73660000Y-68986400D01*
X73660000Y-68986400D02*
X73660000Y-72948800D01*
X73660000Y-72948800D02*
X74015600Y-73304400D01*
X74015600Y-73304400D02*
X74015600Y-73914000D01*
X74346699Y-74245099D02*
X74346699Y-75596599D01*
X74015600Y-73914000D02*
X74346699Y-74245099D01*
X71577200Y-65481200D02*
X72034400Y-65481200D01*
X80241200Y-65480800D02*
X80010000Y-65712000D01*
X81143600Y-65480800D02*
X80241200Y-65480800D01*
X80010000Y-65712000D02*
X78790800Y-65735200D01*
X78790800Y-65735200D02*
X78814000Y-65712000D01*
X75146699Y-74294199D02*
X75146699Y-75596599D01*
X74918900Y-74066400D02*
X75146699Y-74294199D01*
X73253600Y-66040000D02*
X73253600Y-68021200D01*
X73253600Y-68021200D02*
X74015600Y-68783200D01*
X70599600Y-64680800D02*
X70638000Y-64719200D01*
X71932800Y-64719200D02*
X73253600Y-66040000D01*
X70638000Y-64719200D02*
X71882000Y-64719200D01*
X70043600Y-64680800D02*
X70599600Y-64680800D01*
X74015600Y-68783200D02*
X74015600Y-72745600D01*
X74371200Y-73101200D02*
X74371200Y-73710800D01*
X74015600Y-72745600D02*
X74371200Y-73101200D01*
X74726800Y-74066400D02*
X74918900Y-74066400D01*
X74371200Y-73710800D02*
X74726800Y-74066400D01*
X71882000Y-64719200D02*
X71932800Y-64719200D01*
X80241200Y-64680800D02*
X79847200Y-65074800D01*
X81143600Y-64680800D02*
X80241200Y-64680800D01*
X79847200Y-65074800D02*
X77673200Y-65074800D01*
X77673200Y-65074800D02*
X77673200Y-65074800D01*
X70043600Y-61480800D02*
X71234400Y-61480800D01*
X71234400Y-61480800D02*
X71729600Y-61976000D01*
X76746699Y-75596599D02*
X76746699Y-74688101D01*
X76746699Y-74688101D02*
X77114400Y-74320400D01*
X77114400Y-74320400D02*
X77114400Y-73660000D01*
X77114400Y-73660000D02*
X76657200Y-73202800D01*
X76657200Y-73202800D02*
X74930000Y-73202800D01*
X74371200Y-72644000D02*
X74371200Y-68630800D01*
X74930000Y-73202800D02*
X74371200Y-72644000D01*
X73710800Y-67970400D02*
X73710800Y-65989200D01*
X74371200Y-68630800D02*
X73710800Y-67970400D01*
X73710800Y-65840854D02*
X72440800Y-64570854D01*
X73710800Y-65989200D02*
X73710800Y-65840854D01*
X72440800Y-64570854D02*
X72440800Y-63347600D01*
X72440800Y-63347600D02*
X73101200Y-62687200D01*
X70946000Y-62280800D02*
X71352400Y-62687200D01*
X70043600Y-62280800D02*
X70946000Y-62280800D01*
X71352400Y-62687200D02*
X72034400Y-62687200D01*
X72034400Y-62687200D02*
X72644000Y-62077600D01*
X72694800Y-62026800D02*
X73406000Y-62026800D01*
X73406000Y-62026800D02*
X73761600Y-62382400D01*
X73761600Y-62382400D02*
X73761600Y-62890400D01*
X73761600Y-62890400D02*
X72847200Y-63804800D01*
X72847200Y-63804800D02*
X72847200Y-64617600D01*
X72847200Y-64617600D02*
X74015600Y-65786000D01*
X74015600Y-65786000D02*
X74015600Y-67818000D01*
X74015600Y-67818000D02*
X74777600Y-68580000D01*
X74777600Y-68580000D02*
X74777600Y-72085200D01*
X74777600Y-72085200D02*
X75184000Y-72491600D01*
X75184000Y-72491600D02*
X75184000Y-72491600D01*
X72644000Y-62077600D02*
X72694800Y-62026800D01*
X77546699Y-74294199D02*
X77520800Y-74268300D01*
X77546699Y-75596599D02*
X77546699Y-74294199D01*
X77520800Y-74268300D02*
X77520800Y-73609200D01*
X77520800Y-73609200D02*
X76758800Y-72847200D01*
X76758800Y-72847200D02*
X76047600Y-72847200D01*
X76047600Y-72847200D02*
X75793600Y-72593200D01*
X75793600Y-72593200D02*
X75793600Y-72288400D01*
X75793600Y-72288400D02*
X75184000Y-71678800D01*
X75184000Y-71678800D02*
X75184000Y-68427600D01*
X75184000Y-68427600D02*
X74371200Y-67614800D01*
X74371200Y-67614800D02*
X74371200Y-65532000D01*
X74371200Y-65532000D02*
X73660000Y-64820800D01*
X73660000Y-64820800D02*
X73660000Y-64262000D01*
X73660000Y-64262000D02*
X73660000Y-64262000D01*
X86474400Y-61480800D02*
X88239600Y-63246000D01*
X83302400Y-61480800D02*
X86474400Y-61480800D01*
X88239600Y-63246000D02*
X88239600Y-63670264D01*
X88239600Y-63670264D02*
X88239600Y-65379600D01*
X88239600Y-65379600D02*
X88239600Y-65379600D01*
X86664800Y-62636400D02*
X86664800Y-64770000D01*
X86664800Y-64770000D02*
X87274400Y-65379600D01*
X87274400Y-65379600D02*
X87274400Y-65379600D01*
X86309200Y-62280800D02*
X86664800Y-62636400D01*
X83302400Y-62280800D02*
X86309200Y-62280800D01*
X76454000Y-72186800D02*
X75539600Y-71272400D01*
X75539600Y-71272400D02*
X75539600Y-68326000D01*
X75539600Y-68326000D02*
X75539600Y-68275200D01*
X75539600Y-68275200D02*
X74726800Y-67462400D01*
X74726800Y-67462400D02*
X74726800Y-65430400D01*
X74726800Y-65430400D02*
X74523600Y-65227200D01*
X74523600Y-65227200D02*
X74523600Y-64211200D01*
X74523600Y-64211200D02*
X74523600Y-64211200D01*
X81143600Y-57480800D02*
X80847600Y-57480800D01*
X80847600Y-57480800D02*
X80721200Y-57607200D01*
X80721200Y-57607200D02*
X79451200Y-57607200D01*
X79451200Y-57607200D02*
X78638400Y-58420000D01*
X78638400Y-58420000D02*
X78638400Y-58420000D01*
X79146699Y-75596599D02*
X79146699Y-74675701D01*
X79146699Y-74675701D02*
X79451200Y-74371200D01*
X79451200Y-74371200D02*
X79451200Y-73609200D01*
X79451200Y-73609200D02*
X79095600Y-73253600D01*
X79095600Y-73253600D02*
X77724000Y-73253600D01*
X77724000Y-73253600D02*
X77063600Y-72593200D01*
X77063600Y-72593200D02*
X77063600Y-72034400D01*
X77063600Y-72034400D02*
X76657200Y-71628000D01*
X76657200Y-71628000D02*
X76454000Y-71628000D01*
X76454000Y-71628000D02*
X75946000Y-71120000D01*
X75946000Y-71120000D02*
X75946000Y-68224400D01*
X75946000Y-68224400D02*
X75133200Y-67411600D01*
X75133200Y-67411600D02*
X75133200Y-62179200D01*
X75133200Y-62179200D02*
X72796400Y-59842400D01*
X72796400Y-59842400D02*
X72796400Y-58470800D01*
X72796400Y-58470800D02*
X72313800Y-57988200D01*
X72313800Y-57988200D02*
X72288400Y-57962800D01*
X93500000Y-57480800D02*
X92916400Y-58064400D01*
X94402400Y-57480800D02*
X93500000Y-57480800D01*
X92916400Y-58064400D02*
X92202000Y-58064400D01*
X92100400Y-58064400D02*
X91440000Y-57404000D01*
X91440000Y-57404000D02*
X90779600Y-57404000D01*
X90779600Y-57404000D02*
X90525600Y-57658000D01*
X90525600Y-57658000D02*
X86918800Y-57658000D01*
X86918800Y-57658000D02*
X86156800Y-58420000D01*
X86156800Y-58420000D02*
X85090000Y-58420000D01*
X85090000Y-58420000D02*
X85090000Y-58420000D01*
X109998000Y-57430000D02*
X109092400Y-57430000D01*
X109092400Y-57430000D02*
X108508800Y-58013600D01*
X108508800Y-58013600D02*
X108254800Y-58013600D01*
X108254800Y-58013600D02*
X107645200Y-58623200D01*
X107645200Y-58623200D02*
X101904800Y-58623200D01*
X101904800Y-58623200D02*
X101447600Y-58166000D01*
X101447600Y-58166000D02*
X101447600Y-58166000D01*
X107645200Y-58623200D02*
X107645200Y-58623200D01*
X123206000Y-57430000D02*
X122249600Y-57430000D01*
X122249600Y-57430000D02*
X121767600Y-57912000D01*
X121767600Y-57912000D02*
X115265200Y-57912000D01*
X115265200Y-57912000D02*
X114808000Y-58369200D01*
X114808000Y-58369200D02*
X114096800Y-58369200D01*
X114096800Y-58369200D02*
X113893600Y-58166000D01*
X113893600Y-58166000D02*
X113893600Y-58166000D01*
X92202000Y-58064400D02*
X92100400Y-58064400D01*
X80822800Y-55118000D02*
X78841600Y-55118000D01*
X77343000Y-55448200D02*
X77114400Y-55676800D01*
X78384400Y-72136000D02*
X78689200Y-72440800D01*
X78384400Y-70967600D02*
X78384400Y-72136000D01*
X77063600Y-69646800D02*
X78384400Y-70967600D01*
X77063600Y-67767200D02*
X77063600Y-69646800D01*
X76301600Y-67005200D02*
X77063600Y-67767200D01*
X76301600Y-61823600D02*
X76301600Y-67005200D01*
X73964800Y-59486800D02*
X76301600Y-61823600D01*
X73964800Y-56235600D02*
X73964800Y-59486800D01*
X74523600Y-55676800D02*
X73964800Y-56235600D01*
X77114400Y-55676800D02*
X74523600Y-55676800D01*
X77419200Y-55372000D02*
X77343000Y-55448200D01*
X78587600Y-55372000D02*
X77419200Y-55372000D01*
X78841600Y-55118000D02*
X78587600Y-55372000D01*
X78689200Y-72440800D02*
X78689200Y-72440800D01*
X79946699Y-73596699D02*
X79946699Y-75596599D01*
X79349600Y-72237600D02*
X79349600Y-72999600D01*
X78689200Y-71577200D02*
X79349600Y-72237600D01*
X78790800Y-56540400D02*
X75946000Y-56540400D01*
X75946000Y-56540400D02*
X75793600Y-56692800D01*
X75336400Y-57150000D02*
X75336400Y-60299600D01*
X75336400Y-60299600D02*
X76657200Y-61620400D01*
X79349600Y-72999600D02*
X79946699Y-73596699D01*
X80010000Y-57251600D02*
X79502000Y-57251600D01*
X79502000Y-57251600D02*
X78790800Y-56540400D01*
X81143600Y-56680800D02*
X80580800Y-56680800D01*
X76657200Y-61620400D02*
X76657200Y-66903600D01*
X80580800Y-56680800D02*
X80010000Y-57251600D01*
X78689200Y-70764400D02*
X78689200Y-71577200D01*
X77470000Y-69545200D02*
X78689200Y-70764400D01*
X76657200Y-66903600D02*
X77470000Y-67716400D01*
X77470000Y-67716400D02*
X77470000Y-69545200D01*
X75793600Y-56692800D02*
X75336400Y-57150000D01*
X81143600Y-54280800D02*
X78258400Y-54280800D01*
X78258400Y-54280800D02*
X78130400Y-54152800D01*
X78130400Y-54152800D02*
X76352400Y-54152800D01*
X76352400Y-54152800D02*
X75336400Y-55168800D01*
X75336400Y-55168800D02*
X74422000Y-55168800D01*
X73660000Y-55930800D02*
X73660000Y-59690000D01*
X74422000Y-55168800D02*
X73660000Y-55930800D01*
X73660000Y-59690000D02*
X75895200Y-61925200D01*
X75895200Y-61925200D02*
X75895200Y-67157600D01*
X75895200Y-67157600D02*
X76657200Y-67919600D01*
X76657200Y-67919600D02*
X76657200Y-69799200D01*
X76657200Y-69799200D02*
X77927200Y-71069200D01*
X77927200Y-71069200D02*
X77927200Y-71983600D01*
X77927200Y-71983600D02*
X77724000Y-72186800D01*
X77724000Y-72186800D02*
X77724000Y-72186800D01*
X78258400Y-54280800D02*
X78258400Y-54636400D01*
X78258400Y-54636400D02*
X78384400Y-54762400D01*
X78384400Y-54762400D02*
X78384400Y-54762400D01*
X74676000Y-59182000D02*
X74676000Y-59182000D01*
X74676000Y-56642000D02*
X74676000Y-59182000D01*
X75234800Y-56083200D02*
X74676000Y-56642000D01*
X79044800Y-56083200D02*
X75234800Y-56083200D01*
X81143600Y-55880800D02*
X79247200Y-55880800D01*
X79247200Y-55880800D02*
X79171800Y-55956200D01*
X79171800Y-55956200D02*
X79044800Y-56083200D01*
X80746699Y-75596599D02*
X80746699Y-73837899D01*
X80746699Y-73837899D02*
X79756000Y-72847200D01*
X79756000Y-72847200D02*
X79756000Y-72136000D01*
X79756000Y-72136000D02*
X79095600Y-71475600D01*
X79095600Y-71475600D02*
X79095600Y-70612000D01*
X79095600Y-70612000D02*
X77774800Y-69291200D01*
X77774800Y-69291200D02*
X77774800Y-67462400D01*
X77774800Y-67462400D02*
X77063600Y-66751200D01*
X77063600Y-66751200D02*
X77063600Y-61518800D01*
X77063600Y-61518800D02*
X75895200Y-60350400D01*
X75895200Y-60350400D02*
X75895200Y-59232800D01*
X75895200Y-59232800D02*
X75895200Y-59232800D01*
X81143600Y-53480800D02*
X79767600Y-53480800D01*
X76567200Y-53480800D02*
X75234800Y-54813200D01*
X75234800Y-54813200D02*
X74320400Y-54813200D01*
X74320400Y-54813200D02*
X73202800Y-55930800D01*
X73202800Y-55930800D02*
X73202800Y-59740800D01*
X73202800Y-59740800D02*
X75539600Y-62077600D01*
X75539600Y-62077600D02*
X75539600Y-67310000D01*
X75539600Y-67310000D02*
X76301600Y-68072000D01*
X76301600Y-68072000D02*
X76301600Y-70916800D01*
X76301600Y-70916800D02*
X76708000Y-71323200D01*
X76708000Y-71323200D02*
X77266800Y-71323200D01*
X77266800Y-71323200D02*
X77266800Y-71323200D01*
X79767600Y-53480800D02*
X76567200Y-53480800D01*
X80241200Y-62280800D02*
X79885600Y-62636400D01*
X81143600Y-62280800D02*
X80241200Y-62280800D01*
X79885600Y-62636400D02*
X78689200Y-62636400D01*
X78689200Y-62636400D02*
X78079600Y-63246000D01*
X78079600Y-63246000D02*
X78079600Y-63246000D01*
X79603600Y-61976000D02*
X79603600Y-61976000D01*
X80098800Y-61480800D02*
X79603600Y-61976000D01*
X81143600Y-61480800D02*
X80098800Y-61480800D01*
X70043600Y-60680800D02*
X71653600Y-60680800D01*
X70043600Y-53480800D02*
X71667200Y-53480800D01*
X71667200Y-53480800D02*
X71678800Y-53492400D01*
X70043600Y-54280800D02*
X72160400Y-54280800D01*
X72160400Y-54280800D02*
X72339200Y-54102000D01*
X71221600Y-54813200D02*
X71678800Y-54813200D01*
X70043600Y-55080800D02*
X70954000Y-55080800D01*
X70954000Y-55080800D02*
X71221600Y-54813200D01*
X80860000Y-55080800D02*
X80822800Y-55118000D01*
X81143600Y-55080800D02*
X80860000Y-55080800D01*
X81143600Y-55080800D02*
X83302400Y-55080800D01*
X109998000Y-55030000D02*
X108393600Y-55030000D01*
X108393600Y-55030000D02*
X108102400Y-55321200D01*
X108102400Y-55321200D02*
X106934000Y-55321200D01*
X106934000Y-55321200D02*
X106680000Y-55067200D01*
X106680000Y-55067200D02*
X101904800Y-55067200D01*
X101904800Y-55067200D02*
X101904800Y-55067200D01*
X123206000Y-55030000D02*
X122390800Y-55030000D01*
X122390800Y-55030000D02*
X122021600Y-54660800D01*
X122021600Y-54660800D02*
X121970800Y-54660800D01*
X115773200Y-54660800D02*
X115773200Y-54660800D01*
X121970800Y-54660800D02*
X115773200Y-54660800D01*
X94402400Y-56680800D02*
X92620400Y-56680800D01*
X92620400Y-56680800D02*
X92252800Y-57048400D01*
X92252800Y-57048400D02*
X88747600Y-57048400D01*
X88747600Y-57048400D02*
X88239600Y-56540400D01*
X88239600Y-56540400D02*
X86817200Y-56540400D01*
X86817200Y-56540400D02*
X86817200Y-56540400D01*
X94402400Y-56680800D02*
X95441200Y-56680800D01*
X95441200Y-56680800D02*
X96215200Y-57454800D01*
X96215200Y-57454800D02*
X96215200Y-57759600D01*
X96215200Y-57759600D02*
X96215200Y-57759600D01*
X109998000Y-56630000D02*
X108978000Y-56630000D01*
X108978000Y-56630000D02*
X108229400Y-57378600D01*
X108204000Y-57404000D02*
X102717600Y-57404000D01*
X108229400Y-57378600D02*
X108204000Y-57404000D01*
X123206000Y-56630000D02*
X115570000Y-56642000D01*
X115570000Y-56642000D02*
X115582000Y-56630000D01*
X82046000Y-54280800D02*
X83302400Y-54280800D01*
X81143600Y-54280800D02*
X82046000Y-54280800D01*
X90830400Y-54610000D02*
X90830400Y-54610000D01*
X90474800Y-54254400D02*
X90830400Y-54610000D01*
X87020400Y-54254400D02*
X90474800Y-54254400D01*
X84204800Y-54280800D02*
X84381600Y-54457600D01*
X83302400Y-54280800D02*
X84204800Y-54280800D01*
X84381600Y-54457600D02*
X85750400Y-54457600D01*
X85750400Y-54457600D02*
X86055200Y-54762400D01*
X86512400Y-54762400D02*
X87020400Y-54254400D01*
X86055200Y-54762400D02*
X86512400Y-54762400D01*
X123206000Y-54230000D02*
X122454400Y-54230000D01*
X122454400Y-54230000D02*
X122275600Y-54051200D01*
X122275600Y-54051200D02*
X121107200Y-54051200D01*
X115062000Y-54051200D02*
X115011200Y-54051200D01*
X121107200Y-54051200D02*
X115062000Y-54051200D01*
X81143600Y-55880800D02*
X83302400Y-55880800D01*
X109998000Y-55830000D02*
X109422400Y-55830000D01*
X109422400Y-55830000D02*
X108915200Y-56337200D01*
X108915200Y-56337200D02*
X108305600Y-56337200D01*
X108305600Y-56337200D02*
X107696000Y-55727600D01*
X107696000Y-55727600D02*
X106934000Y-55727600D01*
X106934000Y-55727600D02*
X106680000Y-55981600D01*
X106680000Y-55981600D02*
X103124000Y-55981600D01*
X103124000Y-55981600D02*
X102768400Y-56337200D01*
X102768400Y-56337200D02*
X101854000Y-56337200D01*
X101854000Y-56337200D02*
X101854000Y-56337200D01*
X123206000Y-55830000D02*
X122428800Y-55830000D01*
X122428800Y-55830000D02*
X121920000Y-55321200D01*
X121920000Y-55321200D02*
X121107200Y-55321200D01*
X116382800Y-55321200D02*
X116382800Y-55321200D01*
X121107200Y-55321200D02*
X116382800Y-55321200D01*
X81143600Y-53480800D02*
X83302400Y-53480800D01*
X84204800Y-53480800D02*
X84876800Y-54152800D01*
X83302400Y-53480800D02*
X84204800Y-53480800D01*
X84876800Y-54152800D02*
X85445600Y-54152800D01*
X85445600Y-54152800D02*
X86106000Y-53492400D01*
X86106000Y-53492400D02*
X86715600Y-53492400D01*
X86715600Y-53492400D02*
X87122000Y-53898800D01*
X87122000Y-53898800D02*
X92049600Y-53898800D01*
X92049600Y-53898800D02*
X92202000Y-54051200D01*
X92202000Y-54051200D02*
X92202000Y-54051200D01*
X109998000Y-53430000D02*
X109130000Y-53430000D01*
X109130000Y-53430000D02*
X108508800Y-54051200D01*
X108508800Y-54051200D02*
X107594400Y-54051200D01*
X107594400Y-54051200D02*
X107340400Y-53797200D01*
X107340400Y-53797200D02*
X101447600Y-53797200D01*
X101447600Y-53797200D02*
X101193600Y-54051200D01*
X101193600Y-54051200D02*
X101193600Y-54051200D01*
X108508800Y-54051200D02*
X108508800Y-54051200D01*
X123206000Y-53430000D02*
X121886674Y-53424126D01*
X114401600Y-53390800D02*
X114440800Y-53430000D01*
X121886674Y-53424126D02*
X114401600Y-53390800D01*
X82346699Y-75596599D02*
X82346699Y-74574501D01*
X82346699Y-74574501D02*
X82702400Y-74218800D01*
X82702400Y-74218800D02*
X82702400Y-73710800D01*
X82702400Y-73710800D02*
X83007200Y-73406000D01*
X83007200Y-73406000D02*
X84124800Y-73406000D01*
X84785200Y-72745600D02*
X84785200Y-71170800D01*
X84124800Y-73406000D02*
X84785200Y-72745600D01*
X83392400Y-71170800D02*
X83302400Y-71080800D01*
X84785200Y-71170800D02*
X83392400Y-71170800D01*
X94364000Y-64719200D02*
X94402400Y-64680800D01*
X90881200Y-64719200D02*
X94364000Y-64719200D01*
X85216000Y-70280800D02*
X85598000Y-70662800D01*
X83302400Y-70280800D02*
X85216000Y-70280800D01*
X85598000Y-70662800D02*
X85598000Y-72491600D01*
X85598000Y-72491600D02*
X84277200Y-73812400D01*
X84277200Y-73812400D02*
X83515200Y-73812400D01*
X83146699Y-74180901D02*
X83146699Y-75596599D01*
X83515200Y-73812400D02*
X83146699Y-74180901D01*
X91440400Y-65480800D02*
X91389600Y-65531600D01*
X94402400Y-65480800D02*
X91440400Y-65480800D01*
X83946699Y-75596599D02*
X83946699Y-74346101D01*
X83946699Y-74346101D02*
X84175600Y-74117200D01*
X84175600Y-74117200D02*
X84429600Y-74117200D01*
X84429600Y-74117200D02*
X86715600Y-71831200D01*
X86715600Y-70866000D02*
X85344000Y-69494400D01*
X86715600Y-71831200D02*
X86715600Y-70866000D01*
X83316000Y-69494400D02*
X83302400Y-69480800D01*
X85344000Y-69494400D02*
X83316000Y-69494400D01*
X94351600Y-66331600D02*
X94402400Y-66280800D01*
X90792800Y-66331600D02*
X94351600Y-66331600D01*
X85749600Y-68680800D02*
X86156800Y-69088000D01*
X83302400Y-68680800D02*
X85749600Y-68680800D01*
X86156800Y-69088000D02*
X86156800Y-69646800D01*
X86156800Y-69646800D02*
X87274400Y-70764400D01*
X87274400Y-70764400D02*
X87274400Y-71780400D01*
X84746699Y-74308101D02*
X84746699Y-75596599D01*
X87274400Y-71780400D02*
X84746699Y-74308101D01*
X91364400Y-67080800D02*
X91313600Y-67131600D01*
X94402400Y-67080800D02*
X91364400Y-67080800D01*
X86346699Y-75596599D02*
X86346699Y-74486101D01*
X86346699Y-74486101D02*
X86664800Y-74168000D01*
X86664800Y-74168000D02*
X86664800Y-73558400D01*
X86664800Y-73558400D02*
X87782400Y-72440800D01*
X87782400Y-70205600D02*
X87071200Y-69494400D01*
X87782400Y-72440800D02*
X87782400Y-70205600D01*
X86817200Y-67462400D02*
X86435600Y-67080800D01*
X87071200Y-69494400D02*
X86817200Y-69240400D01*
X86435600Y-67080800D02*
X83302400Y-67080800D01*
X86817200Y-69240400D02*
X86817200Y-67462400D01*
X94350800Y-68732400D02*
X94402400Y-68680800D01*
X91389200Y-68732400D02*
X94350800Y-68732400D01*
X87426800Y-67157600D02*
X87426800Y-67513200D01*
X87122000Y-66852800D02*
X87426800Y-67157600D01*
X86664800Y-66852800D02*
X87122000Y-66852800D01*
X83302400Y-66280800D02*
X86092800Y-66280800D01*
X86092800Y-66280800D02*
X86664800Y-66852800D01*
X87426800Y-67513200D02*
X87426800Y-68834000D01*
X87426800Y-68834000D02*
X88493600Y-69900800D01*
X88493600Y-69900800D02*
X88493600Y-72948800D01*
X87146699Y-74294199D02*
X87146699Y-75596599D01*
X88492098Y-72948800D02*
X87146699Y-74294199D01*
X88493600Y-72948800D02*
X88492098Y-72948800D01*
X90894800Y-69480800D02*
X90844000Y-69531600D01*
X94402400Y-69480800D02*
X90894800Y-69480800D01*
X88087200Y-68529200D02*
X88087200Y-68275200D01*
X89052400Y-69494400D02*
X88087200Y-68529200D01*
X89052400Y-73188498D02*
X89052400Y-69494400D01*
X87946699Y-75596599D02*
X87946699Y-74294199D01*
X87946699Y-74294199D02*
X89052400Y-73188498D01*
X88087200Y-68275200D02*
X88087200Y-66852800D01*
X88087200Y-66852800D02*
X87680800Y-66446400D01*
X87680800Y-66446400D02*
X86817200Y-66446400D01*
X85851600Y-65480800D02*
X83302400Y-65480800D01*
X86817200Y-66446400D02*
X85851600Y-65480800D01*
X94351600Y-70331600D02*
X94402400Y-70280800D01*
X91364800Y-70331600D02*
X94351600Y-70331600D01*
X83302400Y-64680800D02*
X85762800Y-64680800D01*
X85762800Y-64680800D02*
X87223600Y-66141600D01*
X87223600Y-66141600D02*
X88290400Y-66141600D01*
X88747600Y-66598800D02*
X88747600Y-67564000D01*
X88290400Y-66141600D02*
X88747600Y-66598800D01*
X88747600Y-67988264D02*
X89644136Y-68884800D01*
X88747600Y-67564000D02*
X88747600Y-67988264D01*
X89644136Y-68884800D02*
X89644136Y-73169864D01*
X88746699Y-74067301D02*
X88746699Y-75596599D01*
X89644136Y-73169864D02*
X88746699Y-74067301D01*
X90869600Y-71080800D02*
X90818800Y-71131600D01*
X94402400Y-71080800D02*
X90869600Y-71080800D01*
X92608400Y-62280800D02*
X91236800Y-63652400D01*
X94402400Y-62280800D02*
X92608400Y-62280800D01*
X94402400Y-62280800D02*
X95351600Y-62280800D01*
X95351600Y-62280800D02*
X95656400Y-62585600D01*
X95656400Y-62585600D02*
X97028000Y-62585600D01*
X97028000Y-62585600D02*
X97028000Y-62585600D01*
X98146699Y-75596599D02*
X98146699Y-73608101D01*
X98146699Y-73608101D02*
X98399600Y-73355200D01*
X98399600Y-73355200D02*
X99618800Y-73355200D01*
X99618800Y-73355200D02*
X101193600Y-71780400D01*
X101193600Y-71780400D02*
X101193600Y-64363600D01*
X101193600Y-64363600D02*
X100888800Y-64058800D01*
X100888800Y-64058800D02*
X100888800Y-64058800D01*
X109998000Y-62230000D02*
X108051600Y-62230000D01*
X108051600Y-62230000D02*
X107137200Y-63144400D01*
X107137200Y-63144400D02*
X107137200Y-63144400D01*
X123206000Y-62230000D02*
X122428000Y-62230000D01*
X122428000Y-62230000D02*
X122224800Y-62433200D01*
X122224800Y-62433200D02*
X122224800Y-62839600D01*
X122224800Y-62839600D02*
X121869200Y-63195200D01*
X121869200Y-63195200D02*
X116179600Y-63195200D01*
X116179600Y-63195200D02*
X116179600Y-63195200D01*
X94402400Y-61480800D02*
X91782800Y-61480800D01*
X91782800Y-61480800D02*
X91287600Y-61976000D01*
X91287600Y-61976000D02*
X91287600Y-61976000D01*
X94402400Y-61480800D02*
X95618400Y-61480800D01*
X95618400Y-61480800D02*
X96113600Y-61976000D01*
X96113600Y-61976000D02*
X96113600Y-61976000D01*
X98946699Y-75596599D02*
X98946699Y-73925701D01*
X98946699Y-73925701D02*
X99161600Y-73710800D01*
X99161600Y-73710800D02*
X99720400Y-73710800D01*
X99720400Y-73710800D02*
X101549200Y-71882000D01*
X101549200Y-71882000D02*
X101549200Y-63703200D01*
X101549200Y-63703200D02*
X102057200Y-63195200D01*
X102057200Y-63195200D02*
X102057200Y-63195200D01*
X109998000Y-61430000D02*
X107988000Y-61430000D01*
X107988000Y-61430000D02*
X105613200Y-63804800D01*
X105613200Y-63804800D02*
X105613200Y-63804800D01*
X123206000Y-61430000D02*
X122593200Y-61430000D01*
X122593200Y-61430000D02*
X122428000Y-61264800D01*
X122428000Y-61264800D02*
X115163600Y-61264800D01*
X115163600Y-61264800D02*
X115163600Y-61264800D01*
X99746699Y-75596599D02*
X99746699Y-74192501D01*
X99746699Y-74192501D02*
X101955600Y-71983600D01*
X101955600Y-71983600D02*
X101955600Y-64262000D01*
X101955600Y-64262000D02*
X103022400Y-63195200D01*
X103022400Y-63195200D02*
X103581200Y-63195200D01*
X103581200Y-63195200D02*
X104089200Y-62687200D01*
X104089200Y-62687200D02*
X104089200Y-62026800D01*
X104089200Y-62026800D02*
X103378000Y-61315600D01*
X103378000Y-61315600D02*
X103378000Y-61315600D01*
X98898000Y-60630000D02*
X97383600Y-60604400D01*
X97383600Y-60604400D02*
X97409200Y-60630000D01*
X100787200Y-75356098D02*
X100546699Y-75596599D01*
X100787200Y-73660000D02*
X100787200Y-75356098D01*
X103225600Y-63550800D02*
X102311200Y-64465200D01*
X104495600Y-62788800D02*
X103733600Y-63550800D01*
X102311200Y-64465200D02*
X102311200Y-72136000D01*
X103759200Y-60630000D02*
X104495600Y-61366400D01*
X103733600Y-63550800D02*
X103225600Y-63550800D01*
X102311200Y-72136000D02*
X100787200Y-73660000D01*
X98898000Y-60630000D02*
X101676000Y-60630000D01*
X104495600Y-61366400D02*
X104495600Y-62788800D01*
X101676000Y-60630000D02*
X103759200Y-60630000D01*
X112106000Y-60630000D02*
X113610118Y-60633882D01*
X121869200Y-60655200D02*
X121844000Y-60630000D01*
X113610118Y-60633882D02*
X121869200Y-60655200D01*
X98898000Y-71030000D02*
X99986000Y-71030000D01*
X99986000Y-71030000D02*
X100076000Y-71120000D01*
X100076000Y-71120000D02*
X100076000Y-71120000D01*
X104546699Y-75596599D02*
X104546699Y-74472501D01*
X104546699Y-74472501D02*
X104952800Y-74066400D01*
X104952800Y-74066400D02*
X104952800Y-71983600D01*
X104952800Y-71983600D02*
X104140000Y-71170800D01*
X104140000Y-71170800D02*
X102971600Y-71170800D01*
X102971600Y-71170800D02*
X102971600Y-71170800D01*
X109998000Y-71030000D02*
X109208400Y-71030000D01*
X109208400Y-71030000D02*
X108864400Y-71374000D01*
X108864400Y-71374000D02*
X108762800Y-71475600D01*
X108762800Y-71475600D02*
X108712000Y-71526400D01*
X98898000Y-70230000D02*
X100456000Y-70230000D01*
X100456000Y-70230000D02*
X100584000Y-70358000D01*
X100584000Y-70358000D02*
X100584000Y-70358000D01*
X105346699Y-75596599D02*
X105346699Y-71412299D01*
X105346699Y-71412299D02*
X104343200Y-70408800D01*
X104343200Y-70408800D02*
X103479600Y-70408800D01*
X103479600Y-70408800D02*
X103479600Y-70408800D01*
X109998000Y-70230000D02*
X109144800Y-70230000D01*
X109144800Y-70230000D02*
X108864400Y-70510400D01*
X108864400Y-70510400D02*
X108407200Y-70510400D01*
X98898000Y-69430000D02*
X100113200Y-69430000D01*
X100113200Y-69430000D02*
X100177600Y-69494400D01*
X100177600Y-69494400D02*
X100177600Y-69494400D01*
X106146699Y-75596599D02*
X106146699Y-74193499D01*
X106146699Y-74193499D02*
X105765600Y-73812400D01*
X105765600Y-73812400D02*
X105765600Y-71069200D01*
X105765600Y-71069200D02*
X104343200Y-69646800D01*
X104343200Y-69646800D02*
X103022400Y-69646800D01*
X103022400Y-69646800D02*
X103022400Y-69646800D01*
X109998000Y-69430000D02*
X109132000Y-69430000D01*
X109132000Y-69430000D02*
X108813600Y-69748400D01*
X108813600Y-69748400D02*
X108813600Y-69748400D01*
X98898000Y-68630000D02*
X100430800Y-68630000D01*
X100430800Y-68630000D02*
X100533200Y-68732400D01*
X100533200Y-68732400D02*
X100533200Y-68732400D01*
X106946699Y-75596599D02*
X106946699Y-74282299D01*
X106946699Y-74282299D02*
X106070400Y-73406000D01*
X106070400Y-73406000D02*
X106070400Y-70764400D01*
X106070400Y-70764400D02*
X104038400Y-68732400D01*
X104038400Y-68732400D02*
X103530400Y-68732400D01*
X103530400Y-68732400D02*
X103530400Y-68732400D01*
X109998000Y-68630000D02*
X108865200Y-68630000D01*
X108865200Y-68630000D02*
X108508800Y-68986400D01*
X108508800Y-68986400D02*
X107696000Y-68986400D01*
X107696000Y-68986400D02*
X107594400Y-69138800D01*
X107594400Y-69138800D02*
X107594400Y-69088000D01*
X98898000Y-67030000D02*
X100584000Y-67005200D01*
X100584000Y-67005200D02*
X100559200Y-67030000D01*
X108546699Y-75596599D02*
X108546699Y-73901099D01*
X108546699Y-73901099D02*
X106629200Y-71983600D01*
X106629200Y-71983600D02*
X106629200Y-70866000D01*
X106629200Y-70866000D02*
X105359200Y-69596000D01*
X105359200Y-69596000D02*
X105359200Y-67564000D01*
X105359200Y-67564000D02*
X104851200Y-67056000D01*
X104851200Y-67056000D02*
X102920800Y-67056000D01*
X102920800Y-67056000D02*
X102920800Y-67056000D01*
X109998000Y-67030000D02*
X107086400Y-67005200D01*
X107086400Y-67005200D02*
X107111200Y-67030000D01*
X98898000Y-66230000D02*
X100126800Y-66243200D01*
X100126800Y-66243200D02*
X100113600Y-66230000D01*
X103479600Y-66294000D02*
X103479600Y-66294000D01*
X109346699Y-74218499D02*
X107035600Y-71907400D01*
X109346699Y-75596599D02*
X109346699Y-74218499D01*
X105664000Y-66802000D02*
X105156000Y-66294000D01*
X107035600Y-71907400D02*
X107035600Y-70815200D01*
X105156000Y-66294000D02*
X103479600Y-66294000D01*
X107035600Y-70815200D02*
X105664000Y-69443600D01*
X105664000Y-69443600D02*
X105664000Y-66802000D01*
X109998000Y-66230000D02*
X109944400Y-66230000D01*
X109944400Y-66230000D02*
X109880400Y-66294000D01*
X109880400Y-66294000D02*
X107594400Y-66294000D01*
X100533200Y-65481200D02*
X100482000Y-65430000D01*
X100533200Y-65532000D02*
X100533200Y-65481200D01*
X100431200Y-65430000D02*
X100533200Y-65532000D01*
X98898000Y-65430000D02*
X100431200Y-65430000D01*
X102971600Y-65532000D02*
X102971600Y-65532000D01*
X105460800Y-65532000D02*
X102971600Y-65532000D01*
X110146699Y-74078699D02*
X109778800Y-73710800D01*
X106070400Y-66141600D02*
X105460800Y-65532000D01*
X107391200Y-70612000D02*
X106070400Y-69291200D01*
X110146699Y-75596599D02*
X110146699Y-74078699D01*
X109778800Y-73710800D02*
X109270800Y-73710800D01*
X109270800Y-73710800D02*
X107391200Y-71831200D01*
X106070400Y-69291200D02*
X106070400Y-66141600D01*
X107391200Y-71831200D02*
X107391200Y-70612000D01*
X109998000Y-65430000D02*
X107086800Y-65430000D01*
X98898000Y-64630000D02*
X100088400Y-64630000D01*
X100088400Y-64630000D02*
X100177600Y-64719200D01*
X100177600Y-64719200D02*
X100177600Y-64719200D01*
X103479600Y-64770000D02*
X103479600Y-64770000D01*
X105816400Y-64770000D02*
X103479600Y-64770000D01*
X106476800Y-65430400D02*
X105816400Y-64770000D01*
X107746800Y-70459600D02*
X106476800Y-69189600D01*
X110946699Y-73862699D02*
X110388400Y-73304400D01*
X110946699Y-75596599D02*
X110946699Y-73862699D01*
X110388400Y-73304400D02*
X109423200Y-73304400D01*
X106476800Y-69189600D02*
X106476800Y-65430400D01*
X109423200Y-73304400D02*
X107746800Y-71628000D01*
X107746800Y-71628000D02*
X107746800Y-70459600D01*
X109998000Y-64630000D02*
X107594400Y-64617600D01*
X107594400Y-64617600D02*
X107606800Y-64630000D01*
X98898000Y-53430000D02*
X100228400Y-53441600D01*
X100228400Y-53441600D02*
X100216800Y-53430000D01*
X112546699Y-75596599D02*
X112546699Y-73635301D01*
X112546699Y-73635301D02*
X113538000Y-72644000D01*
X113538000Y-72644000D02*
X113538000Y-71882000D01*
X113538000Y-71882000D02*
X113538000Y-71882000D01*
X98898000Y-54230000D02*
X100153200Y-54230000D01*
X100153200Y-54230000D02*
X100228400Y-54305200D01*
X100228400Y-54305200D02*
X100228400Y-54305200D01*
X112106000Y-54230000D02*
X113412000Y-54230000D01*
X113412000Y-54230000D02*
X113588800Y-54406800D01*
X113588800Y-54406800D02*
X113588800Y-54406800D01*
X93500000Y-55080800D02*
X93486400Y-55067200D01*
X94402400Y-55080800D02*
X93500000Y-55080800D01*
X93486400Y-55067200D02*
X93116400Y-55067200D01*
X93116400Y-55067200D02*
X92202000Y-55981600D01*
X92202000Y-55981600D02*
X91795600Y-55981600D01*
X91287600Y-55981600D02*
X89966800Y-54660800D01*
X89865200Y-54559200D02*
X87274400Y-54559200D01*
X89966800Y-54660800D02*
X89865200Y-54559200D01*
X87274400Y-54559200D02*
X86715600Y-55118000D01*
X86715600Y-55118000D02*
X85547200Y-55118000D01*
X85547200Y-55118000D02*
X85547200Y-55118000D01*
X91795600Y-55981600D02*
X91287600Y-55981600D01*
X98898000Y-55030000D02*
X98284400Y-55030000D01*
X98284400Y-55030000D02*
X96926400Y-56388000D01*
X96926400Y-56388000D02*
X96520000Y-56388000D01*
X95212800Y-55080800D02*
X94402400Y-55080800D01*
X96520000Y-56388000D02*
X95212800Y-55080800D01*
X98898000Y-55030000D02*
X100953200Y-55030000D01*
X100953200Y-55030000D02*
X101650800Y-55727600D01*
X101650800Y-55727600D02*
X102565200Y-55727600D01*
X102565200Y-55727600D02*
X102565200Y-55727600D01*
X112106000Y-55030000D02*
X114134000Y-55030000D01*
X114134000Y-55030000D02*
X114452400Y-54711600D01*
X114452400Y-54711600D02*
X114452400Y-54711600D01*
X109998000Y-55030000D02*
X112106000Y-55030000D01*
X112106000Y-54230000D02*
X109998000Y-54230000D01*
X70043600Y-55880800D02*
X71017600Y-55880800D01*
X71475600Y-55422800D02*
X72339200Y-55422800D01*
X71017600Y-55880800D02*
X71475600Y-55422800D01*
X94402400Y-55880800D02*
X92912400Y-55880800D01*
X92912400Y-55880800D02*
X92100400Y-56692800D01*
X92100400Y-56692800D02*
X91440000Y-56692800D01*
X91440000Y-56692800D02*
X91135200Y-56388000D01*
X91135200Y-56388000D02*
X89204800Y-56388000D01*
X89204800Y-56388000D02*
X88087200Y-55270400D01*
X88087200Y-55270400D02*
X87477600Y-55270400D01*
X87477600Y-55270400D02*
X87477600Y-55270400D01*
X94402400Y-55880800D02*
X95301600Y-55880800D01*
X95301600Y-55880800D02*
X96215200Y-56794400D01*
X96215200Y-56794400D02*
X97078800Y-56794400D01*
X98043200Y-55830000D02*
X98898000Y-55830000D01*
X97078800Y-56794400D02*
X98043200Y-55830000D01*
X112106000Y-55830000D02*
X113486400Y-55830000D01*
X113486400Y-55830000D02*
X113588800Y-55727600D01*
X113588800Y-55727600D02*
X113588800Y-55727600D01*
X112106000Y-55830000D02*
X109998000Y-55830000D01*
X109998000Y-53430000D02*
X112106000Y-53430000D01*
X83378400Y-60756800D02*
X83302400Y-60680800D01*
X85039200Y-60756800D02*
X83378400Y-60756800D01*
X93260522Y-53480800D02*
X93208061Y-53533261D01*
X94402400Y-53480800D02*
X93260522Y-53480800D01*
X94251700Y-54431500D02*
X94402400Y-54280800D01*
X93191900Y-54431500D02*
X94251700Y-54431500D01*
X113385600Y-75557698D02*
X113346699Y-75596599D01*
X113385600Y-73761600D02*
X113385600Y-75557698D01*
X115620800Y-71780400D02*
X115214400Y-71780400D01*
X115214400Y-71780400D02*
X114757200Y-72237600D01*
X114757200Y-72237600D02*
X114757200Y-72999600D01*
X114757200Y-72999600D02*
X115214400Y-73456800D01*
X115214400Y-73456800D02*
X115214400Y-74117200D01*
X114946699Y-74384901D02*
X114946699Y-75596599D01*
X115214400Y-74117200D02*
X114946699Y-74384901D01*
X70946000Y-58280800D02*
X71272400Y-58607200D01*
X70043600Y-58280800D02*
X70946000Y-58280800D01*
X71272400Y-58607200D02*
X71662800Y-58607200D01*
X71662800Y-58607200D02*
X71662800Y-58607200D01*
X85953600Y-59080400D02*
X85953600Y-59080400D01*
X84785200Y-59080400D02*
X85953600Y-59080400D01*
X83302400Y-58280800D02*
X83985600Y-58280800D01*
X83985600Y-58280800D02*
X84785200Y-59080400D01*
X98898000Y-58230000D02*
X100038400Y-58230000D01*
X100038400Y-58230000D02*
X100634800Y-58826400D01*
X100634800Y-58826400D02*
X100634800Y-58826400D01*
X112106000Y-58230000D02*
X112840000Y-58230000D01*
X112840000Y-58230000D02*
X113385600Y-58775600D01*
X113385600Y-58775600D02*
X115366800Y-58775600D01*
X115366800Y-58775600D02*
X115544600Y-58597800D01*
X115570000Y-58572400D02*
X121920000Y-58572400D01*
X121920000Y-58572400D02*
X121920000Y-58572400D01*
X115544600Y-58597800D02*
X115570000Y-58572400D01*
X70043600Y-56680800D02*
X71030400Y-56680800D01*
X71030400Y-56680800D02*
X71628000Y-56083200D01*
X97129600Y-57810400D02*
X97129600Y-57505600D01*
X98005200Y-56630000D02*
X98898000Y-56630000D01*
X97129600Y-57505600D02*
X98005200Y-56630000D01*
X98898000Y-56630000D02*
X101181600Y-56630000D01*
X101181600Y-56630000D02*
X101549200Y-56997600D01*
X101549200Y-56997600D02*
X102158800Y-56997600D01*
X102158800Y-56997600D02*
X102412800Y-56743600D01*
X102412800Y-56743600D02*
X103327200Y-56743600D01*
X103327200Y-56743600D02*
X103327200Y-56743600D01*
X113008400Y-56630000D02*
X113122000Y-56743600D01*
X112106000Y-56630000D02*
X113008400Y-56630000D01*
X113122000Y-56743600D02*
X114401600Y-56743600D01*
X114401600Y-56743600D02*
X114757200Y-56388000D01*
X115214400Y-55930800D02*
X121615200Y-55930800D01*
X121615200Y-55930800D02*
X121615200Y-55930800D01*
X114757200Y-56388000D02*
X115214400Y-55930800D01*
X85344000Y-55930800D02*
X85953600Y-56540400D01*
X84844600Y-55930800D02*
X85344000Y-55930800D01*
X83302400Y-56680800D02*
X84094600Y-56680800D01*
X84094600Y-56680800D02*
X84844600Y-55930800D01*
X115468400Y-72745600D02*
X115468400Y-72999600D01*
X115746699Y-73277899D02*
X115746699Y-75596599D01*
X115468400Y-72999600D02*
X115746699Y-73277899D01*
X70043600Y-57480800D02*
X71449600Y-57480800D01*
X71449600Y-57480800D02*
X71628000Y-57302400D01*
X83302400Y-57480800D02*
X85674800Y-57480800D01*
X85674800Y-57480800D02*
X85953600Y-57759600D01*
X85953600Y-57759600D02*
X85953600Y-57759600D01*
X98898000Y-57430000D02*
X100710400Y-57430000D01*
X101626000Y-57430000D02*
X102260400Y-58064400D01*
X102260400Y-58064400D02*
X103327200Y-58064400D01*
X103327200Y-58064400D02*
X103327200Y-58064400D01*
X100710400Y-57430000D02*
X101626000Y-57430000D01*
X112106000Y-57430000D02*
X114275200Y-57430000D01*
X114275200Y-57430000D02*
X114554000Y-57708800D01*
X114554000Y-57708800D02*
X114554000Y-57658000D01*
X114554000Y-57658000D02*
X114858800Y-57353200D01*
X114858800Y-57353200D02*
X121056400Y-57353200D01*
X121056400Y-57353200D02*
X121056400Y-57353200D01*
X114554000Y-57708800D02*
X114554000Y-57708800D01*
X98898000Y-61430000D02*
X102222400Y-61430000D01*
X102222400Y-61430000D02*
X103378000Y-62585600D01*
X103378000Y-62585600D02*
X103378000Y-62585600D01*
X117346699Y-75596599D02*
X117346699Y-74270901D01*
X117346699Y-74270901D02*
X117500400Y-74117200D01*
X117500400Y-74117200D02*
X117500400Y-73406000D01*
X117500400Y-73406000D02*
X117195600Y-73101200D01*
X117195600Y-73101200D02*
X117195600Y-73101200D01*
X120294400Y-59385200D02*
X116484400Y-59385200D01*
X116484400Y-59385200D02*
X116484400Y-59385200D01*
X98898000Y-62230000D02*
X99822000Y-62230000D01*
X99822000Y-62230000D02*
X100076000Y-61976000D01*
X100076000Y-61976000D02*
X101701600Y-61976000D01*
X101701600Y-61976000D02*
X101701600Y-61976000D01*
X121005600Y-60045600D02*
X114452400Y-60045600D01*
X114452400Y-60045600D02*
X114452400Y-60045600D01*
X112106000Y-61430000D02*
X113449200Y-61430000D01*
X113449200Y-61430000D02*
X113893600Y-61874400D01*
X113893600Y-61874400D02*
X115773200Y-61874400D01*
X115773200Y-61874400D02*
X115773200Y-61874400D01*
X121412000Y-62585600D02*
X121513600Y-62687200D01*
X116789200Y-62585600D02*
X121412000Y-62585600D01*
X118872000Y-73152000D02*
X118872000Y-73710800D01*
X118146699Y-74436101D02*
X118146699Y-75596599D01*
X118872000Y-73710800D02*
X118146699Y-74436101D01*
X112106000Y-62230000D02*
X112877600Y-62230000D01*
X112877600Y-62230000D02*
X112979200Y-62331600D01*
X112979200Y-62331600D02*
X115316000Y-62331600D01*
X115316000Y-62331600D02*
X115519200Y-62534800D01*
X115519200Y-62534800D02*
X116027200Y-62534800D01*
X116027200Y-62534800D02*
X116636800Y-61925200D01*
X116636800Y-61925200D02*
X120954800Y-61925200D01*
X120954800Y-61925200D02*
X120954800Y-61925200D01*
X112106000Y-71030000D02*
X113424800Y-71030000D01*
X117613600Y-71030000D02*
X120091200Y-73507600D01*
X120091200Y-73507600D02*
X120091200Y-74066400D01*
X119746699Y-74410901D02*
X119746699Y-75596599D01*
X120091200Y-74066400D02*
X119746699Y-74410901D01*
X113424800Y-71030000D02*
X117613600Y-71030000D01*
X122162400Y-71030000D02*
X122162400Y-71030000D01*
X120700800Y-75442498D02*
X120546699Y-75596599D01*
X120700800Y-73609200D02*
X120700800Y-75442498D01*
X112106000Y-70230000D02*
X114021600Y-70230000D01*
X117321600Y-70230000D02*
X120700800Y-73609200D01*
X114021600Y-70230000D02*
X117321600Y-70230000D01*
X123206000Y-70230000D02*
X121946400Y-70230000D01*
X121946400Y-70230000D02*
X121818400Y-70358000D01*
X121818400Y-70358000D02*
X121818400Y-70358000D01*
X112106000Y-69430000D02*
X113450000Y-69430000D01*
X121346699Y-73747099D02*
X121346699Y-75596599D01*
X117029600Y-69430000D02*
X121346699Y-73747099D01*
X113450000Y-69430000D02*
X117029600Y-69430000D01*
X123206000Y-69430000D02*
X122072400Y-69443600D01*
X122072400Y-69443600D02*
X122086000Y-69430000D01*
X112106000Y-68630000D02*
X112114800Y-68630000D01*
X112114800Y-68630000D02*
X112369600Y-68884800D01*
X112369600Y-68884800D02*
X114046000Y-68884800D01*
X122146699Y-74039099D02*
X122146699Y-75596599D01*
X116992400Y-68884800D02*
X122146699Y-74039099D01*
X114046000Y-68884800D02*
X116992400Y-68884800D01*
X123206000Y-68630000D02*
X121462800Y-68681600D01*
X121462800Y-68681600D02*
X121514400Y-68630000D01*
X112106000Y-67030000D02*
X114732400Y-67030000D01*
X117525200Y-67030000D02*
X118211600Y-67716400D01*
X118211600Y-67716400D02*
X118211600Y-69596000D01*
X118211600Y-69596000D02*
X121767600Y-73152000D01*
X121767600Y-73152000D02*
X123647200Y-73152000D01*
X123647200Y-73152000D02*
X124002800Y-73507600D01*
X124002800Y-73507600D02*
X124002800Y-74117200D01*
X123746699Y-74373301D02*
X123746699Y-75596599D01*
X124002800Y-74117200D02*
X123746699Y-74373301D01*
X114732400Y-67030000D02*
X117525200Y-67030000D01*
X123206000Y-67030000D02*
X121640000Y-67030000D01*
X121640000Y-67030000D02*
X121564400Y-66954400D01*
X121564400Y-66954400D02*
X121564400Y-66954400D01*
X112106000Y-66230000D02*
X113703600Y-66230000D01*
X117639600Y-66230000D02*
X118567200Y-67157600D01*
X118567200Y-67157600D02*
X118567200Y-69494400D01*
X118567200Y-69494400D02*
X121818400Y-72745600D01*
X121818400Y-72745600D02*
X123698000Y-72745600D01*
X123698000Y-72745600D02*
X124409200Y-73456800D01*
X124409200Y-73456800D02*
X124409200Y-74269600D01*
X124546699Y-74407099D02*
X124546699Y-75596599D01*
X124409200Y-74269600D02*
X124546699Y-74407099D01*
X113703600Y-66230000D02*
X117639600Y-66230000D01*
X123206000Y-66230000D02*
X122072400Y-66192400D01*
X122072400Y-66192400D02*
X122110000Y-66230000D01*
X112106000Y-65430000D02*
X114249600Y-65430000D01*
X117703200Y-65430000D02*
X118922800Y-66649600D01*
X118922800Y-66649600D02*
X118922800Y-69342000D01*
X118922800Y-69342000D02*
X121970800Y-72390000D01*
X121970800Y-72390000D02*
X123952000Y-72390000D01*
X123952000Y-72390000D02*
X124764800Y-73202800D01*
X124764800Y-73202800D02*
X124764800Y-73609200D01*
X125346699Y-74191099D02*
X125346699Y-75596599D01*
X124764800Y-73609200D02*
X125346699Y-74191099D01*
X114249600Y-65430000D02*
X117703200Y-65430000D01*
X123206000Y-65430000D02*
X121666400Y-65430000D01*
X121666400Y-65430000D02*
X121615200Y-65481200D01*
X121615200Y-65481200D02*
X121615200Y-65481200D01*
X112106000Y-64630000D02*
X113499600Y-64630000D01*
X113499600Y-64630000D02*
X113588800Y-64719200D01*
X113588800Y-64719200D02*
X113588800Y-64719200D01*
X122162400Y-71030000D02*
X123206000Y-71030000D01*
X126146699Y-75596599D02*
X126146699Y-73924299D01*
X126146699Y-73924299D02*
X125984000Y-73761600D01*
X125984000Y-73761600D02*
X125984000Y-73761600D01*
X123206000Y-64630000D02*
X122174000Y-64668400D01*
X122174000Y-64668400D02*
X122212400Y-64630000D01*
X127746699Y-75596599D02*
X127746699Y-74437301D01*
X127746699Y-74437301D02*
X128016000Y-74168000D01*
X128016000Y-74168000D02*
X128016000Y-73304400D01*
X128016000Y-73304400D02*
X128574800Y-72745600D01*
X128574800Y-72745600D02*
X128574800Y-69900800D01*
X128574800Y-69900800D02*
X128879600Y-69596000D01*
X128879600Y-69596000D02*
X129590800Y-69596000D01*
X129590800Y-69596000D02*
X130302000Y-68884800D01*
X130302000Y-68884800D02*
X130302000Y-66649600D01*
X129362200Y-65709800D02*
X129362200Y-62650600D01*
X130302000Y-66649600D02*
X129362200Y-65709800D01*
X128092200Y-62650600D02*
X128270000Y-63957200D01*
X128270000Y-63957200D02*
X128092200Y-63779400D01*
M02*
