G04 #@! TF.GenerationSoftware,KiCad,Pcbnew,5.1.5*
G04 #@! TF.CreationDate,2020-05-24T12:25:34+08:00*
G04 #@! TF.ProjectId,EDO RAM Stick Recreated,45444f20-5241-44d2-9053-7469636b2052,01*
G04 #@! TF.SameCoordinates,Original*
G04 #@! TF.FileFunction,Legend,Bot*
G04 #@! TF.FilePolarity,Positive*
%FSLAX46Y46*%
G04 Gerber Fmt 4.6, Leading zero omitted, Abs format (unit mm)*
G04 Created by KiCad (PCBNEW 5.1.5) date 2020-05-24 12:25:34*
%MOMM*%
%LPD*%
G04 APERTURE LIST*
%ADD10C,0.120000*%
%ADD11C,0.150000*%
G04 APERTURE END LIST*
D10*
X113502000Y-71831600D02*
X114802000Y-73131600D01*
X114802000Y-73131600D02*
X120802000Y-73131600D01*
X122102000Y-71831600D02*
X122102000Y-52081600D01*
X122102000Y-52081600D02*
X113502000Y-52081600D01*
X113502000Y-52081600D02*
X113502000Y-71831600D01*
X120802000Y-73131600D02*
X122102000Y-71831600D01*
X100141600Y-71831600D02*
X101441600Y-73131600D01*
X101441600Y-73131600D02*
X107441600Y-73131600D01*
X108741600Y-71831600D02*
X108741600Y-52081600D01*
X108741600Y-52081600D02*
X100141600Y-52081600D01*
X100141600Y-52081600D02*
X100141600Y-71831600D01*
X107441600Y-73131600D02*
X108741600Y-71831600D01*
X84698400Y-71831600D02*
X85998400Y-73131600D01*
X85998400Y-73131600D02*
X91998400Y-73131600D01*
X93298400Y-71831600D02*
X93298400Y-52081600D01*
X93298400Y-52081600D02*
X84698400Y-52081600D01*
X84698400Y-52081600D02*
X84698400Y-71831600D01*
X91998400Y-73131600D02*
X93298400Y-71831600D01*
X71338000Y-71831600D02*
X72638000Y-73131600D01*
X72638000Y-73131600D02*
X78638000Y-73131600D01*
X79938000Y-71831600D02*
X79938000Y-52081600D01*
X79938000Y-52081600D02*
X71338000Y-52081600D01*
X71338000Y-52081600D02*
X71338000Y-71831600D01*
X78638000Y-73131600D02*
X79938000Y-71831600D01*
X68429600Y-68307133D02*
X68429600Y-68649667D01*
X67409600Y-68307133D02*
X67409600Y-68649667D01*
X67257200Y-54019267D02*
X67257200Y-53676733D01*
X68277200Y-54019267D02*
X68277200Y-53676733D01*
X97233200Y-70135933D02*
X97233200Y-70478467D01*
X96213200Y-70135933D02*
X96213200Y-70478467D01*
X96162400Y-54019267D02*
X96162400Y-53676733D01*
X97182400Y-54019267D02*
X97182400Y-53676733D01*
X125169200Y-68536667D02*
X125169200Y-68194133D01*
X126189200Y-68536667D02*
X126189200Y-68194133D01*
X125118400Y-54007867D02*
X125118400Y-53665333D01*
X126138400Y-54007867D02*
X126138400Y-53665333D01*
D11*
X124113904Y-72583980D02*
X124113904Y-73393504D01*
X124066285Y-73488742D01*
X124018666Y-73536361D01*
X123923428Y-73583980D01*
X123732952Y-73583980D01*
X123637714Y-73536361D01*
X123590095Y-73488742D01*
X123542476Y-73393504D01*
X123542476Y-72583980D01*
X122923428Y-73012552D02*
X123018666Y-72964933D01*
X123066285Y-72917314D01*
X123113904Y-72822076D01*
X123113904Y-72774457D01*
X123066285Y-72679219D01*
X123018666Y-72631600D01*
X122923428Y-72583980D01*
X122732952Y-72583980D01*
X122637714Y-72631600D01*
X122590095Y-72679219D01*
X122542476Y-72774457D01*
X122542476Y-72822076D01*
X122590095Y-72917314D01*
X122637714Y-72964933D01*
X122732952Y-73012552D01*
X122923428Y-73012552D01*
X123018666Y-73060171D01*
X123066285Y-73107790D01*
X123113904Y-73203028D01*
X123113904Y-73393504D01*
X123066285Y-73488742D01*
X123018666Y-73536361D01*
X122923428Y-73583980D01*
X122732952Y-73583980D01*
X122637714Y-73536361D01*
X122590095Y-73488742D01*
X122542476Y-73393504D01*
X122542476Y-73203028D01*
X122590095Y-73107790D01*
X122637714Y-73060171D01*
X122732952Y-73012552D01*
X110753504Y-72583980D02*
X110753504Y-73393504D01*
X110705885Y-73488742D01*
X110658266Y-73536361D01*
X110563028Y-73583980D01*
X110372552Y-73583980D01*
X110277314Y-73536361D01*
X110229695Y-73488742D01*
X110182076Y-73393504D01*
X110182076Y-72583980D01*
X109801123Y-72583980D02*
X109134457Y-72583980D01*
X109563028Y-73583980D01*
X84353304Y-72604380D02*
X84353304Y-73413904D01*
X84305685Y-73509142D01*
X84258066Y-73556761D01*
X84162828Y-73604380D01*
X83972352Y-73604380D01*
X83877114Y-73556761D01*
X83829495Y-73509142D01*
X83781876Y-73413904D01*
X83781876Y-72604380D01*
X82877114Y-72604380D02*
X83067590Y-72604380D01*
X83162828Y-72652000D01*
X83210447Y-72699619D01*
X83305685Y-72842476D01*
X83353304Y-73032952D01*
X83353304Y-73413904D01*
X83305685Y-73509142D01*
X83258066Y-73556761D01*
X83162828Y-73604380D01*
X82972352Y-73604380D01*
X82877114Y-73556761D01*
X82829495Y-73509142D01*
X82781876Y-73413904D01*
X82781876Y-73175809D01*
X82829495Y-73080571D01*
X82877114Y-73032952D01*
X82972352Y-72985333D01*
X83162828Y-72985333D01*
X83258066Y-73032952D01*
X83305685Y-73080571D01*
X83353304Y-73175809D01*
X70738904Y-72583980D02*
X70738904Y-73393504D01*
X70691285Y-73488742D01*
X70643666Y-73536361D01*
X70548428Y-73583980D01*
X70357952Y-73583980D01*
X70262714Y-73536361D01*
X70215095Y-73488742D01*
X70167476Y-73393504D01*
X70167476Y-72583980D01*
X69215095Y-72583980D02*
X69691285Y-72583980D01*
X69738904Y-73060171D01*
X69691285Y-73012552D01*
X69596047Y-72964933D01*
X69357952Y-72964933D01*
X69262714Y-73012552D01*
X69215095Y-73060171D01*
X69167476Y-73155409D01*
X69167476Y-73393504D01*
X69215095Y-73488742D01*
X69262714Y-73536361D01*
X69357952Y-73583980D01*
X69596047Y-73583980D01*
X69691285Y-73536361D01*
X69738904Y-73488742D01*
X68175542Y-63892942D02*
X68223161Y-63845323D01*
X68270780Y-63702466D01*
X68270780Y-63607228D01*
X68223161Y-63464371D01*
X68127923Y-63369133D01*
X68032685Y-63321514D01*
X67842209Y-63273895D01*
X67699352Y-63273895D01*
X67508876Y-63321514D01*
X67413638Y-63369133D01*
X67318400Y-63464371D01*
X67270780Y-63607228D01*
X67270780Y-63702466D01*
X67318400Y-63845323D01*
X67366019Y-63892942D01*
X68270780Y-64845323D02*
X68270780Y-64273895D01*
X68270780Y-64559609D02*
X67270780Y-64559609D01*
X67413638Y-64464371D01*
X67508876Y-64369133D01*
X67556495Y-64273895D01*
X67366019Y-65226276D02*
X67318400Y-65273895D01*
X67270780Y-65369133D01*
X67270780Y-65607228D01*
X67318400Y-65702466D01*
X67366019Y-65750085D01*
X67461257Y-65797704D01*
X67556495Y-65797704D01*
X67699352Y-65750085D01*
X68270780Y-65178657D01*
X68270780Y-65797704D01*
X68632342Y-57940942D02*
X68679961Y-57893323D01*
X68727580Y-57750466D01*
X68727580Y-57655228D01*
X68679961Y-57512371D01*
X68584723Y-57417133D01*
X68489485Y-57369514D01*
X68299009Y-57321895D01*
X68156152Y-57321895D01*
X67965676Y-57369514D01*
X67870438Y-57417133D01*
X67775200Y-57512371D01*
X67727580Y-57655228D01*
X67727580Y-57750466D01*
X67775200Y-57893323D01*
X67822819Y-57940942D01*
X68727580Y-58893323D02*
X68727580Y-58321895D01*
X68727580Y-58607609D02*
X67727580Y-58607609D01*
X67870438Y-58512371D01*
X67965676Y-58417133D01*
X68013295Y-58321895D01*
X68727580Y-59845704D02*
X68727580Y-59274276D01*
X68727580Y-59559990D02*
X67727580Y-59559990D01*
X67870438Y-59464752D01*
X67965676Y-59369514D01*
X68013295Y-59274276D01*
X97029542Y-65752742D02*
X97077161Y-65705123D01*
X97124780Y-65562266D01*
X97124780Y-65467028D01*
X97077161Y-65324171D01*
X96981923Y-65228933D01*
X96886685Y-65181314D01*
X96696209Y-65133695D01*
X96553352Y-65133695D01*
X96362876Y-65181314D01*
X96267638Y-65228933D01*
X96172400Y-65324171D01*
X96124780Y-65467028D01*
X96124780Y-65562266D01*
X96172400Y-65705123D01*
X96220019Y-65752742D01*
X97124780Y-66705123D02*
X97124780Y-66133695D01*
X97124780Y-66419409D02*
X96124780Y-66419409D01*
X96267638Y-66324171D01*
X96362876Y-66228933D01*
X96410495Y-66133695D01*
X96124780Y-67324171D02*
X96124780Y-67419409D01*
X96172400Y-67514647D01*
X96220019Y-67562266D01*
X96315257Y-67609885D01*
X96505733Y-67657504D01*
X96743828Y-67657504D01*
X96934304Y-67609885D01*
X97029542Y-67562266D01*
X97077161Y-67514647D01*
X97124780Y-67419409D01*
X97124780Y-67324171D01*
X97077161Y-67228933D01*
X97029542Y-67181314D01*
X96934304Y-67133695D01*
X96743828Y-67086076D01*
X96505733Y-67086076D01*
X96315257Y-67133695D01*
X96220019Y-67181314D01*
X96172400Y-67228933D01*
X96124780Y-67324171D01*
X97029542Y-58812133D02*
X97077161Y-58764514D01*
X97124780Y-58621657D01*
X97124780Y-58526419D01*
X97077161Y-58383561D01*
X96981923Y-58288323D01*
X96886685Y-58240704D01*
X96696209Y-58193085D01*
X96553352Y-58193085D01*
X96362876Y-58240704D01*
X96267638Y-58288323D01*
X96172400Y-58383561D01*
X96124780Y-58526419D01*
X96124780Y-58621657D01*
X96172400Y-58764514D01*
X96220019Y-58812133D01*
X97124780Y-59288323D02*
X97124780Y-59478800D01*
X97077161Y-59574038D01*
X97029542Y-59621657D01*
X96886685Y-59716895D01*
X96696209Y-59764514D01*
X96315257Y-59764514D01*
X96220019Y-59716895D01*
X96172400Y-59669276D01*
X96124780Y-59574038D01*
X96124780Y-59383561D01*
X96172400Y-59288323D01*
X96220019Y-59240704D01*
X96315257Y-59193085D01*
X96553352Y-59193085D01*
X96648590Y-59240704D01*
X96696209Y-59288323D01*
X96743828Y-59383561D01*
X96743828Y-59574038D01*
X96696209Y-59669276D01*
X96648590Y-59716895D01*
X96553352Y-59764514D01*
X126036342Y-70981333D02*
X126083961Y-70933714D01*
X126131580Y-70790857D01*
X126131580Y-70695619D01*
X126083961Y-70552761D01*
X125988723Y-70457523D01*
X125893485Y-70409904D01*
X125703009Y-70362285D01*
X125560152Y-70362285D01*
X125369676Y-70409904D01*
X125274438Y-70457523D01*
X125179200Y-70552761D01*
X125131580Y-70695619D01*
X125131580Y-70790857D01*
X125179200Y-70933714D01*
X125226819Y-70981333D01*
X125560152Y-71552761D02*
X125512533Y-71457523D01*
X125464914Y-71409904D01*
X125369676Y-71362285D01*
X125322057Y-71362285D01*
X125226819Y-71409904D01*
X125179200Y-71457523D01*
X125131580Y-71552761D01*
X125131580Y-71743238D01*
X125179200Y-71838476D01*
X125226819Y-71886095D01*
X125322057Y-71933714D01*
X125369676Y-71933714D01*
X125464914Y-71886095D01*
X125512533Y-71838476D01*
X125560152Y-71743238D01*
X125560152Y-71552761D01*
X125607771Y-71457523D01*
X125655390Y-71409904D01*
X125750628Y-71362285D01*
X125941104Y-71362285D01*
X126036342Y-71409904D01*
X126083961Y-71457523D01*
X126131580Y-71552761D01*
X126131580Y-71743238D01*
X126083961Y-71838476D01*
X126036342Y-71886095D01*
X125941104Y-71933714D01*
X125750628Y-71933714D01*
X125655390Y-71886095D01*
X125607771Y-71838476D01*
X125560152Y-71743238D01*
X126087142Y-56170533D02*
X126134761Y-56122914D01*
X126182380Y-55980057D01*
X126182380Y-55884819D01*
X126134761Y-55741961D01*
X126039523Y-55646723D01*
X125944285Y-55599104D01*
X125753809Y-55551485D01*
X125610952Y-55551485D01*
X125420476Y-55599104D01*
X125325238Y-55646723D01*
X125230000Y-55741961D01*
X125182380Y-55884819D01*
X125182380Y-55980057D01*
X125230000Y-56122914D01*
X125277619Y-56170533D01*
X125182380Y-56503866D02*
X125182380Y-57170533D01*
X126182380Y-56741961D01*
M02*
