G04 #@! TF.GenerationSoftware,KiCad,Pcbnew,5.1.5*
G04 #@! TF.CreationDate,2020-05-24T05:14:00+08:00*
G04 #@! TF.ProjectId,EDO RAM Stick Recreated,45444f20-5241-44d2-9053-7469636b2052,01*
G04 #@! TF.SameCoordinates,Original*
G04 #@! TF.FileFunction,Soldermask,Top*
G04 #@! TF.FilePolarity,Negative*
%FSLAX46Y46*%
G04 Gerber Fmt 4.6, Leading zero omitted, Abs format (unit mm)*
G04 Created by KiCad (PCBNEW 5.1.5) date 2020-05-24 05:14:00*
%MOMM*%
%LPD*%
G04 APERTURE LIST*
%ADD10C,0.100000*%
G04 APERTURE END LIST*
D10*
G36*
X91497699Y-76797599D02*
G01*
X67595699Y-76797599D01*
X67595699Y-74395599D01*
X91497699Y-74395599D01*
X91497699Y-76797599D01*
G37*
G36*
X128897699Y-76797599D02*
G01*
X95395699Y-76797599D01*
X95395699Y-74395599D01*
X128897699Y-74395599D01*
X128897699Y-76797599D01*
G37*
G36*
X84103400Y-72081800D02*
G01*
X82501400Y-72081800D01*
X82501400Y-71679800D01*
X84103400Y-71679800D01*
X84103400Y-72081800D01*
G37*
G36*
X95203400Y-72081800D02*
G01*
X93601400Y-72081800D01*
X93601400Y-71679800D01*
X95203400Y-71679800D01*
X95203400Y-72081800D01*
G37*
G36*
X81944600Y-72081800D02*
G01*
X80342600Y-72081800D01*
X80342600Y-71679800D01*
X81944600Y-71679800D01*
X81944600Y-72081800D01*
G37*
G36*
X70844600Y-72081800D02*
G01*
X69242600Y-72081800D01*
X69242600Y-71679800D01*
X70844600Y-71679800D01*
X70844600Y-72081800D01*
G37*
G36*
X112907000Y-72031000D02*
G01*
X111305000Y-72031000D01*
X111305000Y-71629000D01*
X112907000Y-71629000D01*
X112907000Y-72031000D01*
G37*
G36*
X110799000Y-72031000D02*
G01*
X109197000Y-72031000D01*
X109197000Y-71629000D01*
X110799000Y-71629000D01*
X110799000Y-72031000D01*
G37*
G36*
X99699000Y-72031000D02*
G01*
X98097000Y-72031000D01*
X98097000Y-71629000D01*
X99699000Y-71629000D01*
X99699000Y-72031000D01*
G37*
G36*
X124007000Y-72031000D02*
G01*
X122405000Y-72031000D01*
X122405000Y-71629000D01*
X124007000Y-71629000D01*
X124007000Y-72031000D01*
G37*
G36*
X96986099Y-70610645D02*
G01*
X97023595Y-70622020D01*
X97058154Y-70640492D01*
X97088447Y-70665353D01*
X97113308Y-70695646D01*
X97131780Y-70730205D01*
X97143155Y-70767701D01*
X97147600Y-70812838D01*
X97147600Y-71551562D01*
X97143155Y-71596699D01*
X97131780Y-71634195D01*
X97113308Y-71668754D01*
X97088447Y-71699047D01*
X97058154Y-71723908D01*
X97023595Y-71742380D01*
X96986099Y-71753755D01*
X96940962Y-71758200D01*
X96302238Y-71758200D01*
X96257101Y-71753755D01*
X96219605Y-71742380D01*
X96185046Y-71723908D01*
X96154753Y-71699047D01*
X96129892Y-71668754D01*
X96111420Y-71634195D01*
X96100045Y-71596699D01*
X96095600Y-71551562D01*
X96095600Y-70812838D01*
X96100045Y-70767701D01*
X96111420Y-70730205D01*
X96129892Y-70695646D01*
X96154753Y-70665353D01*
X96185046Y-70640492D01*
X96219605Y-70622020D01*
X96257101Y-70610645D01*
X96302238Y-70606200D01*
X96940962Y-70606200D01*
X96986099Y-70610645D01*
G37*
G36*
X81944600Y-71281800D02*
G01*
X80342600Y-71281800D01*
X80342600Y-70879800D01*
X81944600Y-70879800D01*
X81944600Y-71281800D01*
G37*
G36*
X95203400Y-71281800D02*
G01*
X93601400Y-71281800D01*
X93601400Y-70879800D01*
X95203400Y-70879800D01*
X95203400Y-71281800D01*
G37*
G36*
X70844600Y-71281800D02*
G01*
X69242600Y-71281800D01*
X69242600Y-70879800D01*
X70844600Y-70879800D01*
X70844600Y-71281800D01*
G37*
G36*
X84103400Y-71281800D02*
G01*
X82501400Y-71281800D01*
X82501400Y-70879800D01*
X84103400Y-70879800D01*
X84103400Y-71281800D01*
G37*
G36*
X124007000Y-71231000D02*
G01*
X122405000Y-71231000D01*
X122405000Y-70829000D01*
X124007000Y-70829000D01*
X124007000Y-71231000D01*
G37*
G36*
X112907000Y-71231000D02*
G01*
X111305000Y-71231000D01*
X111305000Y-70829000D01*
X112907000Y-70829000D01*
X112907000Y-71231000D01*
G37*
G36*
X110799000Y-71231000D02*
G01*
X109197000Y-71231000D01*
X109197000Y-70829000D01*
X110799000Y-70829000D01*
X110799000Y-71231000D01*
G37*
G36*
X99699000Y-71231000D02*
G01*
X98097000Y-71231000D01*
X98097000Y-70829000D01*
X99699000Y-70829000D01*
X99699000Y-71231000D01*
G37*
G36*
X127781499Y-69988845D02*
G01*
X127818995Y-70000220D01*
X127853554Y-70018692D01*
X127883847Y-70043553D01*
X127908708Y-70073846D01*
X127927180Y-70108405D01*
X127938555Y-70145901D01*
X127943000Y-70191038D01*
X127943000Y-70829762D01*
X127938555Y-70874899D01*
X127927180Y-70912395D01*
X127908708Y-70946954D01*
X127883847Y-70977247D01*
X127853554Y-71002108D01*
X127818995Y-71020580D01*
X127781499Y-71031955D01*
X127736362Y-71036400D01*
X126997638Y-71036400D01*
X126952501Y-71031955D01*
X126915005Y-71020580D01*
X126880446Y-71002108D01*
X126850153Y-70977247D01*
X126825292Y-70946954D01*
X126806820Y-70912395D01*
X126795445Y-70874899D01*
X126791000Y-70829762D01*
X126791000Y-70191038D01*
X126795445Y-70145901D01*
X126806820Y-70108405D01*
X126825292Y-70073846D01*
X126850153Y-70043553D01*
X126880446Y-70018692D01*
X126915005Y-70000220D01*
X126952501Y-69988845D01*
X126997638Y-69984400D01*
X127736362Y-69984400D01*
X127781499Y-69988845D01*
G37*
G36*
X126031499Y-69988845D02*
G01*
X126068995Y-70000220D01*
X126103554Y-70018692D01*
X126133847Y-70043553D01*
X126158708Y-70073846D01*
X126177180Y-70108405D01*
X126188555Y-70145901D01*
X126193000Y-70191038D01*
X126193000Y-70829762D01*
X126188555Y-70874899D01*
X126177180Y-70912395D01*
X126158708Y-70946954D01*
X126133847Y-70977247D01*
X126103554Y-71002108D01*
X126068995Y-71020580D01*
X126031499Y-71031955D01*
X125986362Y-71036400D01*
X125247638Y-71036400D01*
X125202501Y-71031955D01*
X125165005Y-71020580D01*
X125130446Y-71002108D01*
X125100153Y-70977247D01*
X125075292Y-70946954D01*
X125056820Y-70912395D01*
X125045445Y-70874899D01*
X125041000Y-70829762D01*
X125041000Y-70191038D01*
X125045445Y-70145901D01*
X125056820Y-70108405D01*
X125075292Y-70073846D01*
X125100153Y-70043553D01*
X125130446Y-70018692D01*
X125165005Y-70000220D01*
X125202501Y-69988845D01*
X125247638Y-69984400D01*
X125986362Y-69984400D01*
X126031499Y-69988845D01*
G37*
G36*
X70844600Y-70481800D02*
G01*
X69242600Y-70481800D01*
X69242600Y-70079800D01*
X70844600Y-70079800D01*
X70844600Y-70481800D01*
G37*
G36*
X81944600Y-70481800D02*
G01*
X80342600Y-70481800D01*
X80342600Y-70079800D01*
X81944600Y-70079800D01*
X81944600Y-70481800D01*
G37*
G36*
X84103400Y-70481800D02*
G01*
X82501400Y-70481800D01*
X82501400Y-70079800D01*
X84103400Y-70079800D01*
X84103400Y-70481800D01*
G37*
G36*
X95203400Y-70481800D02*
G01*
X93601400Y-70481800D01*
X93601400Y-70079800D01*
X95203400Y-70079800D01*
X95203400Y-70481800D01*
G37*
G36*
X112907000Y-70431000D02*
G01*
X111305000Y-70431000D01*
X111305000Y-70029000D01*
X112907000Y-70029000D01*
X112907000Y-70431000D01*
G37*
G36*
X124007000Y-70431000D02*
G01*
X122405000Y-70431000D01*
X122405000Y-70029000D01*
X124007000Y-70029000D01*
X124007000Y-70431000D01*
G37*
G36*
X110799000Y-70431000D02*
G01*
X109197000Y-70431000D01*
X109197000Y-70029000D01*
X110799000Y-70029000D01*
X110799000Y-70431000D01*
G37*
G36*
X99699000Y-70431000D02*
G01*
X98097000Y-70431000D01*
X98097000Y-70029000D01*
X99699000Y-70029000D01*
X99699000Y-70431000D01*
G37*
G36*
X96986099Y-68860645D02*
G01*
X97023595Y-68872020D01*
X97058154Y-68890492D01*
X97088447Y-68915353D01*
X97113308Y-68945646D01*
X97131780Y-68980205D01*
X97143155Y-69017701D01*
X97147600Y-69062838D01*
X97147600Y-69801562D01*
X97143155Y-69846699D01*
X97131780Y-69884195D01*
X97113308Y-69918754D01*
X97088447Y-69949047D01*
X97058154Y-69973908D01*
X97023595Y-69992380D01*
X96986099Y-70003755D01*
X96940962Y-70008200D01*
X96302238Y-70008200D01*
X96257101Y-70003755D01*
X96219605Y-69992380D01*
X96185046Y-69973908D01*
X96154753Y-69949047D01*
X96129892Y-69918754D01*
X96111420Y-69884195D01*
X96100045Y-69846699D01*
X96095600Y-69801562D01*
X96095600Y-69062838D01*
X96100045Y-69017701D01*
X96111420Y-68980205D01*
X96129892Y-68945646D01*
X96154753Y-68915353D01*
X96185046Y-68890492D01*
X96219605Y-68872020D01*
X96257101Y-68860645D01*
X96302238Y-68856200D01*
X96940962Y-68856200D01*
X96986099Y-68860645D01*
G37*
G36*
X68131699Y-68731045D02*
G01*
X68169195Y-68742420D01*
X68203754Y-68760892D01*
X68234047Y-68785753D01*
X68258908Y-68816046D01*
X68277380Y-68850605D01*
X68288755Y-68888101D01*
X68293200Y-68933238D01*
X68293200Y-69671962D01*
X68288755Y-69717099D01*
X68277380Y-69754595D01*
X68258908Y-69789154D01*
X68234047Y-69819447D01*
X68203754Y-69844308D01*
X68169195Y-69862780D01*
X68131699Y-69874155D01*
X68086562Y-69878600D01*
X67447838Y-69878600D01*
X67402701Y-69874155D01*
X67365205Y-69862780D01*
X67330646Y-69844308D01*
X67300353Y-69819447D01*
X67275492Y-69789154D01*
X67257020Y-69754595D01*
X67245645Y-69717099D01*
X67241200Y-69671962D01*
X67241200Y-68933238D01*
X67245645Y-68888101D01*
X67257020Y-68850605D01*
X67275492Y-68816046D01*
X67300353Y-68785753D01*
X67330646Y-68760892D01*
X67365205Y-68742420D01*
X67402701Y-68731045D01*
X67447838Y-68726600D01*
X68086562Y-68726600D01*
X68131699Y-68731045D01*
G37*
G36*
X81944600Y-69681800D02*
G01*
X80342600Y-69681800D01*
X80342600Y-69279800D01*
X81944600Y-69279800D01*
X81944600Y-69681800D01*
G37*
G36*
X84103400Y-69681800D02*
G01*
X82501400Y-69681800D01*
X82501400Y-69279800D01*
X84103400Y-69279800D01*
X84103400Y-69681800D01*
G37*
G36*
X95203400Y-69681800D02*
G01*
X93601400Y-69681800D01*
X93601400Y-69279800D01*
X95203400Y-69279800D01*
X95203400Y-69681800D01*
G37*
G36*
X70844600Y-69681800D02*
G01*
X69242600Y-69681800D01*
X69242600Y-69279800D01*
X70844600Y-69279800D01*
X70844600Y-69681800D01*
G37*
G36*
X99699000Y-69631000D02*
G01*
X98097000Y-69631000D01*
X98097000Y-69229000D01*
X99699000Y-69229000D01*
X99699000Y-69631000D01*
G37*
G36*
X112907000Y-69631000D02*
G01*
X111305000Y-69631000D01*
X111305000Y-69229000D01*
X112907000Y-69229000D01*
X112907000Y-69631000D01*
G37*
G36*
X110799000Y-69631000D02*
G01*
X109197000Y-69631000D01*
X109197000Y-69229000D01*
X110799000Y-69229000D01*
X110799000Y-69631000D01*
G37*
G36*
X124007000Y-69631000D02*
G01*
X122405000Y-69631000D01*
X122405000Y-69229000D01*
X124007000Y-69229000D01*
X124007000Y-69631000D01*
G37*
G36*
X84103400Y-68881800D02*
G01*
X82501400Y-68881800D01*
X82501400Y-68479800D01*
X84103400Y-68479800D01*
X84103400Y-68881800D01*
G37*
G36*
X70844600Y-68881800D02*
G01*
X69242600Y-68881800D01*
X69242600Y-68479800D01*
X70844600Y-68479800D01*
X70844600Y-68881800D01*
G37*
G36*
X81944600Y-68881800D02*
G01*
X80342600Y-68881800D01*
X80342600Y-68479800D01*
X81944600Y-68479800D01*
X81944600Y-68881800D01*
G37*
G36*
X95203400Y-68881800D02*
G01*
X93601400Y-68881800D01*
X93601400Y-68479800D01*
X95203400Y-68479800D01*
X95203400Y-68881800D01*
G37*
G36*
X112907000Y-68831000D02*
G01*
X111305000Y-68831000D01*
X111305000Y-68429000D01*
X112907000Y-68429000D01*
X112907000Y-68831000D01*
G37*
G36*
X124007000Y-68831000D02*
G01*
X122405000Y-68831000D01*
X122405000Y-68429000D01*
X124007000Y-68429000D01*
X124007000Y-68831000D01*
G37*
G36*
X110799000Y-68831000D02*
G01*
X109197000Y-68831000D01*
X109197000Y-68429000D01*
X110799000Y-68429000D01*
X110799000Y-68831000D01*
G37*
G36*
X99699000Y-68831000D02*
G01*
X98097000Y-68831000D01*
X98097000Y-68429000D01*
X99699000Y-68429000D01*
X99699000Y-68831000D01*
G37*
G36*
X127082128Y-66577364D02*
G01*
X127103209Y-66583760D01*
X127122645Y-66594148D01*
X127139676Y-66608124D01*
X127153652Y-66625155D01*
X127164040Y-66644591D01*
X127170436Y-66665672D01*
X127173200Y-66693740D01*
X127173200Y-68507460D01*
X127170436Y-68535528D01*
X127164040Y-68556609D01*
X127153652Y-68576045D01*
X127139676Y-68593076D01*
X127122645Y-68607052D01*
X127103209Y-68617440D01*
X127082128Y-68623836D01*
X127054060Y-68626600D01*
X126590340Y-68626600D01*
X126562272Y-68623836D01*
X126541191Y-68617440D01*
X126521755Y-68607052D01*
X126504724Y-68593076D01*
X126490748Y-68576045D01*
X126480360Y-68556609D01*
X126473964Y-68535528D01*
X126471200Y-68507460D01*
X126471200Y-66693740D01*
X126473964Y-66665672D01*
X126480360Y-66644591D01*
X126490748Y-66625155D01*
X126504724Y-66608124D01*
X126521755Y-66594148D01*
X126541191Y-66583760D01*
X126562272Y-66577364D01*
X126590340Y-66574600D01*
X127054060Y-66574600D01*
X127082128Y-66577364D01*
G37*
G36*
X125812128Y-66577364D02*
G01*
X125833209Y-66583760D01*
X125852645Y-66594148D01*
X125869676Y-66608124D01*
X125883652Y-66625155D01*
X125894040Y-66644591D01*
X125900436Y-66665672D01*
X125903200Y-66693740D01*
X125903200Y-68507460D01*
X125900436Y-68535528D01*
X125894040Y-68556609D01*
X125883652Y-68576045D01*
X125869676Y-68593076D01*
X125852645Y-68607052D01*
X125833209Y-68617440D01*
X125812128Y-68623836D01*
X125784060Y-68626600D01*
X125320340Y-68626600D01*
X125292272Y-68623836D01*
X125271191Y-68617440D01*
X125251755Y-68607052D01*
X125234724Y-68593076D01*
X125220748Y-68576045D01*
X125210360Y-68556609D01*
X125203964Y-68535528D01*
X125201200Y-68507460D01*
X125201200Y-66693740D01*
X125203964Y-66665672D01*
X125210360Y-66644591D01*
X125220748Y-66625155D01*
X125234724Y-66608124D01*
X125251755Y-66594148D01*
X125271191Y-66583760D01*
X125292272Y-66577364D01*
X125320340Y-66574600D01*
X125784060Y-66574600D01*
X125812128Y-66577364D01*
G37*
G36*
X129622128Y-66577364D02*
G01*
X129643209Y-66583760D01*
X129662645Y-66594148D01*
X129679676Y-66608124D01*
X129693652Y-66625155D01*
X129704040Y-66644591D01*
X129710436Y-66665672D01*
X129713200Y-66693740D01*
X129713200Y-68507460D01*
X129710436Y-68535528D01*
X129704040Y-68556609D01*
X129693652Y-68576045D01*
X129679676Y-68593076D01*
X129662645Y-68607052D01*
X129643209Y-68617440D01*
X129622128Y-68623836D01*
X129594060Y-68626600D01*
X129130340Y-68626600D01*
X129102272Y-68623836D01*
X129081191Y-68617440D01*
X129061755Y-68607052D01*
X129044724Y-68593076D01*
X129030748Y-68576045D01*
X129020360Y-68556609D01*
X129013964Y-68535528D01*
X129011200Y-68507460D01*
X129011200Y-66693740D01*
X129013964Y-66665672D01*
X129020360Y-66644591D01*
X129030748Y-66625155D01*
X129044724Y-66608124D01*
X129061755Y-66594148D01*
X129081191Y-66583760D01*
X129102272Y-66577364D01*
X129130340Y-66574600D01*
X129594060Y-66574600D01*
X129622128Y-66577364D01*
G37*
G36*
X128352128Y-66577364D02*
G01*
X128373209Y-66583760D01*
X128392645Y-66594148D01*
X128409676Y-66608124D01*
X128423652Y-66625155D01*
X128434040Y-66644591D01*
X128440436Y-66665672D01*
X128443200Y-66693740D01*
X128443200Y-68507460D01*
X128440436Y-68535528D01*
X128434040Y-68556609D01*
X128423652Y-68576045D01*
X128409676Y-68593076D01*
X128392645Y-68607052D01*
X128373209Y-68617440D01*
X128352128Y-68623836D01*
X128324060Y-68626600D01*
X127860340Y-68626600D01*
X127832272Y-68623836D01*
X127811191Y-68617440D01*
X127791755Y-68607052D01*
X127774724Y-68593076D01*
X127760748Y-68576045D01*
X127750360Y-68556609D01*
X127743964Y-68535528D01*
X127741200Y-68507460D01*
X127741200Y-66693740D01*
X127743964Y-66665672D01*
X127750360Y-66644591D01*
X127760748Y-66625155D01*
X127774724Y-66608124D01*
X127791755Y-66594148D01*
X127811191Y-66583760D01*
X127832272Y-66577364D01*
X127860340Y-66574600D01*
X128324060Y-66574600D01*
X128352128Y-66577364D01*
G37*
G36*
X68131699Y-66981045D02*
G01*
X68169195Y-66992420D01*
X68203754Y-67010892D01*
X68234047Y-67035753D01*
X68258908Y-67066046D01*
X68277380Y-67100605D01*
X68288755Y-67138101D01*
X68293200Y-67183238D01*
X68293200Y-67921962D01*
X68288755Y-67967099D01*
X68277380Y-68004595D01*
X68258908Y-68039154D01*
X68234047Y-68069447D01*
X68203754Y-68094308D01*
X68169195Y-68112780D01*
X68131699Y-68124155D01*
X68086562Y-68128600D01*
X67447838Y-68128600D01*
X67402701Y-68124155D01*
X67365205Y-68112780D01*
X67330646Y-68094308D01*
X67300353Y-68069447D01*
X67275492Y-68039154D01*
X67257020Y-68004595D01*
X67245645Y-67967099D01*
X67241200Y-67921962D01*
X67241200Y-67183238D01*
X67245645Y-67138101D01*
X67257020Y-67100605D01*
X67275492Y-67066046D01*
X67300353Y-67035753D01*
X67330646Y-67010892D01*
X67365205Y-66992420D01*
X67402701Y-66981045D01*
X67447838Y-66976600D01*
X68086562Y-66976600D01*
X68131699Y-66981045D01*
G37*
G36*
X70844600Y-68081800D02*
G01*
X69242600Y-68081800D01*
X69242600Y-67679800D01*
X70844600Y-67679800D01*
X70844600Y-68081800D01*
G37*
G36*
X81944600Y-68081800D02*
G01*
X80342600Y-68081800D01*
X80342600Y-67679800D01*
X81944600Y-67679800D01*
X81944600Y-68081800D01*
G37*
G36*
X84103400Y-68081800D02*
G01*
X82501400Y-68081800D01*
X82501400Y-67679800D01*
X84103400Y-67679800D01*
X84103400Y-68081800D01*
G37*
G36*
X95203400Y-68081800D02*
G01*
X93601400Y-68081800D01*
X93601400Y-67679800D01*
X95203400Y-67679800D01*
X95203400Y-68081800D01*
G37*
G36*
X99699000Y-68031000D02*
G01*
X98097000Y-68031000D01*
X98097000Y-67629000D01*
X99699000Y-67629000D01*
X99699000Y-68031000D01*
G37*
G36*
X110799000Y-68031000D02*
G01*
X109197000Y-68031000D01*
X109197000Y-67629000D01*
X110799000Y-67629000D01*
X110799000Y-68031000D01*
G37*
G36*
X112907000Y-68031000D02*
G01*
X111305000Y-68031000D01*
X111305000Y-67629000D01*
X112907000Y-67629000D01*
X112907000Y-68031000D01*
G37*
G36*
X124007000Y-68031000D02*
G01*
X122405000Y-68031000D01*
X122405000Y-67629000D01*
X124007000Y-67629000D01*
X124007000Y-68031000D01*
G37*
G36*
X81944600Y-67281800D02*
G01*
X80342600Y-67281800D01*
X80342600Y-66879800D01*
X81944600Y-66879800D01*
X81944600Y-67281800D01*
G37*
G36*
X70844600Y-67281800D02*
G01*
X69242600Y-67281800D01*
X69242600Y-66879800D01*
X70844600Y-66879800D01*
X70844600Y-67281800D01*
G37*
G36*
X84103400Y-67281800D02*
G01*
X82501400Y-67281800D01*
X82501400Y-66879800D01*
X84103400Y-66879800D01*
X84103400Y-67281800D01*
G37*
G36*
X95203400Y-67281800D02*
G01*
X93601400Y-67281800D01*
X93601400Y-66879800D01*
X95203400Y-66879800D01*
X95203400Y-67281800D01*
G37*
G36*
X110799000Y-67231000D02*
G01*
X109197000Y-67231000D01*
X109197000Y-66829000D01*
X110799000Y-66829000D01*
X110799000Y-67231000D01*
G37*
G36*
X99699000Y-67231000D02*
G01*
X98097000Y-67231000D01*
X98097000Y-66829000D01*
X99699000Y-66829000D01*
X99699000Y-67231000D01*
G37*
G36*
X112907000Y-67231000D02*
G01*
X111305000Y-67231000D01*
X111305000Y-66829000D01*
X112907000Y-66829000D01*
X112907000Y-67231000D01*
G37*
G36*
X124007000Y-67231000D02*
G01*
X122405000Y-67231000D01*
X122405000Y-66829000D01*
X124007000Y-66829000D01*
X124007000Y-67231000D01*
G37*
G36*
X70844600Y-66481800D02*
G01*
X69242600Y-66481800D01*
X69242600Y-66079800D01*
X70844600Y-66079800D01*
X70844600Y-66481800D01*
G37*
G36*
X84103400Y-66481800D02*
G01*
X82501400Y-66481800D01*
X82501400Y-66079800D01*
X84103400Y-66079800D01*
X84103400Y-66481800D01*
G37*
G36*
X81944600Y-66481800D02*
G01*
X80342600Y-66481800D01*
X80342600Y-66079800D01*
X81944600Y-66079800D01*
X81944600Y-66481800D01*
G37*
G36*
X95203400Y-66481800D02*
G01*
X93601400Y-66481800D01*
X93601400Y-66079800D01*
X95203400Y-66079800D01*
X95203400Y-66481800D01*
G37*
G36*
X110799000Y-66431000D02*
G01*
X109197000Y-66431000D01*
X109197000Y-66029000D01*
X110799000Y-66029000D01*
X110799000Y-66431000D01*
G37*
G36*
X99699000Y-66431000D02*
G01*
X98097000Y-66431000D01*
X98097000Y-66029000D01*
X99699000Y-66029000D01*
X99699000Y-66431000D01*
G37*
G36*
X112907000Y-66431000D02*
G01*
X111305000Y-66431000D01*
X111305000Y-66029000D01*
X112907000Y-66029000D01*
X112907000Y-66431000D01*
G37*
G36*
X124007000Y-66431000D02*
G01*
X122405000Y-66431000D01*
X122405000Y-66029000D01*
X124007000Y-66029000D01*
X124007000Y-66431000D01*
G37*
G36*
X81944600Y-65681800D02*
G01*
X80342600Y-65681800D01*
X80342600Y-65279800D01*
X81944600Y-65279800D01*
X81944600Y-65681800D01*
G37*
G36*
X95203400Y-65681800D02*
G01*
X93601400Y-65681800D01*
X93601400Y-65279800D01*
X95203400Y-65279800D01*
X95203400Y-65681800D01*
G37*
G36*
X70844600Y-65681800D02*
G01*
X69242600Y-65681800D01*
X69242600Y-65279800D01*
X70844600Y-65279800D01*
X70844600Y-65681800D01*
G37*
G36*
X84103400Y-65681800D02*
G01*
X82501400Y-65681800D01*
X82501400Y-65279800D01*
X84103400Y-65279800D01*
X84103400Y-65681800D01*
G37*
G36*
X112907000Y-65631000D02*
G01*
X111305000Y-65631000D01*
X111305000Y-65229000D01*
X112907000Y-65229000D01*
X112907000Y-65631000D01*
G37*
G36*
X99699000Y-65631000D02*
G01*
X98097000Y-65631000D01*
X98097000Y-65229000D01*
X99699000Y-65229000D01*
X99699000Y-65631000D01*
G37*
G36*
X124007000Y-65631000D02*
G01*
X122405000Y-65631000D01*
X122405000Y-65229000D01*
X124007000Y-65229000D01*
X124007000Y-65631000D01*
G37*
G36*
X110799000Y-65631000D02*
G01*
X109197000Y-65631000D01*
X109197000Y-65229000D01*
X110799000Y-65229000D01*
X110799000Y-65631000D01*
G37*
G36*
X81944600Y-64881800D02*
G01*
X80342600Y-64881800D01*
X80342600Y-64479800D01*
X81944600Y-64479800D01*
X81944600Y-64881800D01*
G37*
G36*
X84103400Y-64881800D02*
G01*
X82501400Y-64881800D01*
X82501400Y-64479800D01*
X84103400Y-64479800D01*
X84103400Y-64881800D01*
G37*
G36*
X95203400Y-64881800D02*
G01*
X93601400Y-64881800D01*
X93601400Y-64479800D01*
X95203400Y-64479800D01*
X95203400Y-64881800D01*
G37*
G36*
X70844600Y-64881800D02*
G01*
X69242600Y-64881800D01*
X69242600Y-64479800D01*
X70844600Y-64479800D01*
X70844600Y-64881800D01*
G37*
G36*
X99699000Y-64831000D02*
G01*
X98097000Y-64831000D01*
X98097000Y-64429000D01*
X99699000Y-64429000D01*
X99699000Y-64831000D01*
G37*
G36*
X110799000Y-64831000D02*
G01*
X109197000Y-64831000D01*
X109197000Y-64429000D01*
X110799000Y-64429000D01*
X110799000Y-64831000D01*
G37*
G36*
X112907000Y-64831000D02*
G01*
X111305000Y-64831000D01*
X111305000Y-64429000D01*
X112907000Y-64429000D01*
X112907000Y-64831000D01*
G37*
G36*
X124007000Y-64831000D02*
G01*
X122405000Y-64831000D01*
X122405000Y-64429000D01*
X124007000Y-64429000D01*
X124007000Y-64831000D01*
G37*
G36*
X81944600Y-64081800D02*
G01*
X80342600Y-64081800D01*
X80342600Y-63679800D01*
X81944600Y-63679800D01*
X81944600Y-64081800D01*
G37*
G36*
X70844600Y-64081800D02*
G01*
X69242600Y-64081800D01*
X69242600Y-63679800D01*
X70844600Y-63679800D01*
X70844600Y-64081800D01*
G37*
G36*
X95203400Y-64081800D02*
G01*
X93601400Y-64081800D01*
X93601400Y-63679800D01*
X95203400Y-63679800D01*
X95203400Y-64081800D01*
G37*
G36*
X84103400Y-64081800D02*
G01*
X82501400Y-64081800D01*
X82501400Y-63679800D01*
X84103400Y-63679800D01*
X84103400Y-64081800D01*
G37*
G36*
X124007000Y-64031000D02*
G01*
X122405000Y-64031000D01*
X122405000Y-63629000D01*
X124007000Y-63629000D01*
X124007000Y-64031000D01*
G37*
G36*
X99699000Y-64031000D02*
G01*
X98097000Y-64031000D01*
X98097000Y-63629000D01*
X99699000Y-63629000D01*
X99699000Y-64031000D01*
G37*
G36*
X110799000Y-64031000D02*
G01*
X109197000Y-64031000D01*
X109197000Y-63629000D01*
X110799000Y-63629000D01*
X110799000Y-64031000D01*
G37*
G36*
X112907000Y-64031000D02*
G01*
X111305000Y-64031000D01*
X111305000Y-63629000D01*
X112907000Y-63629000D01*
X112907000Y-64031000D01*
G37*
G36*
X129622128Y-61627364D02*
G01*
X129643209Y-61633760D01*
X129662645Y-61644148D01*
X129679676Y-61658124D01*
X129693652Y-61675155D01*
X129704040Y-61694591D01*
X129710436Y-61715672D01*
X129713200Y-61743740D01*
X129713200Y-63557460D01*
X129710436Y-63585528D01*
X129704040Y-63606609D01*
X129693652Y-63626045D01*
X129679676Y-63643076D01*
X129662645Y-63657052D01*
X129643209Y-63667440D01*
X129622128Y-63673836D01*
X129594060Y-63676600D01*
X129130340Y-63676600D01*
X129102272Y-63673836D01*
X129081191Y-63667440D01*
X129061755Y-63657052D01*
X129044724Y-63643076D01*
X129030748Y-63626045D01*
X129020360Y-63606609D01*
X129013964Y-63585528D01*
X129011200Y-63557460D01*
X129011200Y-61743740D01*
X129013964Y-61715672D01*
X129020360Y-61694591D01*
X129030748Y-61675155D01*
X129044724Y-61658124D01*
X129061755Y-61644148D01*
X129081191Y-61633760D01*
X129102272Y-61627364D01*
X129130340Y-61624600D01*
X129594060Y-61624600D01*
X129622128Y-61627364D01*
G37*
G36*
X128352128Y-61627364D02*
G01*
X128373209Y-61633760D01*
X128392645Y-61644148D01*
X128409676Y-61658124D01*
X128423652Y-61675155D01*
X128434040Y-61694591D01*
X128440436Y-61715672D01*
X128443200Y-61743740D01*
X128443200Y-63557460D01*
X128440436Y-63585528D01*
X128434040Y-63606609D01*
X128423652Y-63626045D01*
X128409676Y-63643076D01*
X128392645Y-63657052D01*
X128373209Y-63667440D01*
X128352128Y-63673836D01*
X128324060Y-63676600D01*
X127860340Y-63676600D01*
X127832272Y-63673836D01*
X127811191Y-63667440D01*
X127791755Y-63657052D01*
X127774724Y-63643076D01*
X127760748Y-63626045D01*
X127750360Y-63606609D01*
X127743964Y-63585528D01*
X127741200Y-63557460D01*
X127741200Y-61743740D01*
X127743964Y-61715672D01*
X127750360Y-61694591D01*
X127760748Y-61675155D01*
X127774724Y-61658124D01*
X127791755Y-61644148D01*
X127811191Y-61633760D01*
X127832272Y-61627364D01*
X127860340Y-61624600D01*
X128324060Y-61624600D01*
X128352128Y-61627364D01*
G37*
G36*
X127082128Y-61627364D02*
G01*
X127103209Y-61633760D01*
X127122645Y-61644148D01*
X127139676Y-61658124D01*
X127153652Y-61675155D01*
X127164040Y-61694591D01*
X127170436Y-61715672D01*
X127173200Y-61743740D01*
X127173200Y-63557460D01*
X127170436Y-63585528D01*
X127164040Y-63606609D01*
X127153652Y-63626045D01*
X127139676Y-63643076D01*
X127122645Y-63657052D01*
X127103209Y-63667440D01*
X127082128Y-63673836D01*
X127054060Y-63676600D01*
X126590340Y-63676600D01*
X126562272Y-63673836D01*
X126541191Y-63667440D01*
X126521755Y-63657052D01*
X126504724Y-63643076D01*
X126490748Y-63626045D01*
X126480360Y-63606609D01*
X126473964Y-63585528D01*
X126471200Y-63557460D01*
X126471200Y-61743740D01*
X126473964Y-61715672D01*
X126480360Y-61694591D01*
X126490748Y-61675155D01*
X126504724Y-61658124D01*
X126521755Y-61644148D01*
X126541191Y-61633760D01*
X126562272Y-61627364D01*
X126590340Y-61624600D01*
X127054060Y-61624600D01*
X127082128Y-61627364D01*
G37*
G36*
X125812128Y-61627364D02*
G01*
X125833209Y-61633760D01*
X125852645Y-61644148D01*
X125869676Y-61658124D01*
X125883652Y-61675155D01*
X125894040Y-61694591D01*
X125900436Y-61715672D01*
X125903200Y-61743740D01*
X125903200Y-63557460D01*
X125900436Y-63585528D01*
X125894040Y-63606609D01*
X125883652Y-63626045D01*
X125869676Y-63643076D01*
X125852645Y-63657052D01*
X125833209Y-63667440D01*
X125812128Y-63673836D01*
X125784060Y-63676600D01*
X125320340Y-63676600D01*
X125292272Y-63673836D01*
X125271191Y-63667440D01*
X125251755Y-63657052D01*
X125234724Y-63643076D01*
X125220748Y-63626045D01*
X125210360Y-63606609D01*
X125203964Y-63585528D01*
X125201200Y-63557460D01*
X125201200Y-61743740D01*
X125203964Y-61715672D01*
X125210360Y-61694591D01*
X125220748Y-61675155D01*
X125234724Y-61658124D01*
X125251755Y-61644148D01*
X125271191Y-61633760D01*
X125292272Y-61627364D01*
X125320340Y-61624600D01*
X125784060Y-61624600D01*
X125812128Y-61627364D01*
G37*
G36*
X70844600Y-63281800D02*
G01*
X69242600Y-63281800D01*
X69242600Y-62879800D01*
X70844600Y-62879800D01*
X70844600Y-63281800D01*
G37*
G36*
X81944600Y-63281800D02*
G01*
X80342600Y-63281800D01*
X80342600Y-62879800D01*
X81944600Y-62879800D01*
X81944600Y-63281800D01*
G37*
G36*
X95203400Y-63281800D02*
G01*
X93601400Y-63281800D01*
X93601400Y-62879800D01*
X95203400Y-62879800D01*
X95203400Y-63281800D01*
G37*
G36*
X84103400Y-63281800D02*
G01*
X82501400Y-63281800D01*
X82501400Y-62879800D01*
X84103400Y-62879800D01*
X84103400Y-63281800D01*
G37*
G36*
X110799000Y-63231000D02*
G01*
X109197000Y-63231000D01*
X109197000Y-62829000D01*
X110799000Y-62829000D01*
X110799000Y-63231000D01*
G37*
G36*
X99699000Y-63231000D02*
G01*
X98097000Y-63231000D01*
X98097000Y-62829000D01*
X99699000Y-62829000D01*
X99699000Y-63231000D01*
G37*
G36*
X112907000Y-63231000D02*
G01*
X111305000Y-63231000D01*
X111305000Y-62829000D01*
X112907000Y-62829000D01*
X112907000Y-63231000D01*
G37*
G36*
X124007000Y-63231000D02*
G01*
X122405000Y-63231000D01*
X122405000Y-62829000D01*
X124007000Y-62829000D01*
X124007000Y-63231000D01*
G37*
G36*
X84103400Y-62481800D02*
G01*
X82501400Y-62481800D01*
X82501400Y-62079800D01*
X84103400Y-62079800D01*
X84103400Y-62481800D01*
G37*
G36*
X81944600Y-62481800D02*
G01*
X80342600Y-62481800D01*
X80342600Y-62079800D01*
X81944600Y-62079800D01*
X81944600Y-62481800D01*
G37*
G36*
X70844600Y-62481800D02*
G01*
X69242600Y-62481800D01*
X69242600Y-62079800D01*
X70844600Y-62079800D01*
X70844600Y-62481800D01*
G37*
G36*
X95203400Y-62481800D02*
G01*
X93601400Y-62481800D01*
X93601400Y-62079800D01*
X95203400Y-62079800D01*
X95203400Y-62481800D01*
G37*
G36*
X112907000Y-62431000D02*
G01*
X111305000Y-62431000D01*
X111305000Y-62029000D01*
X112907000Y-62029000D01*
X112907000Y-62431000D01*
G37*
G36*
X124007000Y-62431000D02*
G01*
X122405000Y-62431000D01*
X122405000Y-62029000D01*
X124007000Y-62029000D01*
X124007000Y-62431000D01*
G37*
G36*
X110799000Y-62431000D02*
G01*
X109197000Y-62431000D01*
X109197000Y-62029000D01*
X110799000Y-62029000D01*
X110799000Y-62431000D01*
G37*
G36*
X99699000Y-62431000D02*
G01*
X98097000Y-62431000D01*
X98097000Y-62029000D01*
X99699000Y-62029000D01*
X99699000Y-62431000D01*
G37*
G36*
X84103400Y-61681800D02*
G01*
X82501400Y-61681800D01*
X82501400Y-61279800D01*
X84103400Y-61279800D01*
X84103400Y-61681800D01*
G37*
G36*
X95203400Y-61681800D02*
G01*
X93601400Y-61681800D01*
X93601400Y-61279800D01*
X95203400Y-61279800D01*
X95203400Y-61681800D01*
G37*
G36*
X81944600Y-61681800D02*
G01*
X80342600Y-61681800D01*
X80342600Y-61279800D01*
X81944600Y-61279800D01*
X81944600Y-61681800D01*
G37*
G36*
X70844600Y-61681800D02*
G01*
X69242600Y-61681800D01*
X69242600Y-61279800D01*
X70844600Y-61279800D01*
X70844600Y-61681800D01*
G37*
G36*
X110799000Y-61631000D02*
G01*
X109197000Y-61631000D01*
X109197000Y-61229000D01*
X110799000Y-61229000D01*
X110799000Y-61631000D01*
G37*
G36*
X112907000Y-61631000D02*
G01*
X111305000Y-61631000D01*
X111305000Y-61229000D01*
X112907000Y-61229000D01*
X112907000Y-61631000D01*
G37*
G36*
X99699000Y-61631000D02*
G01*
X98097000Y-61631000D01*
X98097000Y-61229000D01*
X99699000Y-61229000D01*
X99699000Y-61631000D01*
G37*
G36*
X124007000Y-61631000D02*
G01*
X122405000Y-61631000D01*
X122405000Y-61229000D01*
X124007000Y-61229000D01*
X124007000Y-61631000D01*
G37*
G36*
X95203400Y-60881800D02*
G01*
X93601400Y-60881800D01*
X93601400Y-60479800D01*
X95203400Y-60479800D01*
X95203400Y-60881800D01*
G37*
G36*
X84103400Y-60881800D02*
G01*
X82501400Y-60881800D01*
X82501400Y-60479800D01*
X84103400Y-60479800D01*
X84103400Y-60881800D01*
G37*
G36*
X81944600Y-60881800D02*
G01*
X80342600Y-60881800D01*
X80342600Y-60479800D01*
X81944600Y-60479800D01*
X81944600Y-60881800D01*
G37*
G36*
X70844600Y-60881800D02*
G01*
X69242600Y-60881800D01*
X69242600Y-60479800D01*
X70844600Y-60479800D01*
X70844600Y-60881800D01*
G37*
G36*
X99699000Y-60831000D02*
G01*
X98097000Y-60831000D01*
X98097000Y-60429000D01*
X99699000Y-60429000D01*
X99699000Y-60831000D01*
G37*
G36*
X112907000Y-60831000D02*
G01*
X111305000Y-60831000D01*
X111305000Y-60429000D01*
X112907000Y-60429000D01*
X112907000Y-60831000D01*
G37*
G36*
X124007000Y-60831000D02*
G01*
X122405000Y-60831000D01*
X122405000Y-60429000D01*
X124007000Y-60429000D01*
X124007000Y-60831000D01*
G37*
G36*
X110799000Y-60831000D02*
G01*
X109197000Y-60831000D01*
X109197000Y-60429000D01*
X110799000Y-60429000D01*
X110799000Y-60831000D01*
G37*
G36*
X95203400Y-60081800D02*
G01*
X93601400Y-60081800D01*
X93601400Y-59679800D01*
X95203400Y-59679800D01*
X95203400Y-60081800D01*
G37*
G36*
X84103400Y-60081800D02*
G01*
X82501400Y-60081800D01*
X82501400Y-59679800D01*
X84103400Y-59679800D01*
X84103400Y-60081800D01*
G37*
G36*
X70844600Y-60081800D02*
G01*
X69242600Y-60081800D01*
X69242600Y-59679800D01*
X70844600Y-59679800D01*
X70844600Y-60081800D01*
G37*
G36*
X81944600Y-60081800D02*
G01*
X80342600Y-60081800D01*
X80342600Y-59679800D01*
X81944600Y-59679800D01*
X81944600Y-60081800D01*
G37*
G36*
X112907000Y-60031000D02*
G01*
X111305000Y-60031000D01*
X111305000Y-59629000D01*
X112907000Y-59629000D01*
X112907000Y-60031000D01*
G37*
G36*
X99699000Y-60031000D02*
G01*
X98097000Y-60031000D01*
X98097000Y-59629000D01*
X99699000Y-59629000D01*
X99699000Y-60031000D01*
G37*
G36*
X110799000Y-60031000D02*
G01*
X109197000Y-60031000D01*
X109197000Y-59629000D01*
X110799000Y-59629000D01*
X110799000Y-60031000D01*
G37*
G36*
X124007000Y-60031000D02*
G01*
X122405000Y-60031000D01*
X122405000Y-59629000D01*
X124007000Y-59629000D01*
X124007000Y-60031000D01*
G37*
G36*
X84103400Y-59281800D02*
G01*
X82501400Y-59281800D01*
X82501400Y-58879800D01*
X84103400Y-58879800D01*
X84103400Y-59281800D01*
G37*
G36*
X95203400Y-59281800D02*
G01*
X93601400Y-59281800D01*
X93601400Y-58879800D01*
X95203400Y-58879800D01*
X95203400Y-59281800D01*
G37*
G36*
X81944600Y-59281800D02*
G01*
X80342600Y-59281800D01*
X80342600Y-58879800D01*
X81944600Y-58879800D01*
X81944600Y-59281800D01*
G37*
G36*
X70844600Y-59281800D02*
G01*
X69242600Y-59281800D01*
X69242600Y-58879800D01*
X70844600Y-58879800D01*
X70844600Y-59281800D01*
G37*
G36*
X112907000Y-59231000D02*
G01*
X111305000Y-59231000D01*
X111305000Y-58829000D01*
X112907000Y-58829000D01*
X112907000Y-59231000D01*
G37*
G36*
X124007000Y-59231000D02*
G01*
X122405000Y-59231000D01*
X122405000Y-58829000D01*
X124007000Y-58829000D01*
X124007000Y-59231000D01*
G37*
G36*
X110799000Y-59231000D02*
G01*
X109197000Y-59231000D01*
X109197000Y-58829000D01*
X110799000Y-58829000D01*
X110799000Y-59231000D01*
G37*
G36*
X99699000Y-59231000D02*
G01*
X98097000Y-59231000D01*
X98097000Y-58829000D01*
X99699000Y-58829000D01*
X99699000Y-59231000D01*
G37*
G36*
X81944600Y-58481800D02*
G01*
X80342600Y-58481800D01*
X80342600Y-58079800D01*
X81944600Y-58079800D01*
X81944600Y-58481800D01*
G37*
G36*
X70844600Y-58481800D02*
G01*
X69242600Y-58481800D01*
X69242600Y-58079800D01*
X70844600Y-58079800D01*
X70844600Y-58481800D01*
G37*
G36*
X84103400Y-58481800D02*
G01*
X82501400Y-58481800D01*
X82501400Y-58079800D01*
X84103400Y-58079800D01*
X84103400Y-58481800D01*
G37*
G36*
X95203400Y-58481800D02*
G01*
X93601400Y-58481800D01*
X93601400Y-58079800D01*
X95203400Y-58079800D01*
X95203400Y-58481800D01*
G37*
G36*
X99699000Y-58431000D02*
G01*
X98097000Y-58431000D01*
X98097000Y-58029000D01*
X99699000Y-58029000D01*
X99699000Y-58431000D01*
G37*
G36*
X112907000Y-58431000D02*
G01*
X111305000Y-58431000D01*
X111305000Y-58029000D01*
X112907000Y-58029000D01*
X112907000Y-58431000D01*
G37*
G36*
X110799000Y-58431000D02*
G01*
X109197000Y-58431000D01*
X109197000Y-58029000D01*
X110799000Y-58029000D01*
X110799000Y-58431000D01*
G37*
G36*
X124007000Y-58431000D02*
G01*
X122405000Y-58431000D01*
X122405000Y-58029000D01*
X124007000Y-58029000D01*
X124007000Y-58431000D01*
G37*
G36*
X84103400Y-57681800D02*
G01*
X82501400Y-57681800D01*
X82501400Y-57279800D01*
X84103400Y-57279800D01*
X84103400Y-57681800D01*
G37*
G36*
X81944600Y-57681800D02*
G01*
X80342600Y-57681800D01*
X80342600Y-57279800D01*
X81944600Y-57279800D01*
X81944600Y-57681800D01*
G37*
G36*
X70844600Y-57681800D02*
G01*
X69242600Y-57681800D01*
X69242600Y-57279800D01*
X70844600Y-57279800D01*
X70844600Y-57681800D01*
G37*
G36*
X95203400Y-57681800D02*
G01*
X93601400Y-57681800D01*
X93601400Y-57279800D01*
X95203400Y-57279800D01*
X95203400Y-57681800D01*
G37*
G36*
X112907000Y-57631000D02*
G01*
X111305000Y-57631000D01*
X111305000Y-57229000D01*
X112907000Y-57229000D01*
X112907000Y-57631000D01*
G37*
G36*
X124007000Y-57631000D02*
G01*
X122405000Y-57631000D01*
X122405000Y-57229000D01*
X124007000Y-57229000D01*
X124007000Y-57631000D01*
G37*
G36*
X99699000Y-57631000D02*
G01*
X98097000Y-57631000D01*
X98097000Y-57229000D01*
X99699000Y-57229000D01*
X99699000Y-57631000D01*
G37*
G36*
X110799000Y-57631000D02*
G01*
X109197000Y-57631000D01*
X109197000Y-57229000D01*
X110799000Y-57229000D01*
X110799000Y-57631000D01*
G37*
G36*
X81944600Y-56881800D02*
G01*
X80342600Y-56881800D01*
X80342600Y-56479800D01*
X81944600Y-56479800D01*
X81944600Y-56881800D01*
G37*
G36*
X95203400Y-56881800D02*
G01*
X93601400Y-56881800D01*
X93601400Y-56479800D01*
X95203400Y-56479800D01*
X95203400Y-56881800D01*
G37*
G36*
X84103400Y-56881800D02*
G01*
X82501400Y-56881800D01*
X82501400Y-56479800D01*
X84103400Y-56479800D01*
X84103400Y-56881800D01*
G37*
G36*
X70844600Y-56881800D02*
G01*
X69242600Y-56881800D01*
X69242600Y-56479800D01*
X70844600Y-56479800D01*
X70844600Y-56881800D01*
G37*
G36*
X112907000Y-56831000D02*
G01*
X111305000Y-56831000D01*
X111305000Y-56429000D01*
X112907000Y-56429000D01*
X112907000Y-56831000D01*
G37*
G36*
X110799000Y-56831000D02*
G01*
X109197000Y-56831000D01*
X109197000Y-56429000D01*
X110799000Y-56429000D01*
X110799000Y-56831000D01*
G37*
G36*
X99699000Y-56831000D02*
G01*
X98097000Y-56831000D01*
X98097000Y-56429000D01*
X99699000Y-56429000D01*
X99699000Y-56831000D01*
G37*
G36*
X124007000Y-56831000D02*
G01*
X122405000Y-56831000D01*
X122405000Y-56429000D01*
X124007000Y-56429000D01*
X124007000Y-56831000D01*
G37*
G36*
X95203400Y-56081800D02*
G01*
X93601400Y-56081800D01*
X93601400Y-55679800D01*
X95203400Y-55679800D01*
X95203400Y-56081800D01*
G37*
G36*
X84103400Y-56081800D02*
G01*
X82501400Y-56081800D01*
X82501400Y-55679800D01*
X84103400Y-55679800D01*
X84103400Y-56081800D01*
G37*
G36*
X81944600Y-56081800D02*
G01*
X80342600Y-56081800D01*
X80342600Y-55679800D01*
X81944600Y-55679800D01*
X81944600Y-56081800D01*
G37*
G36*
X70844600Y-56081800D02*
G01*
X69242600Y-56081800D01*
X69242600Y-55679800D01*
X70844600Y-55679800D01*
X70844600Y-56081800D01*
G37*
G36*
X112907000Y-56031000D02*
G01*
X111305000Y-56031000D01*
X111305000Y-55629000D01*
X112907000Y-55629000D01*
X112907000Y-56031000D01*
G37*
G36*
X99699000Y-56031000D02*
G01*
X98097000Y-56031000D01*
X98097000Y-55629000D01*
X99699000Y-55629000D01*
X99699000Y-56031000D01*
G37*
G36*
X110799000Y-56031000D02*
G01*
X109197000Y-56031000D01*
X109197000Y-55629000D01*
X110799000Y-55629000D01*
X110799000Y-56031000D01*
G37*
G36*
X124007000Y-56031000D02*
G01*
X122405000Y-56031000D01*
X122405000Y-55629000D01*
X124007000Y-55629000D01*
X124007000Y-56031000D01*
G37*
G36*
X68080899Y-54151445D02*
G01*
X68118395Y-54162820D01*
X68152954Y-54181292D01*
X68183247Y-54206153D01*
X68208108Y-54236446D01*
X68226580Y-54271005D01*
X68237955Y-54308501D01*
X68242400Y-54353638D01*
X68242400Y-55092362D01*
X68237955Y-55137499D01*
X68226580Y-55174995D01*
X68208108Y-55209554D01*
X68183247Y-55239847D01*
X68152954Y-55264708D01*
X68118395Y-55283180D01*
X68080899Y-55294555D01*
X68035762Y-55299000D01*
X67397038Y-55299000D01*
X67351901Y-55294555D01*
X67314405Y-55283180D01*
X67279846Y-55264708D01*
X67249553Y-55239847D01*
X67224692Y-55209554D01*
X67206220Y-55174995D01*
X67194845Y-55137499D01*
X67190400Y-55092362D01*
X67190400Y-54353638D01*
X67194845Y-54308501D01*
X67206220Y-54271005D01*
X67224692Y-54236446D01*
X67249553Y-54206153D01*
X67279846Y-54181292D01*
X67314405Y-54162820D01*
X67351901Y-54151445D01*
X67397038Y-54147000D01*
X68035762Y-54147000D01*
X68080899Y-54151445D01*
G37*
G36*
X70844600Y-55281800D02*
G01*
X69242600Y-55281800D01*
X69242600Y-54879800D01*
X70844600Y-54879800D01*
X70844600Y-55281800D01*
G37*
G36*
X81944600Y-55281800D02*
G01*
X80342600Y-55281800D01*
X80342600Y-54879800D01*
X81944600Y-54879800D01*
X81944600Y-55281800D01*
G37*
G36*
X84103400Y-55281800D02*
G01*
X82501400Y-55281800D01*
X82501400Y-54879800D01*
X84103400Y-54879800D01*
X84103400Y-55281800D01*
G37*
G36*
X95203400Y-55281800D02*
G01*
X93601400Y-55281800D01*
X93601400Y-54879800D01*
X95203400Y-54879800D01*
X95203400Y-55281800D01*
G37*
G36*
X99699000Y-55231000D02*
G01*
X98097000Y-55231000D01*
X98097000Y-54829000D01*
X99699000Y-54829000D01*
X99699000Y-55231000D01*
G37*
G36*
X110799000Y-55231000D02*
G01*
X109197000Y-55231000D01*
X109197000Y-54829000D01*
X110799000Y-54829000D01*
X110799000Y-55231000D01*
G37*
G36*
X124007000Y-55231000D02*
G01*
X122405000Y-55231000D01*
X122405000Y-54829000D01*
X124007000Y-54829000D01*
X124007000Y-55231000D01*
G37*
G36*
X112907000Y-55231000D02*
G01*
X111305000Y-55231000D01*
X111305000Y-54829000D01*
X112907000Y-54829000D01*
X112907000Y-55231000D01*
G37*
G36*
X96935299Y-54038445D02*
G01*
X96972795Y-54049820D01*
X97007354Y-54068292D01*
X97037647Y-54093153D01*
X97062508Y-54123446D01*
X97080980Y-54158005D01*
X97092355Y-54195501D01*
X97096800Y-54240638D01*
X97096800Y-54979362D01*
X97092355Y-55024499D01*
X97080980Y-55061995D01*
X97062508Y-55096554D01*
X97037647Y-55126847D01*
X97007354Y-55151708D01*
X96972795Y-55170180D01*
X96935299Y-55181555D01*
X96890162Y-55186000D01*
X96251438Y-55186000D01*
X96206301Y-55181555D01*
X96168805Y-55170180D01*
X96134246Y-55151708D01*
X96103953Y-55126847D01*
X96079092Y-55096554D01*
X96060620Y-55061995D01*
X96049245Y-55024499D01*
X96044800Y-54979362D01*
X96044800Y-54240638D01*
X96049245Y-54195501D01*
X96060620Y-54158005D01*
X96079092Y-54123446D01*
X96103953Y-54093153D01*
X96134246Y-54068292D01*
X96168805Y-54049820D01*
X96206301Y-54038445D01*
X96251438Y-54034000D01*
X96890162Y-54034000D01*
X96935299Y-54038445D01*
G37*
G36*
X95203400Y-54481800D02*
G01*
X93601400Y-54481800D01*
X93601400Y-54079800D01*
X95203400Y-54079800D01*
X95203400Y-54481800D01*
G37*
G36*
X70844600Y-54481800D02*
G01*
X69242600Y-54481800D01*
X69242600Y-54079800D01*
X70844600Y-54079800D01*
X70844600Y-54481800D01*
G37*
G36*
X84103400Y-54481800D02*
G01*
X82501400Y-54481800D01*
X82501400Y-54079800D01*
X84103400Y-54079800D01*
X84103400Y-54481800D01*
G37*
G36*
X81944600Y-54481800D02*
G01*
X80342600Y-54481800D01*
X80342600Y-54079800D01*
X81944600Y-54079800D01*
X81944600Y-54481800D01*
G37*
G36*
X110799000Y-54431000D02*
G01*
X109197000Y-54431000D01*
X109197000Y-54029000D01*
X110799000Y-54029000D01*
X110799000Y-54431000D01*
G37*
G36*
X124007000Y-54431000D02*
G01*
X122405000Y-54431000D01*
X122405000Y-54029000D01*
X124007000Y-54029000D01*
X124007000Y-54431000D01*
G37*
G36*
X112907000Y-54431000D02*
G01*
X111305000Y-54431000D01*
X111305000Y-54029000D01*
X112907000Y-54029000D01*
X112907000Y-54431000D01*
G37*
G36*
X99699000Y-54431000D02*
G01*
X98097000Y-54431000D01*
X98097000Y-54029000D01*
X99699000Y-54029000D01*
X99699000Y-54431000D01*
G37*
G36*
X128594299Y-52818445D02*
G01*
X128631795Y-52829820D01*
X128666354Y-52848292D01*
X128696647Y-52873153D01*
X128721508Y-52903446D01*
X128739980Y-52938005D01*
X128751355Y-52975501D01*
X128755800Y-53020638D01*
X128755800Y-53659362D01*
X128751355Y-53704499D01*
X128739980Y-53741995D01*
X128721508Y-53776554D01*
X128696647Y-53806847D01*
X128666354Y-53831708D01*
X128631795Y-53850180D01*
X128594299Y-53861555D01*
X128549162Y-53866000D01*
X127810438Y-53866000D01*
X127765301Y-53861555D01*
X127727805Y-53850180D01*
X127693246Y-53831708D01*
X127662953Y-53806847D01*
X127638092Y-53776554D01*
X127619620Y-53741995D01*
X127608245Y-53704499D01*
X127603800Y-53659362D01*
X127603800Y-53020638D01*
X127608245Y-52975501D01*
X127619620Y-52938005D01*
X127638092Y-52903446D01*
X127662953Y-52873153D01*
X127693246Y-52848292D01*
X127727805Y-52829820D01*
X127765301Y-52818445D01*
X127810438Y-52814000D01*
X128549162Y-52814000D01*
X128594299Y-52818445D01*
G37*
G36*
X126844299Y-52818445D02*
G01*
X126881795Y-52829820D01*
X126916354Y-52848292D01*
X126946647Y-52873153D01*
X126971508Y-52903446D01*
X126989980Y-52938005D01*
X127001355Y-52975501D01*
X127005800Y-53020638D01*
X127005800Y-53659362D01*
X127001355Y-53704499D01*
X126989980Y-53741995D01*
X126971508Y-53776554D01*
X126946647Y-53806847D01*
X126916354Y-53831708D01*
X126881795Y-53850180D01*
X126844299Y-53861555D01*
X126799162Y-53866000D01*
X126060438Y-53866000D01*
X126015301Y-53861555D01*
X125977805Y-53850180D01*
X125943246Y-53831708D01*
X125912953Y-53806847D01*
X125888092Y-53776554D01*
X125869620Y-53741995D01*
X125858245Y-53704499D01*
X125853800Y-53659362D01*
X125853800Y-53020638D01*
X125858245Y-52975501D01*
X125869620Y-52938005D01*
X125888092Y-52903446D01*
X125912953Y-52873153D01*
X125943246Y-52848292D01*
X125977805Y-52829820D01*
X126015301Y-52818445D01*
X126060438Y-52814000D01*
X126799162Y-52814000D01*
X126844299Y-52818445D01*
G37*
G36*
X70844600Y-53681800D02*
G01*
X69242600Y-53681800D01*
X69242600Y-53279800D01*
X70844600Y-53279800D01*
X70844600Y-53681800D01*
G37*
G36*
X81944600Y-53681800D02*
G01*
X80342600Y-53681800D01*
X80342600Y-53279800D01*
X81944600Y-53279800D01*
X81944600Y-53681800D01*
G37*
G36*
X84103400Y-53681800D02*
G01*
X82501400Y-53681800D01*
X82501400Y-53279800D01*
X84103400Y-53279800D01*
X84103400Y-53681800D01*
G37*
G36*
X95203400Y-53681800D02*
G01*
X93601400Y-53681800D01*
X93601400Y-53279800D01*
X95203400Y-53279800D01*
X95203400Y-53681800D01*
G37*
G36*
X124007000Y-53631000D02*
G01*
X122405000Y-53631000D01*
X122405000Y-53229000D01*
X124007000Y-53229000D01*
X124007000Y-53631000D01*
G37*
G36*
X99699000Y-53631000D02*
G01*
X98097000Y-53631000D01*
X98097000Y-53229000D01*
X99699000Y-53229000D01*
X99699000Y-53631000D01*
G37*
G36*
X110799000Y-53631000D02*
G01*
X109197000Y-53631000D01*
X109197000Y-53229000D01*
X110799000Y-53229000D01*
X110799000Y-53631000D01*
G37*
G36*
X112907000Y-53631000D02*
G01*
X111305000Y-53631000D01*
X111305000Y-53229000D01*
X112907000Y-53229000D01*
X112907000Y-53631000D01*
G37*
G36*
X68080899Y-52401445D02*
G01*
X68118395Y-52412820D01*
X68152954Y-52431292D01*
X68183247Y-52456153D01*
X68208108Y-52486446D01*
X68226580Y-52521005D01*
X68237955Y-52558501D01*
X68242400Y-52603638D01*
X68242400Y-53342362D01*
X68237955Y-53387499D01*
X68226580Y-53424995D01*
X68208108Y-53459554D01*
X68183247Y-53489847D01*
X68152954Y-53514708D01*
X68118395Y-53533180D01*
X68080899Y-53544555D01*
X68035762Y-53549000D01*
X67397038Y-53549000D01*
X67351901Y-53544555D01*
X67314405Y-53533180D01*
X67279846Y-53514708D01*
X67249553Y-53489847D01*
X67224692Y-53459554D01*
X67206220Y-53424995D01*
X67194845Y-53387499D01*
X67190400Y-53342362D01*
X67190400Y-52603638D01*
X67194845Y-52558501D01*
X67206220Y-52521005D01*
X67224692Y-52486446D01*
X67249553Y-52456153D01*
X67279846Y-52431292D01*
X67314405Y-52412820D01*
X67351901Y-52401445D01*
X67397038Y-52397000D01*
X68035762Y-52397000D01*
X68080899Y-52401445D01*
G37*
G36*
X96935299Y-52288445D02*
G01*
X96972795Y-52299820D01*
X97007354Y-52318292D01*
X97037647Y-52343153D01*
X97062508Y-52373446D01*
X97080980Y-52408005D01*
X97092355Y-52445501D01*
X97096800Y-52490638D01*
X97096800Y-53229362D01*
X97092355Y-53274499D01*
X97080980Y-53311995D01*
X97062508Y-53346554D01*
X97037647Y-53376847D01*
X97007354Y-53401708D01*
X96972795Y-53420180D01*
X96935299Y-53431555D01*
X96890162Y-53436000D01*
X96251438Y-53436000D01*
X96206301Y-53431555D01*
X96168805Y-53420180D01*
X96134246Y-53401708D01*
X96103953Y-53376847D01*
X96079092Y-53346554D01*
X96060620Y-53311995D01*
X96049245Y-53274499D01*
X96044800Y-53229362D01*
X96044800Y-52490638D01*
X96049245Y-52445501D01*
X96060620Y-52408005D01*
X96079092Y-52373446D01*
X96103953Y-52343153D01*
X96134246Y-52318292D01*
X96168805Y-52299820D01*
X96206301Y-52288445D01*
X96251438Y-52284000D01*
X96890162Y-52284000D01*
X96935299Y-52288445D01*
G37*
G36*
X81944600Y-52881800D02*
G01*
X80342600Y-52881800D01*
X80342600Y-52479800D01*
X81944600Y-52479800D01*
X81944600Y-52881800D01*
G37*
G36*
X70844600Y-52881800D02*
G01*
X69242600Y-52881800D01*
X69242600Y-52479800D01*
X70844600Y-52479800D01*
X70844600Y-52881800D01*
G37*
G36*
X84103400Y-52881800D02*
G01*
X82501400Y-52881800D01*
X82501400Y-52479800D01*
X84103400Y-52479800D01*
X84103400Y-52881800D01*
G37*
G36*
X95203400Y-52881800D02*
G01*
X93601400Y-52881800D01*
X93601400Y-52479800D01*
X95203400Y-52479800D01*
X95203400Y-52881800D01*
G37*
G36*
X99699000Y-52831000D02*
G01*
X98097000Y-52831000D01*
X98097000Y-52429000D01*
X99699000Y-52429000D01*
X99699000Y-52831000D01*
G37*
G36*
X110799000Y-52831000D02*
G01*
X109197000Y-52831000D01*
X109197000Y-52429000D01*
X110799000Y-52429000D01*
X110799000Y-52831000D01*
G37*
G36*
X124007000Y-52831000D02*
G01*
X122405000Y-52831000D01*
X122405000Y-52429000D01*
X124007000Y-52429000D01*
X124007000Y-52831000D01*
G37*
G36*
X112907000Y-52831000D02*
G01*
X111305000Y-52831000D01*
X111305000Y-52429000D01*
X112907000Y-52429000D01*
X112907000Y-52831000D01*
G37*
M02*
