G04 #@! TF.GenerationSoftware,KiCad,Pcbnew,5.1.5*
G04 #@! TF.CreationDate,2020-05-24T12:25:34+08:00*
G04 #@! TF.ProjectId,EDO RAM Stick Recreated,45444f20-5241-44d2-9053-7469636b2052,01*
G04 #@! TF.SameCoordinates,Original*
G04 #@! TF.FileFunction,Legend,Top*
G04 #@! TF.FilePolarity,Positive*
%FSLAX46Y46*%
G04 Gerber Fmt 4.6, Leading zero omitted, Abs format (unit mm)*
G04 Created by KiCad (PCBNEW 5.1.5) date 2020-05-24 12:25:34*
%MOMM*%
%LPD*%
G04 APERTURE LIST*
%ADD10C,0.120000*%
%ADD11C,0.150000*%
G04 APERTURE END LIST*
D10*
X124897200Y-65125600D02*
X124897200Y-68575600D01*
X124897200Y-65125600D02*
X124897200Y-63175600D01*
X130017200Y-65125600D02*
X130017200Y-67075600D01*
X130017200Y-65125600D02*
X130017200Y-63175600D01*
X121956000Y-71730000D02*
X120656000Y-73030000D01*
X120656000Y-73030000D02*
X114656000Y-73030000D01*
X113356000Y-71730000D02*
X113356000Y-51980000D01*
X113356000Y-51980000D02*
X121956000Y-51980000D01*
X121956000Y-51980000D02*
X121956000Y-71730000D01*
X114656000Y-73030000D02*
X113356000Y-71730000D01*
X108748000Y-71730000D02*
X107448000Y-73030000D01*
X107448000Y-73030000D02*
X101448000Y-73030000D01*
X100148000Y-71730000D02*
X100148000Y-51980000D01*
X100148000Y-51980000D02*
X108748000Y-51980000D01*
X108748000Y-51980000D02*
X108748000Y-71730000D01*
X101448000Y-73030000D02*
X100148000Y-71730000D01*
X93152400Y-71780800D02*
X91852400Y-73080800D01*
X91852400Y-73080800D02*
X85852400Y-73080800D01*
X84552400Y-71780800D02*
X84552400Y-52030800D01*
X84552400Y-52030800D02*
X93152400Y-52030800D01*
X93152400Y-52030800D02*
X93152400Y-71780800D01*
X85852400Y-73080800D02*
X84552400Y-71780800D01*
X72593600Y-73080800D02*
X71293600Y-71780800D01*
X79893600Y-52030800D02*
X79893600Y-71780800D01*
X71293600Y-52030800D02*
X79893600Y-52030800D01*
X71293600Y-71780800D02*
X71293600Y-52030800D01*
X78593600Y-73080800D02*
X72593600Y-73080800D01*
X79893600Y-71780800D02*
X78593600Y-73080800D01*
X126320733Y-71020400D02*
X126663267Y-71020400D01*
X126320733Y-70000400D02*
X126663267Y-70000400D01*
X127133533Y-53850000D02*
X127476067Y-53850000D01*
X127133533Y-52830000D02*
X127476067Y-52830000D01*
X97131600Y-70478467D02*
X97131600Y-70135933D01*
X96111600Y-70478467D02*
X96111600Y-70135933D01*
X97080800Y-53906267D02*
X97080800Y-53563733D01*
X96060800Y-53906267D02*
X96060800Y-53563733D01*
X67257200Y-68256333D02*
X67257200Y-68598867D01*
X68277200Y-68256333D02*
X68277200Y-68598867D01*
X68226400Y-54019267D02*
X68226400Y-53676733D01*
X67206400Y-54019267D02*
X67206400Y-53676733D01*
D11*
X130313180Y-65735104D02*
X131122704Y-65735104D01*
X131217942Y-65687485D01*
X131265561Y-65639866D01*
X131313180Y-65544628D01*
X131313180Y-65354152D01*
X131265561Y-65258914D01*
X131217942Y-65211295D01*
X131122704Y-65163676D01*
X130313180Y-65163676D01*
X131313180Y-64639866D02*
X131313180Y-64449390D01*
X131265561Y-64354152D01*
X131217942Y-64306533D01*
X131075085Y-64211295D01*
X130884609Y-64163676D01*
X130503657Y-64163676D01*
X130408419Y-64211295D01*
X130360800Y-64258914D01*
X130313180Y-64354152D01*
X130313180Y-64544628D01*
X130360800Y-64639866D01*
X130408419Y-64687485D01*
X130503657Y-64735104D01*
X130741752Y-64735104D01*
X130836990Y-64687485D01*
X130884609Y-64639866D01*
X130932228Y-64544628D01*
X130932228Y-64354152D01*
X130884609Y-64258914D01*
X130836990Y-64211295D01*
X130741752Y-64163676D01*
X111344095Y-72482380D02*
X111344095Y-73291904D01*
X111391714Y-73387142D01*
X111439333Y-73434761D01*
X111534571Y-73482380D01*
X111725047Y-73482380D01*
X111820285Y-73434761D01*
X111867904Y-73387142D01*
X111915523Y-73291904D01*
X111915523Y-72482380D01*
X112820285Y-72815714D02*
X112820285Y-73482380D01*
X112582190Y-72434761D02*
X112344095Y-73149047D01*
X112963142Y-73149047D01*
X98136095Y-72482380D02*
X98136095Y-73291904D01*
X98183714Y-73387142D01*
X98231333Y-73434761D01*
X98326571Y-73482380D01*
X98517047Y-73482380D01*
X98612285Y-73434761D01*
X98659904Y-73387142D01*
X98707523Y-73291904D01*
X98707523Y-72482380D01*
X99088476Y-72482380D02*
X99707523Y-72482380D01*
X99374190Y-72863333D01*
X99517047Y-72863333D01*
X99612285Y-72910952D01*
X99659904Y-72958571D01*
X99707523Y-73053809D01*
X99707523Y-73291904D01*
X99659904Y-73387142D01*
X99612285Y-73434761D01*
X99517047Y-73482380D01*
X99231333Y-73482380D01*
X99136095Y-73434761D01*
X99088476Y-73387142D01*
X82540495Y-72533180D02*
X82540495Y-73342704D01*
X82588114Y-73437942D01*
X82635733Y-73485561D01*
X82730971Y-73533180D01*
X82921447Y-73533180D01*
X83016685Y-73485561D01*
X83064304Y-73437942D01*
X83111923Y-73342704D01*
X83111923Y-72533180D01*
X83540495Y-72628419D02*
X83588114Y-72580800D01*
X83683352Y-72533180D01*
X83921447Y-72533180D01*
X84016685Y-72580800D01*
X84064304Y-72628419D01*
X84111923Y-72723657D01*
X84111923Y-72818895D01*
X84064304Y-72961752D01*
X83492876Y-73533180D01*
X84111923Y-73533180D01*
X69281695Y-72533180D02*
X69281695Y-73342704D01*
X69329314Y-73437942D01*
X69376933Y-73485561D01*
X69472171Y-73533180D01*
X69662647Y-73533180D01*
X69757885Y-73485561D01*
X69805504Y-73437942D01*
X69853123Y-73342704D01*
X69853123Y-72533180D01*
X70853123Y-73533180D02*
X70281695Y-73533180D01*
X70567409Y-73533180D02*
X70567409Y-72533180D01*
X70472171Y-72676038D01*
X70376933Y-72771276D01*
X70281695Y-72818895D01*
X127564133Y-72592942D02*
X127516514Y-72640561D01*
X127373657Y-72688180D01*
X127278419Y-72688180D01*
X127135561Y-72640561D01*
X127040323Y-72545323D01*
X126992704Y-72450085D01*
X126945085Y-72259609D01*
X126945085Y-72116752D01*
X126992704Y-71926276D01*
X127040323Y-71831038D01*
X127135561Y-71735800D01*
X127278419Y-71688180D01*
X127373657Y-71688180D01*
X127516514Y-71735800D01*
X127564133Y-71783419D01*
X128421276Y-71688180D02*
X128230800Y-71688180D01*
X128135561Y-71735800D01*
X128087942Y-71783419D01*
X127992704Y-71926276D01*
X127945085Y-72116752D01*
X127945085Y-72497704D01*
X127992704Y-72592942D01*
X128040323Y-72640561D01*
X128135561Y-72688180D01*
X128326038Y-72688180D01*
X128421276Y-72640561D01*
X128468895Y-72592942D01*
X128516514Y-72497704D01*
X128516514Y-72259609D01*
X128468895Y-72164371D01*
X128421276Y-72116752D01*
X128326038Y-72069133D01*
X128135561Y-72069133D01*
X128040323Y-72116752D01*
X127992704Y-72164371D01*
X127945085Y-72259609D01*
X128306533Y-55271942D02*
X128258914Y-55319561D01*
X128116057Y-55367180D01*
X128020819Y-55367180D01*
X127877961Y-55319561D01*
X127782723Y-55224323D01*
X127735104Y-55129085D01*
X127687485Y-54938609D01*
X127687485Y-54795752D01*
X127735104Y-54605276D01*
X127782723Y-54510038D01*
X127877961Y-54414800D01*
X128020819Y-54367180D01*
X128116057Y-54367180D01*
X128258914Y-54414800D01*
X128306533Y-54462419D01*
X129211295Y-54367180D02*
X128735104Y-54367180D01*
X128687485Y-54843371D01*
X128735104Y-54795752D01*
X128830342Y-54748133D01*
X129068438Y-54748133D01*
X129163676Y-54795752D01*
X129211295Y-54843371D01*
X129258914Y-54938609D01*
X129258914Y-55176704D01*
X129211295Y-55271942D01*
X129163676Y-55319561D01*
X129068438Y-55367180D01*
X128830342Y-55367180D01*
X128735104Y-55319561D01*
X128687485Y-55271942D01*
X96978742Y-67019466D02*
X97026361Y-67067085D01*
X97073980Y-67209942D01*
X97073980Y-67305180D01*
X97026361Y-67448038D01*
X96931123Y-67543276D01*
X96835885Y-67590895D01*
X96645409Y-67638514D01*
X96502552Y-67638514D01*
X96312076Y-67590895D01*
X96216838Y-67543276D01*
X96121600Y-67448038D01*
X96073980Y-67305180D01*
X96073980Y-67209942D01*
X96121600Y-67067085D01*
X96169219Y-67019466D01*
X96407314Y-66162323D02*
X97073980Y-66162323D01*
X96026361Y-66400419D02*
X96740647Y-66638514D01*
X96740647Y-66019466D01*
X97029542Y-59145466D02*
X97077161Y-59193085D01*
X97124780Y-59335942D01*
X97124780Y-59431180D01*
X97077161Y-59574038D01*
X96981923Y-59669276D01*
X96886685Y-59716895D01*
X96696209Y-59764514D01*
X96553352Y-59764514D01*
X96362876Y-59716895D01*
X96267638Y-59669276D01*
X96172400Y-59574038D01*
X96124780Y-59431180D01*
X96124780Y-59335942D01*
X96172400Y-59193085D01*
X96220019Y-59145466D01*
X96124780Y-58812133D02*
X96124780Y-58193085D01*
X96505733Y-58526419D01*
X96505733Y-58383561D01*
X96553352Y-58288323D01*
X96600971Y-58240704D01*
X96696209Y-58193085D01*
X96934304Y-58193085D01*
X97029542Y-58240704D01*
X97077161Y-58288323D01*
X97124780Y-58383561D01*
X97124780Y-58669276D01*
X97077161Y-58764514D01*
X97029542Y-58812133D01*
X68225542Y-65152466D02*
X68273161Y-65200085D01*
X68320780Y-65342942D01*
X68320780Y-65438180D01*
X68273161Y-65581038D01*
X68177923Y-65676276D01*
X68082685Y-65723895D01*
X67892209Y-65771514D01*
X67749352Y-65771514D01*
X67558876Y-65723895D01*
X67463638Y-65676276D01*
X67368400Y-65581038D01*
X67320780Y-65438180D01*
X67320780Y-65342942D01*
X67368400Y-65200085D01*
X67416019Y-65152466D01*
X67416019Y-64771514D02*
X67368400Y-64723895D01*
X67320780Y-64628657D01*
X67320780Y-64390561D01*
X67368400Y-64295323D01*
X67416019Y-64247704D01*
X67511257Y-64200085D01*
X67606495Y-64200085D01*
X67749352Y-64247704D01*
X68320780Y-64819133D01*
X68320780Y-64200085D01*
X68581542Y-58434266D02*
X68629161Y-58481885D01*
X68676780Y-58624742D01*
X68676780Y-58719980D01*
X68629161Y-58862838D01*
X68533923Y-58958076D01*
X68438685Y-59005695D01*
X68248209Y-59053314D01*
X68105352Y-59053314D01*
X67914876Y-59005695D01*
X67819638Y-58958076D01*
X67724400Y-58862838D01*
X67676780Y-58719980D01*
X67676780Y-58624742D01*
X67724400Y-58481885D01*
X67772019Y-58434266D01*
X68676780Y-57481885D02*
X68676780Y-58053314D01*
X68676780Y-57767600D02*
X67676780Y-57767600D01*
X67819638Y-57862838D01*
X67914876Y-57958076D01*
X67962495Y-58053314D01*
M02*
