G04 #@! TF.GenerationSoftware,KiCad,Pcbnew,5.1.5*
G04 #@! TF.CreationDate,2020-05-24T05:14:00+08:00*
G04 #@! TF.ProjectId,EDO RAM Stick Recreated,45444f20-5241-44d2-9053-7469636b2052,01*
G04 #@! TF.SameCoordinates,Original*
G04 #@! TF.FileFunction,Copper,L4,Bot*
G04 #@! TF.FilePolarity,Positive*
%FSLAX46Y46*%
G04 Gerber Fmt 4.6, Leading zero omitted, Abs format (unit mm)*
G04 Created by KiCad (PCBNEW 5.1.5) date 2020-05-24 05:14:00*
%MOMM*%
%LPD*%
G04 APERTURE LIST*
%ADD10R,1.500000X0.300000*%
%ADD11R,0.600000X2.300000*%
%ADD12C,0.100000*%
%ADD13C,0.600000*%
%ADD14C,0.203200*%
%ADD15C,0.152400*%
G04 APERTURE END LIST*
D10*
X123352000Y-71931600D03*
X112252000Y-71931600D03*
X123352000Y-71131600D03*
X112252000Y-71131600D03*
X123352000Y-70331600D03*
X112252000Y-70331600D03*
X123352000Y-69531600D03*
X112252000Y-69531600D03*
X123352000Y-68731600D03*
X112252000Y-68731600D03*
X123352000Y-67931600D03*
X112252000Y-67931600D03*
X123352000Y-67131600D03*
X112252000Y-67131600D03*
X123352000Y-66331600D03*
X112252000Y-66331600D03*
X123352000Y-65531600D03*
X112252000Y-65531600D03*
X123352000Y-64731600D03*
X112252000Y-64731600D03*
X123352000Y-63931600D03*
X112252000Y-63931600D03*
X123352000Y-63131600D03*
X112252000Y-63131600D03*
X123352000Y-62331600D03*
X112252000Y-62331600D03*
X123352000Y-61531600D03*
X112252000Y-61531600D03*
X123352000Y-60731600D03*
X112252000Y-60731600D03*
X123352000Y-59931600D03*
X112252000Y-59931600D03*
X123352000Y-59131600D03*
X112252000Y-59131600D03*
X123352000Y-58331600D03*
X112252000Y-58331600D03*
X123352000Y-57531600D03*
X112252000Y-57531600D03*
X123352000Y-56731600D03*
X112252000Y-56731600D03*
X123352000Y-55931600D03*
X112252000Y-55931600D03*
X123352000Y-55131600D03*
X112252000Y-55131600D03*
X123352000Y-54331600D03*
X112252000Y-54331600D03*
X123352000Y-53531600D03*
X112252000Y-53531600D03*
X123352000Y-52731600D03*
X112252000Y-52731600D03*
X109991600Y-71931600D03*
X98891600Y-71931600D03*
X109991600Y-71131600D03*
X98891600Y-71131600D03*
X109991600Y-70331600D03*
X98891600Y-70331600D03*
X109991600Y-69531600D03*
X98891600Y-69531600D03*
X109991600Y-68731600D03*
X98891600Y-68731600D03*
X109991600Y-67931600D03*
X98891600Y-67931600D03*
X109991600Y-67131600D03*
X98891600Y-67131600D03*
X109991600Y-66331600D03*
X98891600Y-66331600D03*
X109991600Y-65531600D03*
X98891600Y-65531600D03*
X109991600Y-64731600D03*
X98891600Y-64731600D03*
X109991600Y-63931600D03*
X98891600Y-63931600D03*
X109991600Y-63131600D03*
X98891600Y-63131600D03*
X109991600Y-62331600D03*
X98891600Y-62331600D03*
X109991600Y-61531600D03*
X98891600Y-61531600D03*
X109991600Y-60731600D03*
X98891600Y-60731600D03*
X109991600Y-59931600D03*
X98891600Y-59931600D03*
X109991600Y-59131600D03*
X98891600Y-59131600D03*
X109991600Y-58331600D03*
X98891600Y-58331600D03*
X109991600Y-57531600D03*
X98891600Y-57531600D03*
X109991600Y-56731600D03*
X98891600Y-56731600D03*
X109991600Y-55931600D03*
X98891600Y-55931600D03*
X109991600Y-55131600D03*
X98891600Y-55131600D03*
X109991600Y-54331600D03*
X98891600Y-54331600D03*
X109991600Y-53531600D03*
X98891600Y-53531600D03*
X109991600Y-52731600D03*
X98891600Y-52731600D03*
X94548400Y-71931600D03*
X83448400Y-71931600D03*
X94548400Y-71131600D03*
X83448400Y-71131600D03*
X94548400Y-70331600D03*
X83448400Y-70331600D03*
X94548400Y-69531600D03*
X83448400Y-69531600D03*
X94548400Y-68731600D03*
X83448400Y-68731600D03*
X94548400Y-67931600D03*
X83448400Y-67931600D03*
X94548400Y-67131600D03*
X83448400Y-67131600D03*
X94548400Y-66331600D03*
X83448400Y-66331600D03*
X94548400Y-65531600D03*
X83448400Y-65531600D03*
X94548400Y-64731600D03*
X83448400Y-64731600D03*
X94548400Y-63931600D03*
X83448400Y-63931600D03*
X94548400Y-63131600D03*
X83448400Y-63131600D03*
X94548400Y-62331600D03*
X83448400Y-62331600D03*
X94548400Y-61531600D03*
X83448400Y-61531600D03*
X94548400Y-60731600D03*
X83448400Y-60731600D03*
X94548400Y-59931600D03*
X83448400Y-59931600D03*
X94548400Y-59131600D03*
X83448400Y-59131600D03*
X94548400Y-58331600D03*
X83448400Y-58331600D03*
X94548400Y-57531600D03*
X83448400Y-57531600D03*
X94548400Y-56731600D03*
X83448400Y-56731600D03*
X94548400Y-55931600D03*
X83448400Y-55931600D03*
X94548400Y-55131600D03*
X83448400Y-55131600D03*
X94548400Y-54331600D03*
X83448400Y-54331600D03*
X94548400Y-53531600D03*
X83448400Y-53531600D03*
X94548400Y-52731600D03*
X83448400Y-52731600D03*
X81188000Y-71931600D03*
X70088000Y-71931600D03*
X81188000Y-71131600D03*
X70088000Y-71131600D03*
X81188000Y-70331600D03*
X70088000Y-70331600D03*
X81188000Y-69531600D03*
X70088000Y-69531600D03*
X81188000Y-68731600D03*
X70088000Y-68731600D03*
X81188000Y-67931600D03*
X70088000Y-67931600D03*
X81188000Y-67131600D03*
X70088000Y-67131600D03*
X81188000Y-66331600D03*
X70088000Y-66331600D03*
X81188000Y-65531600D03*
X70088000Y-65531600D03*
X81188000Y-64731600D03*
X70088000Y-64731600D03*
X81188000Y-63931600D03*
X70088000Y-63931600D03*
X81188000Y-63131600D03*
X70088000Y-63131600D03*
X81188000Y-62331600D03*
X70088000Y-62331600D03*
X81188000Y-61531600D03*
X70088000Y-61531600D03*
X81188000Y-60731600D03*
X70088000Y-60731600D03*
X81188000Y-59931600D03*
X70088000Y-59931600D03*
X81188000Y-59131600D03*
X70088000Y-59131600D03*
X81188000Y-58331600D03*
X70088000Y-58331600D03*
X81188000Y-57531600D03*
X70088000Y-57531600D03*
X81188000Y-56731600D03*
X70088000Y-56731600D03*
X81188000Y-55931600D03*
X70088000Y-55931600D03*
X81188000Y-55131600D03*
X70088000Y-55131600D03*
X81188000Y-54331600D03*
X70088000Y-54331600D03*
X81188000Y-53531600D03*
X70088000Y-53531600D03*
X81188000Y-52731600D03*
X70088000Y-52731600D03*
D11*
X68346699Y-75596599D03*
X69146699Y-75596599D03*
X69946699Y-75596599D03*
X70746699Y-75596599D03*
X71546699Y-75596599D03*
X72346699Y-75596599D03*
X73146699Y-75596599D03*
X73946699Y-75596599D03*
X74746699Y-75596599D03*
X75546699Y-75596599D03*
X76346699Y-75596599D03*
X77146699Y-75596599D03*
X77946699Y-75596599D03*
X78746699Y-75596599D03*
X79546699Y-75596599D03*
X80346699Y-75596599D03*
X81146699Y-75596599D03*
X81946699Y-75596599D03*
X82746699Y-75596599D03*
X83546699Y-75596599D03*
X84346699Y-75596599D03*
X85146699Y-75596599D03*
X85946699Y-75596599D03*
X86746699Y-75596599D03*
X87546699Y-75596599D03*
X88346699Y-75596599D03*
X89146699Y-75596599D03*
X89946699Y-75596599D03*
X90746699Y-75596599D03*
X91546699Y-75596599D03*
X96146699Y-75596599D03*
X96946699Y-75596599D03*
X97746699Y-75596599D03*
X98546699Y-75596599D03*
X99346699Y-75596599D03*
X100146699Y-75596599D03*
X100946699Y-75596599D03*
X101746699Y-75596599D03*
X102546699Y-75596599D03*
X103346699Y-75596599D03*
X104146699Y-75596599D03*
X104946699Y-75596599D03*
X105746699Y-75596599D03*
X106546699Y-75596599D03*
X107346699Y-75596599D03*
X108146699Y-75596599D03*
X108946699Y-75596599D03*
X109746699Y-75596599D03*
X110546699Y-75596599D03*
X111346699Y-75596599D03*
X112146699Y-75596599D03*
X112946699Y-75596599D03*
X113746699Y-75596599D03*
X114546699Y-75596599D03*
X115346699Y-75596599D03*
X116146699Y-75596599D03*
X116946699Y-75596599D03*
X117746699Y-75596599D03*
X118546699Y-75596599D03*
X119346699Y-75596599D03*
X120146699Y-75596599D03*
X120946699Y-75596599D03*
X121746699Y-75596599D03*
X122546699Y-75596599D03*
X123346699Y-75596599D03*
X124146699Y-75596599D03*
X124946699Y-75596599D03*
X125746699Y-75596599D03*
X126546699Y-75596599D03*
X127346699Y-75596599D03*
X128146699Y-75596599D03*
X128946699Y-75596599D03*
G04 #@! TA.AperFunction,SMDPad,CuDef*
D12*
G36*
X68180379Y-68829544D02*
G01*
X68203434Y-68832963D01*
X68226043Y-68838627D01*
X68247987Y-68846479D01*
X68269057Y-68856444D01*
X68289048Y-68868426D01*
X68307768Y-68882310D01*
X68325038Y-68897962D01*
X68340690Y-68915232D01*
X68354574Y-68933952D01*
X68366556Y-68953943D01*
X68376521Y-68975013D01*
X68384373Y-68996957D01*
X68390037Y-69019566D01*
X68393456Y-69042621D01*
X68394600Y-69065900D01*
X68394600Y-69640900D01*
X68393456Y-69664179D01*
X68390037Y-69687234D01*
X68384373Y-69709843D01*
X68376521Y-69731787D01*
X68366556Y-69752857D01*
X68354574Y-69772848D01*
X68340690Y-69791568D01*
X68325038Y-69808838D01*
X68307768Y-69824490D01*
X68289048Y-69838374D01*
X68269057Y-69850356D01*
X68247987Y-69860321D01*
X68226043Y-69868173D01*
X68203434Y-69873837D01*
X68180379Y-69877256D01*
X68157100Y-69878400D01*
X67682100Y-69878400D01*
X67658821Y-69877256D01*
X67635766Y-69873837D01*
X67613157Y-69868173D01*
X67591213Y-69860321D01*
X67570143Y-69850356D01*
X67550152Y-69838374D01*
X67531432Y-69824490D01*
X67514162Y-69808838D01*
X67498510Y-69791568D01*
X67484626Y-69772848D01*
X67472644Y-69752857D01*
X67462679Y-69731787D01*
X67454827Y-69709843D01*
X67449163Y-69687234D01*
X67445744Y-69664179D01*
X67444600Y-69640900D01*
X67444600Y-69065900D01*
X67445744Y-69042621D01*
X67449163Y-69019566D01*
X67454827Y-68996957D01*
X67462679Y-68975013D01*
X67472644Y-68953943D01*
X67484626Y-68933952D01*
X67498510Y-68915232D01*
X67514162Y-68897962D01*
X67531432Y-68882310D01*
X67550152Y-68868426D01*
X67570143Y-68856444D01*
X67591213Y-68846479D01*
X67613157Y-68838627D01*
X67635766Y-68832963D01*
X67658821Y-68829544D01*
X67682100Y-68828400D01*
X68157100Y-68828400D01*
X68180379Y-68829544D01*
G37*
G04 #@! TD.AperFunction*
G04 #@! TA.AperFunction,SMDPad,CuDef*
G36*
X68180379Y-67079544D02*
G01*
X68203434Y-67082963D01*
X68226043Y-67088627D01*
X68247987Y-67096479D01*
X68269057Y-67106444D01*
X68289048Y-67118426D01*
X68307768Y-67132310D01*
X68325038Y-67147962D01*
X68340690Y-67165232D01*
X68354574Y-67183952D01*
X68366556Y-67203943D01*
X68376521Y-67225013D01*
X68384373Y-67246957D01*
X68390037Y-67269566D01*
X68393456Y-67292621D01*
X68394600Y-67315900D01*
X68394600Y-67890900D01*
X68393456Y-67914179D01*
X68390037Y-67937234D01*
X68384373Y-67959843D01*
X68376521Y-67981787D01*
X68366556Y-68002857D01*
X68354574Y-68022848D01*
X68340690Y-68041568D01*
X68325038Y-68058838D01*
X68307768Y-68074490D01*
X68289048Y-68088374D01*
X68269057Y-68100356D01*
X68247987Y-68110321D01*
X68226043Y-68118173D01*
X68203434Y-68123837D01*
X68180379Y-68127256D01*
X68157100Y-68128400D01*
X67682100Y-68128400D01*
X67658821Y-68127256D01*
X67635766Y-68123837D01*
X67613157Y-68118173D01*
X67591213Y-68110321D01*
X67570143Y-68100356D01*
X67550152Y-68088374D01*
X67531432Y-68074490D01*
X67514162Y-68058838D01*
X67498510Y-68041568D01*
X67484626Y-68022848D01*
X67472644Y-68002857D01*
X67462679Y-67981787D01*
X67454827Y-67959843D01*
X67449163Y-67937234D01*
X67445744Y-67914179D01*
X67444600Y-67890900D01*
X67444600Y-67315900D01*
X67445744Y-67292621D01*
X67449163Y-67269566D01*
X67454827Y-67246957D01*
X67462679Y-67225013D01*
X67472644Y-67203943D01*
X67484626Y-67183952D01*
X67498510Y-67165232D01*
X67514162Y-67147962D01*
X67531432Y-67132310D01*
X67550152Y-67118426D01*
X67570143Y-67106444D01*
X67591213Y-67096479D01*
X67613157Y-67088627D01*
X67635766Y-67082963D01*
X67658821Y-67079544D01*
X67682100Y-67078400D01*
X68157100Y-67078400D01*
X68180379Y-67079544D01*
G37*
G04 #@! TD.AperFunction*
G04 #@! TA.AperFunction,SMDPad,CuDef*
G36*
X68027979Y-52449144D02*
G01*
X68051034Y-52452563D01*
X68073643Y-52458227D01*
X68095587Y-52466079D01*
X68116657Y-52476044D01*
X68136648Y-52488026D01*
X68155368Y-52501910D01*
X68172638Y-52517562D01*
X68188290Y-52534832D01*
X68202174Y-52553552D01*
X68214156Y-52573543D01*
X68224121Y-52594613D01*
X68231973Y-52616557D01*
X68237637Y-52639166D01*
X68241056Y-52662221D01*
X68242200Y-52685500D01*
X68242200Y-53260500D01*
X68241056Y-53283779D01*
X68237637Y-53306834D01*
X68231973Y-53329443D01*
X68224121Y-53351387D01*
X68214156Y-53372457D01*
X68202174Y-53392448D01*
X68188290Y-53411168D01*
X68172638Y-53428438D01*
X68155368Y-53444090D01*
X68136648Y-53457974D01*
X68116657Y-53469956D01*
X68095587Y-53479921D01*
X68073643Y-53487773D01*
X68051034Y-53493437D01*
X68027979Y-53496856D01*
X68004700Y-53498000D01*
X67529700Y-53498000D01*
X67506421Y-53496856D01*
X67483366Y-53493437D01*
X67460757Y-53487773D01*
X67438813Y-53479921D01*
X67417743Y-53469956D01*
X67397752Y-53457974D01*
X67379032Y-53444090D01*
X67361762Y-53428438D01*
X67346110Y-53411168D01*
X67332226Y-53392448D01*
X67320244Y-53372457D01*
X67310279Y-53351387D01*
X67302427Y-53329443D01*
X67296763Y-53306834D01*
X67293344Y-53283779D01*
X67292200Y-53260500D01*
X67292200Y-52685500D01*
X67293344Y-52662221D01*
X67296763Y-52639166D01*
X67302427Y-52616557D01*
X67310279Y-52594613D01*
X67320244Y-52573543D01*
X67332226Y-52553552D01*
X67346110Y-52534832D01*
X67361762Y-52517562D01*
X67379032Y-52501910D01*
X67397752Y-52488026D01*
X67417743Y-52476044D01*
X67438813Y-52466079D01*
X67460757Y-52458227D01*
X67483366Y-52452563D01*
X67506421Y-52449144D01*
X67529700Y-52448000D01*
X68004700Y-52448000D01*
X68027979Y-52449144D01*
G37*
G04 #@! TD.AperFunction*
G04 #@! TA.AperFunction,SMDPad,CuDef*
G36*
X68027979Y-54199144D02*
G01*
X68051034Y-54202563D01*
X68073643Y-54208227D01*
X68095587Y-54216079D01*
X68116657Y-54226044D01*
X68136648Y-54238026D01*
X68155368Y-54251910D01*
X68172638Y-54267562D01*
X68188290Y-54284832D01*
X68202174Y-54303552D01*
X68214156Y-54323543D01*
X68224121Y-54344613D01*
X68231973Y-54366557D01*
X68237637Y-54389166D01*
X68241056Y-54412221D01*
X68242200Y-54435500D01*
X68242200Y-55010500D01*
X68241056Y-55033779D01*
X68237637Y-55056834D01*
X68231973Y-55079443D01*
X68224121Y-55101387D01*
X68214156Y-55122457D01*
X68202174Y-55142448D01*
X68188290Y-55161168D01*
X68172638Y-55178438D01*
X68155368Y-55194090D01*
X68136648Y-55207974D01*
X68116657Y-55219956D01*
X68095587Y-55229921D01*
X68073643Y-55237773D01*
X68051034Y-55243437D01*
X68027979Y-55246856D01*
X68004700Y-55248000D01*
X67529700Y-55248000D01*
X67506421Y-55246856D01*
X67483366Y-55243437D01*
X67460757Y-55237773D01*
X67438813Y-55229921D01*
X67417743Y-55219956D01*
X67397752Y-55207974D01*
X67379032Y-55194090D01*
X67361762Y-55178438D01*
X67346110Y-55161168D01*
X67332226Y-55142448D01*
X67320244Y-55122457D01*
X67310279Y-55101387D01*
X67302427Y-55079443D01*
X67296763Y-55056834D01*
X67293344Y-55033779D01*
X67292200Y-55010500D01*
X67292200Y-54435500D01*
X67293344Y-54412221D01*
X67296763Y-54389166D01*
X67302427Y-54366557D01*
X67310279Y-54344613D01*
X67320244Y-54323543D01*
X67332226Y-54303552D01*
X67346110Y-54284832D01*
X67361762Y-54267562D01*
X67379032Y-54251910D01*
X67397752Y-54238026D01*
X67417743Y-54226044D01*
X67438813Y-54216079D01*
X67460757Y-54208227D01*
X67483366Y-54202563D01*
X67506421Y-54199144D01*
X67529700Y-54198000D01*
X68004700Y-54198000D01*
X68027979Y-54199144D01*
G37*
G04 #@! TD.AperFunction*
G04 #@! TA.AperFunction,SMDPad,CuDef*
G36*
X96983979Y-70658344D02*
G01*
X97007034Y-70661763D01*
X97029643Y-70667427D01*
X97051587Y-70675279D01*
X97072657Y-70685244D01*
X97092648Y-70697226D01*
X97111368Y-70711110D01*
X97128638Y-70726762D01*
X97144290Y-70744032D01*
X97158174Y-70762752D01*
X97170156Y-70782743D01*
X97180121Y-70803813D01*
X97187973Y-70825757D01*
X97193637Y-70848366D01*
X97197056Y-70871421D01*
X97198200Y-70894700D01*
X97198200Y-71469700D01*
X97197056Y-71492979D01*
X97193637Y-71516034D01*
X97187973Y-71538643D01*
X97180121Y-71560587D01*
X97170156Y-71581657D01*
X97158174Y-71601648D01*
X97144290Y-71620368D01*
X97128638Y-71637638D01*
X97111368Y-71653290D01*
X97092648Y-71667174D01*
X97072657Y-71679156D01*
X97051587Y-71689121D01*
X97029643Y-71696973D01*
X97007034Y-71702637D01*
X96983979Y-71706056D01*
X96960700Y-71707200D01*
X96485700Y-71707200D01*
X96462421Y-71706056D01*
X96439366Y-71702637D01*
X96416757Y-71696973D01*
X96394813Y-71689121D01*
X96373743Y-71679156D01*
X96353752Y-71667174D01*
X96335032Y-71653290D01*
X96317762Y-71637638D01*
X96302110Y-71620368D01*
X96288226Y-71601648D01*
X96276244Y-71581657D01*
X96266279Y-71560587D01*
X96258427Y-71538643D01*
X96252763Y-71516034D01*
X96249344Y-71492979D01*
X96248200Y-71469700D01*
X96248200Y-70894700D01*
X96249344Y-70871421D01*
X96252763Y-70848366D01*
X96258427Y-70825757D01*
X96266279Y-70803813D01*
X96276244Y-70782743D01*
X96288226Y-70762752D01*
X96302110Y-70744032D01*
X96317762Y-70726762D01*
X96335032Y-70711110D01*
X96353752Y-70697226D01*
X96373743Y-70685244D01*
X96394813Y-70675279D01*
X96416757Y-70667427D01*
X96439366Y-70661763D01*
X96462421Y-70658344D01*
X96485700Y-70657200D01*
X96960700Y-70657200D01*
X96983979Y-70658344D01*
G37*
G04 #@! TD.AperFunction*
G04 #@! TA.AperFunction,SMDPad,CuDef*
G36*
X96983979Y-68908344D02*
G01*
X97007034Y-68911763D01*
X97029643Y-68917427D01*
X97051587Y-68925279D01*
X97072657Y-68935244D01*
X97092648Y-68947226D01*
X97111368Y-68961110D01*
X97128638Y-68976762D01*
X97144290Y-68994032D01*
X97158174Y-69012752D01*
X97170156Y-69032743D01*
X97180121Y-69053813D01*
X97187973Y-69075757D01*
X97193637Y-69098366D01*
X97197056Y-69121421D01*
X97198200Y-69144700D01*
X97198200Y-69719700D01*
X97197056Y-69742979D01*
X97193637Y-69766034D01*
X97187973Y-69788643D01*
X97180121Y-69810587D01*
X97170156Y-69831657D01*
X97158174Y-69851648D01*
X97144290Y-69870368D01*
X97128638Y-69887638D01*
X97111368Y-69903290D01*
X97092648Y-69917174D01*
X97072657Y-69929156D01*
X97051587Y-69939121D01*
X97029643Y-69946973D01*
X97007034Y-69952637D01*
X96983979Y-69956056D01*
X96960700Y-69957200D01*
X96485700Y-69957200D01*
X96462421Y-69956056D01*
X96439366Y-69952637D01*
X96416757Y-69946973D01*
X96394813Y-69939121D01*
X96373743Y-69929156D01*
X96353752Y-69917174D01*
X96335032Y-69903290D01*
X96317762Y-69887638D01*
X96302110Y-69870368D01*
X96288226Y-69851648D01*
X96276244Y-69831657D01*
X96266279Y-69810587D01*
X96258427Y-69788643D01*
X96252763Y-69766034D01*
X96249344Y-69742979D01*
X96248200Y-69719700D01*
X96248200Y-69144700D01*
X96249344Y-69121421D01*
X96252763Y-69098366D01*
X96258427Y-69075757D01*
X96266279Y-69053813D01*
X96276244Y-69032743D01*
X96288226Y-69012752D01*
X96302110Y-68994032D01*
X96317762Y-68976762D01*
X96335032Y-68961110D01*
X96353752Y-68947226D01*
X96373743Y-68935244D01*
X96394813Y-68925279D01*
X96416757Y-68917427D01*
X96439366Y-68911763D01*
X96462421Y-68908344D01*
X96485700Y-68907200D01*
X96960700Y-68907200D01*
X96983979Y-68908344D01*
G37*
G04 #@! TD.AperFunction*
G04 #@! TA.AperFunction,SMDPad,CuDef*
G36*
X96933179Y-52449144D02*
G01*
X96956234Y-52452563D01*
X96978843Y-52458227D01*
X97000787Y-52466079D01*
X97021857Y-52476044D01*
X97041848Y-52488026D01*
X97060568Y-52501910D01*
X97077838Y-52517562D01*
X97093490Y-52534832D01*
X97107374Y-52553552D01*
X97119356Y-52573543D01*
X97129321Y-52594613D01*
X97137173Y-52616557D01*
X97142837Y-52639166D01*
X97146256Y-52662221D01*
X97147400Y-52685500D01*
X97147400Y-53260500D01*
X97146256Y-53283779D01*
X97142837Y-53306834D01*
X97137173Y-53329443D01*
X97129321Y-53351387D01*
X97119356Y-53372457D01*
X97107374Y-53392448D01*
X97093490Y-53411168D01*
X97077838Y-53428438D01*
X97060568Y-53444090D01*
X97041848Y-53457974D01*
X97021857Y-53469956D01*
X97000787Y-53479921D01*
X96978843Y-53487773D01*
X96956234Y-53493437D01*
X96933179Y-53496856D01*
X96909900Y-53498000D01*
X96434900Y-53498000D01*
X96411621Y-53496856D01*
X96388566Y-53493437D01*
X96365957Y-53487773D01*
X96344013Y-53479921D01*
X96322943Y-53469956D01*
X96302952Y-53457974D01*
X96284232Y-53444090D01*
X96266962Y-53428438D01*
X96251310Y-53411168D01*
X96237426Y-53392448D01*
X96225444Y-53372457D01*
X96215479Y-53351387D01*
X96207627Y-53329443D01*
X96201963Y-53306834D01*
X96198544Y-53283779D01*
X96197400Y-53260500D01*
X96197400Y-52685500D01*
X96198544Y-52662221D01*
X96201963Y-52639166D01*
X96207627Y-52616557D01*
X96215479Y-52594613D01*
X96225444Y-52573543D01*
X96237426Y-52553552D01*
X96251310Y-52534832D01*
X96266962Y-52517562D01*
X96284232Y-52501910D01*
X96302952Y-52488026D01*
X96322943Y-52476044D01*
X96344013Y-52466079D01*
X96365957Y-52458227D01*
X96388566Y-52452563D01*
X96411621Y-52449144D01*
X96434900Y-52448000D01*
X96909900Y-52448000D01*
X96933179Y-52449144D01*
G37*
G04 #@! TD.AperFunction*
G04 #@! TA.AperFunction,SMDPad,CuDef*
G36*
X96933179Y-54199144D02*
G01*
X96956234Y-54202563D01*
X96978843Y-54208227D01*
X97000787Y-54216079D01*
X97021857Y-54226044D01*
X97041848Y-54238026D01*
X97060568Y-54251910D01*
X97077838Y-54267562D01*
X97093490Y-54284832D01*
X97107374Y-54303552D01*
X97119356Y-54323543D01*
X97129321Y-54344613D01*
X97137173Y-54366557D01*
X97142837Y-54389166D01*
X97146256Y-54412221D01*
X97147400Y-54435500D01*
X97147400Y-55010500D01*
X97146256Y-55033779D01*
X97142837Y-55056834D01*
X97137173Y-55079443D01*
X97129321Y-55101387D01*
X97119356Y-55122457D01*
X97107374Y-55142448D01*
X97093490Y-55161168D01*
X97077838Y-55178438D01*
X97060568Y-55194090D01*
X97041848Y-55207974D01*
X97021857Y-55219956D01*
X97000787Y-55229921D01*
X96978843Y-55237773D01*
X96956234Y-55243437D01*
X96933179Y-55246856D01*
X96909900Y-55248000D01*
X96434900Y-55248000D01*
X96411621Y-55246856D01*
X96388566Y-55243437D01*
X96365957Y-55237773D01*
X96344013Y-55229921D01*
X96322943Y-55219956D01*
X96302952Y-55207974D01*
X96284232Y-55194090D01*
X96266962Y-55178438D01*
X96251310Y-55161168D01*
X96237426Y-55142448D01*
X96225444Y-55122457D01*
X96215479Y-55101387D01*
X96207627Y-55079443D01*
X96201963Y-55056834D01*
X96198544Y-55033779D01*
X96197400Y-55010500D01*
X96197400Y-54435500D01*
X96198544Y-54412221D01*
X96201963Y-54389166D01*
X96207627Y-54366557D01*
X96215479Y-54344613D01*
X96225444Y-54323543D01*
X96237426Y-54303552D01*
X96251310Y-54284832D01*
X96266962Y-54267562D01*
X96284232Y-54251910D01*
X96302952Y-54238026D01*
X96322943Y-54226044D01*
X96344013Y-54216079D01*
X96365957Y-54208227D01*
X96388566Y-54202563D01*
X96411621Y-54199144D01*
X96434900Y-54198000D01*
X96909900Y-54198000D01*
X96933179Y-54199144D01*
G37*
G04 #@! TD.AperFunction*
G04 #@! TA.AperFunction,SMDPad,CuDef*
G36*
X125939979Y-66966544D02*
G01*
X125963034Y-66969963D01*
X125985643Y-66975627D01*
X126007587Y-66983479D01*
X126028657Y-66993444D01*
X126048648Y-67005426D01*
X126067368Y-67019310D01*
X126084638Y-67034962D01*
X126100290Y-67052232D01*
X126114174Y-67070952D01*
X126126156Y-67090943D01*
X126136121Y-67112013D01*
X126143973Y-67133957D01*
X126149637Y-67156566D01*
X126153056Y-67179621D01*
X126154200Y-67202900D01*
X126154200Y-67777900D01*
X126153056Y-67801179D01*
X126149637Y-67824234D01*
X126143973Y-67846843D01*
X126136121Y-67868787D01*
X126126156Y-67889857D01*
X126114174Y-67909848D01*
X126100290Y-67928568D01*
X126084638Y-67945838D01*
X126067368Y-67961490D01*
X126048648Y-67975374D01*
X126028657Y-67987356D01*
X126007587Y-67997321D01*
X125985643Y-68005173D01*
X125963034Y-68010837D01*
X125939979Y-68014256D01*
X125916700Y-68015400D01*
X125441700Y-68015400D01*
X125418421Y-68014256D01*
X125395366Y-68010837D01*
X125372757Y-68005173D01*
X125350813Y-67997321D01*
X125329743Y-67987356D01*
X125309752Y-67975374D01*
X125291032Y-67961490D01*
X125273762Y-67945838D01*
X125258110Y-67928568D01*
X125244226Y-67909848D01*
X125232244Y-67889857D01*
X125222279Y-67868787D01*
X125214427Y-67846843D01*
X125208763Y-67824234D01*
X125205344Y-67801179D01*
X125204200Y-67777900D01*
X125204200Y-67202900D01*
X125205344Y-67179621D01*
X125208763Y-67156566D01*
X125214427Y-67133957D01*
X125222279Y-67112013D01*
X125232244Y-67090943D01*
X125244226Y-67070952D01*
X125258110Y-67052232D01*
X125273762Y-67034962D01*
X125291032Y-67019310D01*
X125309752Y-67005426D01*
X125329743Y-66993444D01*
X125350813Y-66983479D01*
X125372757Y-66975627D01*
X125395366Y-66969963D01*
X125418421Y-66966544D01*
X125441700Y-66965400D01*
X125916700Y-66965400D01*
X125939979Y-66966544D01*
G37*
G04 #@! TD.AperFunction*
G04 #@! TA.AperFunction,SMDPad,CuDef*
G36*
X125939979Y-68716544D02*
G01*
X125963034Y-68719963D01*
X125985643Y-68725627D01*
X126007587Y-68733479D01*
X126028657Y-68743444D01*
X126048648Y-68755426D01*
X126067368Y-68769310D01*
X126084638Y-68784962D01*
X126100290Y-68802232D01*
X126114174Y-68820952D01*
X126126156Y-68840943D01*
X126136121Y-68862013D01*
X126143973Y-68883957D01*
X126149637Y-68906566D01*
X126153056Y-68929621D01*
X126154200Y-68952900D01*
X126154200Y-69527900D01*
X126153056Y-69551179D01*
X126149637Y-69574234D01*
X126143973Y-69596843D01*
X126136121Y-69618787D01*
X126126156Y-69639857D01*
X126114174Y-69659848D01*
X126100290Y-69678568D01*
X126084638Y-69695838D01*
X126067368Y-69711490D01*
X126048648Y-69725374D01*
X126028657Y-69737356D01*
X126007587Y-69747321D01*
X125985643Y-69755173D01*
X125963034Y-69760837D01*
X125939979Y-69764256D01*
X125916700Y-69765400D01*
X125441700Y-69765400D01*
X125418421Y-69764256D01*
X125395366Y-69760837D01*
X125372757Y-69755173D01*
X125350813Y-69747321D01*
X125329743Y-69737356D01*
X125309752Y-69725374D01*
X125291032Y-69711490D01*
X125273762Y-69695838D01*
X125258110Y-69678568D01*
X125244226Y-69659848D01*
X125232244Y-69639857D01*
X125222279Y-69618787D01*
X125214427Y-69596843D01*
X125208763Y-69574234D01*
X125205344Y-69551179D01*
X125204200Y-69527900D01*
X125204200Y-68952900D01*
X125205344Y-68929621D01*
X125208763Y-68906566D01*
X125214427Y-68883957D01*
X125222279Y-68862013D01*
X125232244Y-68840943D01*
X125244226Y-68820952D01*
X125258110Y-68802232D01*
X125273762Y-68784962D01*
X125291032Y-68769310D01*
X125309752Y-68755426D01*
X125329743Y-68743444D01*
X125350813Y-68733479D01*
X125372757Y-68725627D01*
X125395366Y-68719963D01*
X125418421Y-68716544D01*
X125441700Y-68715400D01*
X125916700Y-68715400D01*
X125939979Y-68716544D01*
G37*
G04 #@! TD.AperFunction*
G04 #@! TA.AperFunction,SMDPad,CuDef*
G36*
X125889179Y-52437744D02*
G01*
X125912234Y-52441163D01*
X125934843Y-52446827D01*
X125956787Y-52454679D01*
X125977857Y-52464644D01*
X125997848Y-52476626D01*
X126016568Y-52490510D01*
X126033838Y-52506162D01*
X126049490Y-52523432D01*
X126063374Y-52542152D01*
X126075356Y-52562143D01*
X126085321Y-52583213D01*
X126093173Y-52605157D01*
X126098837Y-52627766D01*
X126102256Y-52650821D01*
X126103400Y-52674100D01*
X126103400Y-53249100D01*
X126102256Y-53272379D01*
X126098837Y-53295434D01*
X126093173Y-53318043D01*
X126085321Y-53339987D01*
X126075356Y-53361057D01*
X126063374Y-53381048D01*
X126049490Y-53399768D01*
X126033838Y-53417038D01*
X126016568Y-53432690D01*
X125997848Y-53446574D01*
X125977857Y-53458556D01*
X125956787Y-53468521D01*
X125934843Y-53476373D01*
X125912234Y-53482037D01*
X125889179Y-53485456D01*
X125865900Y-53486600D01*
X125390900Y-53486600D01*
X125367621Y-53485456D01*
X125344566Y-53482037D01*
X125321957Y-53476373D01*
X125300013Y-53468521D01*
X125278943Y-53458556D01*
X125258952Y-53446574D01*
X125240232Y-53432690D01*
X125222962Y-53417038D01*
X125207310Y-53399768D01*
X125193426Y-53381048D01*
X125181444Y-53361057D01*
X125171479Y-53339987D01*
X125163627Y-53318043D01*
X125157963Y-53295434D01*
X125154544Y-53272379D01*
X125153400Y-53249100D01*
X125153400Y-52674100D01*
X125154544Y-52650821D01*
X125157963Y-52627766D01*
X125163627Y-52605157D01*
X125171479Y-52583213D01*
X125181444Y-52562143D01*
X125193426Y-52542152D01*
X125207310Y-52523432D01*
X125222962Y-52506162D01*
X125240232Y-52490510D01*
X125258952Y-52476626D01*
X125278943Y-52464644D01*
X125300013Y-52454679D01*
X125321957Y-52446827D01*
X125344566Y-52441163D01*
X125367621Y-52437744D01*
X125390900Y-52436600D01*
X125865900Y-52436600D01*
X125889179Y-52437744D01*
G37*
G04 #@! TD.AperFunction*
G04 #@! TA.AperFunction,SMDPad,CuDef*
G36*
X125889179Y-54187744D02*
G01*
X125912234Y-54191163D01*
X125934843Y-54196827D01*
X125956787Y-54204679D01*
X125977857Y-54214644D01*
X125997848Y-54226626D01*
X126016568Y-54240510D01*
X126033838Y-54256162D01*
X126049490Y-54273432D01*
X126063374Y-54292152D01*
X126075356Y-54312143D01*
X126085321Y-54333213D01*
X126093173Y-54355157D01*
X126098837Y-54377766D01*
X126102256Y-54400821D01*
X126103400Y-54424100D01*
X126103400Y-54999100D01*
X126102256Y-55022379D01*
X126098837Y-55045434D01*
X126093173Y-55068043D01*
X126085321Y-55089987D01*
X126075356Y-55111057D01*
X126063374Y-55131048D01*
X126049490Y-55149768D01*
X126033838Y-55167038D01*
X126016568Y-55182690D01*
X125997848Y-55196574D01*
X125977857Y-55208556D01*
X125956787Y-55218521D01*
X125934843Y-55226373D01*
X125912234Y-55232037D01*
X125889179Y-55235456D01*
X125865900Y-55236600D01*
X125390900Y-55236600D01*
X125367621Y-55235456D01*
X125344566Y-55232037D01*
X125321957Y-55226373D01*
X125300013Y-55218521D01*
X125278943Y-55208556D01*
X125258952Y-55196574D01*
X125240232Y-55182690D01*
X125222962Y-55167038D01*
X125207310Y-55149768D01*
X125193426Y-55131048D01*
X125181444Y-55111057D01*
X125171479Y-55089987D01*
X125163627Y-55068043D01*
X125157963Y-55045434D01*
X125154544Y-55022379D01*
X125153400Y-54999100D01*
X125153400Y-54424100D01*
X125154544Y-54400821D01*
X125157963Y-54377766D01*
X125163627Y-54355157D01*
X125171479Y-54333213D01*
X125181444Y-54312143D01*
X125193426Y-54292152D01*
X125207310Y-54273432D01*
X125222962Y-54256162D01*
X125240232Y-54240510D01*
X125258952Y-54226626D01*
X125278943Y-54214644D01*
X125300013Y-54204679D01*
X125321957Y-54196827D01*
X125344566Y-54191163D01*
X125367621Y-54187744D01*
X125390900Y-54186600D01*
X125865900Y-54186600D01*
X125889179Y-54187744D01*
G37*
G04 #@! TD.AperFunction*
D13*
X104292400Y-73914000D03*
X97078800Y-73914000D03*
X86106000Y-73863200D03*
X78892400Y-73914000D03*
X110591600Y-72542400D03*
X85953600Y-56540400D03*
X67767200Y-73863200D03*
X68376800Y-62382400D03*
X66497200Y-52933600D03*
X79095600Y-63296800D03*
X89052400Y-52730400D03*
X92151200Y-71932800D03*
X91490800Y-52730400D03*
X84785200Y-63804800D03*
X90017600Y-73761600D03*
X85852000Y-67818000D03*
X96774000Y-68224400D03*
X97383600Y-63703200D03*
X97688400Y-67970400D03*
X108356400Y-68275200D03*
X106375200Y-52730400D03*
X93116400Y-63144400D03*
X79857600Y-68173600D03*
X76708000Y-52679600D03*
X114757200Y-68173600D03*
X113792000Y-63804800D03*
X116128800Y-52527200D03*
X129235200Y-53390800D03*
X127431800Y-73787000D03*
X125679200Y-65989200D03*
X108051600Y-63042800D03*
X96672400Y-52019200D03*
X126339600Y-72644000D03*
X95746000Y-67931600D03*
X69545200Y-72644000D03*
X83870800Y-72745600D03*
X99364800Y-72542400D03*
X112725200Y-72542400D03*
X109626400Y-72593200D03*
X80721200Y-72644000D03*
X119430800Y-73812400D03*
X114554000Y-73761600D03*
X107137200Y-73406000D03*
X101803200Y-73812400D03*
X81991200Y-73761600D03*
X76403200Y-73914000D03*
X67767200Y-66598800D03*
X67716400Y-55626000D03*
X78232000Y-52679600D03*
X79806800Y-63906400D03*
X78943200Y-67818000D03*
X90220800Y-52781200D03*
X85344000Y-63144400D03*
X84988400Y-68122800D03*
X96723200Y-55727600D03*
X102565200Y-52730400D03*
X93167200Y-67868800D03*
X96723200Y-72288400D03*
X96113600Y-63754000D03*
X104698800Y-52679600D03*
X108458000Y-63754000D03*
X107137200Y-68173600D03*
X100126800Y-67970400D03*
X100228400Y-63144400D03*
X73253600Y-52781200D03*
X127101600Y-54660800D03*
X122123200Y-67868800D03*
X125578800Y-71830000D03*
X114554000Y-63144400D03*
X126898400Y-65278000D03*
X117652800Y-52781200D03*
X87884000Y-52781200D03*
X113487200Y-68224400D03*
X81737200Y-72593200D03*
X111709200Y-72542400D03*
X98399600Y-72644000D03*
X82854800Y-72644000D03*
X70408800Y-72593200D03*
X72542400Y-73914000D03*
X116636800Y-73812400D03*
X123342400Y-73761600D03*
X128981200Y-73761600D03*
X111963200Y-73761600D03*
X71475600Y-67868800D03*
X68815600Y-71406400D03*
X80010000Y-70916800D03*
X71424800Y-70866000D03*
X79349600Y-70104000D03*
X71577200Y-69646800D03*
X80010000Y-69392800D03*
X71476400Y-68680800D03*
X79044800Y-68783200D03*
X71526400Y-67106800D03*
X78435200Y-67005200D03*
X71907400Y-66421000D03*
X79870800Y-66331600D03*
X71577200Y-65481200D03*
X78790800Y-65735200D03*
X71882000Y-64719200D03*
X77673200Y-65074800D03*
X71729600Y-61976000D03*
X73101200Y-62687200D03*
X75184000Y-72491600D03*
X72644000Y-62077600D03*
X73660000Y-64262000D03*
X88239600Y-63246000D03*
X88239600Y-65379600D03*
X76454000Y-72186800D03*
X86664800Y-62636400D03*
X87274400Y-65379600D03*
X74523600Y-64211200D03*
X78638400Y-58420000D03*
X72313800Y-57988200D03*
X85090000Y-58420000D03*
X101447600Y-58166000D03*
X107645200Y-58623200D03*
X113893600Y-58166000D03*
X92202000Y-58064400D03*
X77343000Y-55448200D03*
X78689200Y-72440800D03*
X75793600Y-56692800D03*
X77724000Y-72186800D03*
X78384400Y-54762400D03*
X74676000Y-59182000D03*
X79171800Y-55956200D03*
X75895200Y-59232800D03*
X77266800Y-71323200D03*
X79767600Y-53480800D03*
X78079600Y-63246000D03*
X79603600Y-61976000D03*
X78384400Y-61417200D03*
X71653600Y-60680800D03*
X79578000Y-60680800D03*
X71678800Y-53492400D03*
X72339200Y-54102000D03*
X71678800Y-54813200D03*
X91490800Y-55321200D03*
X101904800Y-55067200D03*
X115773200Y-54660800D03*
X121970800Y-54660800D03*
X86817200Y-56540400D03*
X84988400Y-56540400D03*
X96215200Y-57759600D03*
X102717600Y-57404000D03*
X108229400Y-57378600D03*
X115570000Y-56642000D03*
X90830400Y-54610000D03*
X102565200Y-54508400D03*
X115062000Y-54051200D03*
X121107200Y-54051200D03*
X90220800Y-55829200D03*
X101854000Y-56337200D03*
X116382800Y-55321200D03*
X121107200Y-55321200D03*
X92202000Y-54051200D03*
X101193600Y-54051200D03*
X108508800Y-54051200D03*
X114401600Y-53390800D03*
X121886674Y-53424126D03*
X84785200Y-71170800D03*
X90881200Y-64719200D03*
X85598000Y-70662800D03*
X91389600Y-65531600D03*
X85344000Y-69494400D03*
X90792800Y-66331600D03*
X86156800Y-69088000D03*
X91313600Y-67131600D03*
X87071200Y-69494400D03*
X91389200Y-68732400D03*
X87426800Y-67513200D03*
X90844000Y-69531600D03*
X88087200Y-68275200D03*
X91364800Y-70331600D03*
X88747600Y-67564000D03*
X90818800Y-71131600D03*
X91236800Y-63652400D03*
X87325200Y-63296800D03*
X97028000Y-62585600D03*
X100888800Y-64058800D03*
X107137200Y-63144400D03*
X116179600Y-63195200D03*
X91287600Y-61976000D03*
X96113600Y-61976000D03*
X102057200Y-63195200D03*
X105613200Y-63804800D03*
X87782400Y-61976000D03*
X115163600Y-61264800D03*
X90627200Y-61417200D03*
X87172800Y-61417200D03*
X103378000Y-61315600D03*
X107238800Y-61366400D03*
X96774000Y-61315600D03*
X114198400Y-61366400D03*
X85039200Y-60756800D03*
X97383600Y-60604400D03*
X101676000Y-60630000D03*
X107873600Y-60731600D03*
X121869200Y-60655200D03*
X113610118Y-60633882D03*
X100076000Y-71120000D03*
X102971600Y-71170800D03*
X108762800Y-71475600D03*
X100584000Y-70358000D03*
X103479600Y-70408800D03*
X108407200Y-70510400D03*
X100177600Y-69494400D03*
X103022400Y-69646800D03*
X108813600Y-69748400D03*
X100533200Y-68732400D03*
X103530400Y-68732400D03*
X107594400Y-69138800D03*
X100584000Y-67005200D03*
X102920800Y-67056000D03*
X107086400Y-67005200D03*
X100126800Y-66243200D03*
X103479600Y-66294000D03*
X107594400Y-66294000D03*
X100533200Y-65532000D03*
X102971600Y-65532000D03*
X107086800Y-65430000D03*
X100177600Y-64719200D03*
X103479600Y-64770000D03*
X107594400Y-64617600D03*
X85191600Y-53543200D03*
X93208061Y-53533261D03*
X100228400Y-53441600D03*
X107797600Y-53441600D03*
X75641200Y-53594000D03*
X113538000Y-71882000D03*
X86309200Y-54203600D03*
X93191900Y-54431500D03*
X100228400Y-54305200D03*
X107848400Y-54711600D03*
X75031600Y-54102000D03*
X113588800Y-54406800D03*
X85547200Y-55118000D03*
X91795600Y-55981600D03*
X102565200Y-55727600D03*
X108661200Y-55727600D03*
X76708000Y-54762400D03*
X114452400Y-54711600D03*
X72339200Y-55422800D03*
X87477600Y-55270400D03*
X107442000Y-56388000D03*
X79857600Y-56540400D03*
X113588800Y-55727600D03*
X113385600Y-73761600D03*
X115620800Y-71780400D03*
X71662800Y-58607200D03*
X85953600Y-59080400D03*
X91287600Y-58115200D03*
X100634800Y-58826400D03*
X108432600Y-59105800D03*
X79298800Y-59080400D03*
X121920000Y-58572400D03*
X115544600Y-58597800D03*
X71628000Y-56083200D03*
X97129600Y-57810400D03*
X103327200Y-56743600D03*
X106730800Y-56743600D03*
X121615200Y-55930800D03*
X114757200Y-56388000D03*
X78638400Y-57150000D03*
X115468400Y-72745600D03*
X71628000Y-57302400D03*
X85953600Y-57759600D03*
X92710000Y-57454800D03*
X103327200Y-58064400D03*
X100710400Y-57430000D03*
X106883200Y-58064400D03*
X77825600Y-57810400D03*
X121056400Y-57353200D03*
X114554000Y-57708800D03*
X103378000Y-62585600D03*
X105664000Y-62585600D03*
X117195600Y-73101200D03*
X120294400Y-59385200D03*
X116484400Y-59385200D03*
X101701600Y-61976000D03*
X106324400Y-61976000D03*
X121005600Y-60045600D03*
X114452400Y-60045600D03*
X115773200Y-61874400D03*
X116789200Y-62585600D03*
X118872000Y-73152000D03*
X121513600Y-62687200D03*
X120954800Y-61925200D03*
X113424800Y-71030000D03*
X122162400Y-71030000D03*
X114021600Y-70230000D03*
X121818400Y-70358000D03*
X113450000Y-69430000D03*
X122072400Y-69443600D03*
X114046000Y-68884800D03*
X121462800Y-68681600D03*
X114732400Y-67030000D03*
X121564400Y-66954400D03*
X113703600Y-66230000D03*
X122072400Y-66192400D03*
X114249600Y-65430000D03*
X121615200Y-65481200D03*
X113588800Y-64719200D03*
X125984000Y-73761600D03*
X122174000Y-64668400D03*
X128270000Y-63957200D03*
D14*
X81188000Y-63131600D02*
X79260800Y-63131600D01*
X79260800Y-63131600D02*
X79095600Y-63296800D01*
X79095600Y-63296800D02*
X79095600Y-63296800D01*
X94548400Y-71931600D02*
X92151200Y-71932800D01*
X92151200Y-71932800D02*
X92152400Y-71931600D01*
X96431000Y-52731600D02*
X96672400Y-52973000D01*
X94548400Y-52731600D02*
X96431000Y-52731600D01*
X94548400Y-52731600D02*
X91490800Y-52730400D01*
X91490800Y-52730400D02*
X91492000Y-52731600D01*
X109991600Y-67931600D02*
X108700000Y-67931600D01*
X108700000Y-67931600D02*
X108356400Y-68275200D01*
X108356400Y-68275200D02*
X108356400Y-68275200D01*
X109991600Y-52731600D02*
X106375200Y-52730400D01*
X106375200Y-52730400D02*
X106376400Y-52731600D01*
X94548400Y-63131600D02*
X93116400Y-63144400D01*
X93116400Y-63144400D02*
X93103600Y-63131600D01*
X81188000Y-67931600D02*
X80099600Y-67931600D01*
X80099600Y-67931600D02*
X79857600Y-68173600D01*
X79857600Y-68173600D02*
X79857600Y-68173600D01*
X67919600Y-73710800D02*
X67767200Y-73863200D01*
X67919600Y-69353400D02*
X67919600Y-73710800D01*
X68346699Y-74442699D02*
X67767200Y-73863200D01*
X68346699Y-75596599D02*
X68346699Y-74442699D01*
X81188000Y-52731600D02*
X79348400Y-52731600D01*
X79348400Y-52731600D02*
X78587600Y-53492400D01*
X78587600Y-53492400D02*
X77520800Y-53492400D01*
X77520800Y-53492400D02*
X76708000Y-52679600D01*
X76708000Y-52679600D02*
X76708000Y-52679600D01*
X108051600Y-63068000D02*
X108115200Y-63131600D01*
X108051600Y-63042800D02*
X108051600Y-63068000D01*
X108140400Y-63131600D02*
X108051600Y-63042800D01*
X109991600Y-63131600D02*
X108140400Y-63131600D01*
X96672400Y-52019200D02*
X96672400Y-52973000D01*
X125238000Y-67931600D02*
X125679200Y-67490400D01*
X123352000Y-67931600D02*
X125238000Y-67931600D01*
X125679200Y-67490400D02*
X125679200Y-65989200D01*
X123352000Y-63131600D02*
X124548800Y-63131600D01*
X125679200Y-64262000D02*
X125679200Y-65989200D01*
X124548800Y-63131600D02*
X125679200Y-64262000D01*
X123352000Y-71931600D02*
X124509600Y-71931600D01*
X124509600Y-71931600D02*
X125222000Y-72644000D01*
X125222000Y-72644000D02*
X126339600Y-72644000D01*
X126339600Y-72644000D02*
X126339600Y-72644000D01*
X125398400Y-52731600D02*
X125628400Y-52961600D01*
X123352000Y-52731600D02*
X125398400Y-52731600D01*
X129235200Y-53390800D02*
X129235200Y-53340000D01*
X128856800Y-52961600D02*
X125628400Y-52961600D01*
X129235200Y-53340000D02*
X128856800Y-52961600D01*
X94548400Y-67931600D02*
X95746000Y-67931600D01*
X95746000Y-67931600D02*
X95746000Y-67931600D01*
X109991600Y-71931600D02*
X109983200Y-71931600D01*
X109983200Y-71931600D02*
X109575600Y-72339200D01*
X109575600Y-72339200D02*
X109626400Y-72593200D01*
X109626400Y-72593200D02*
X109575600Y-72542400D01*
X81188000Y-71931600D02*
X81027200Y-71931600D01*
X81027200Y-71931600D02*
X80721200Y-72237600D01*
X80721200Y-72237600D02*
X80721200Y-72644000D01*
X80721200Y-72644000D02*
X80721200Y-72644000D01*
X101746699Y-75596599D02*
X101746699Y-73919701D01*
X101746699Y-73919701D02*
X101803200Y-73812400D01*
X101803200Y-73812400D02*
X101803200Y-73863200D01*
X107137200Y-73406000D02*
X107391200Y-73406000D01*
X108146699Y-74161499D02*
X108146699Y-75596599D01*
X107391200Y-73406000D02*
X108146699Y-74161499D01*
X114554000Y-75589298D02*
X114546699Y-75596599D01*
X114554000Y-73761600D02*
X114554000Y-75589298D01*
X119430800Y-75512498D02*
X119346699Y-75596599D01*
X119430800Y-73812400D02*
X119430800Y-75512498D01*
X127431800Y-75511498D02*
X127346699Y-75596599D01*
X127431800Y-73787000D02*
X127431800Y-75511498D01*
X90017600Y-75525698D02*
X89946699Y-75596599D01*
X90017600Y-73761600D02*
X90017600Y-75525698D01*
X81946699Y-75596599D02*
X81991200Y-73761600D01*
X81991200Y-73761600D02*
X81946699Y-73806101D01*
X76403200Y-75540098D02*
X76346699Y-75596599D01*
X76403200Y-73914000D02*
X76403200Y-75540098D01*
X95973800Y-71931600D02*
X96723200Y-71182200D01*
X94548400Y-71931600D02*
X95973800Y-71931600D01*
X66536600Y-52973000D02*
X66497200Y-52933600D01*
X67767200Y-52973000D02*
X66536600Y-52973000D01*
X83448400Y-63131600D02*
X85344000Y-63144400D01*
X85344000Y-63144400D02*
X85331200Y-63131600D01*
X83448400Y-67931600D02*
X84797200Y-67931600D01*
X84797200Y-67931600D02*
X84988400Y-68122800D01*
X84988400Y-68122800D02*
X84988400Y-68122800D01*
X96723200Y-55727600D02*
X96723200Y-55727600D01*
X96723200Y-54711600D02*
X96723200Y-55727600D01*
X96672400Y-54723000D02*
X96711800Y-54723000D01*
X96711800Y-54723000D02*
X96723200Y-54711600D01*
X98891600Y-52731600D02*
X102565200Y-52730400D01*
X102565200Y-52730400D02*
X102564000Y-52731600D01*
X98891600Y-67931600D02*
X100126800Y-67970400D01*
X100126800Y-67970400D02*
X100088000Y-67931600D01*
X98891600Y-63131600D02*
X100228400Y-63144400D01*
X100228400Y-63144400D02*
X100215600Y-63131600D01*
X67919600Y-66751200D02*
X67767200Y-66598800D01*
X67919600Y-67603400D02*
X67919600Y-66751200D01*
X67767200Y-66598800D02*
X67767200Y-64312800D01*
X68948400Y-63131600D02*
X70088000Y-63131600D01*
X67767200Y-64312800D02*
X68948400Y-63131600D01*
X70088000Y-52731600D02*
X73253600Y-52781200D01*
X73253600Y-52781200D02*
X73204000Y-52731600D01*
X112252000Y-63131600D02*
X114554000Y-63144400D01*
X114554000Y-63144400D02*
X114541200Y-63131600D01*
X125679200Y-69240400D02*
X126593600Y-69240400D01*
X126593600Y-69240400D02*
X126898400Y-68935600D01*
X126898400Y-68935600D02*
X126898400Y-65278000D01*
X126898400Y-65278000D02*
X126898400Y-65278000D01*
X127050800Y-54711600D02*
X127101600Y-54660800D01*
X125628400Y-54711600D02*
X127050800Y-54711600D01*
X112252000Y-52731600D02*
X114758400Y-52731600D01*
X114758400Y-52731600D02*
X115519200Y-53492400D01*
X115519200Y-53492400D02*
X116941600Y-53492400D01*
X116941600Y-53492400D02*
X117652800Y-52781200D01*
X117652800Y-52781200D02*
X117652800Y-52781200D01*
X83448400Y-52731600D02*
X87884000Y-52781200D01*
X87884000Y-52781200D02*
X87834400Y-52731600D01*
X112252000Y-67931600D02*
X113194400Y-67931600D01*
X113194400Y-67931600D02*
X113487200Y-68224400D01*
X113487200Y-68224400D02*
X113487200Y-68224400D01*
X112252000Y-71931600D02*
X112015200Y-71931600D01*
X112015200Y-71931600D02*
X111709200Y-72237600D01*
X111709200Y-72237600D02*
X111709200Y-72542400D01*
X111709200Y-72542400D02*
X111709200Y-72542400D01*
X98891600Y-71931600D02*
X98604000Y-71931600D01*
X98604000Y-71931600D02*
X98399600Y-72136000D01*
X98399600Y-72136000D02*
X98399600Y-72644000D01*
X98399600Y-72644000D02*
X98399600Y-72644000D01*
X82854800Y-72491600D02*
X82854800Y-72491600D01*
X82854800Y-72085200D02*
X83008400Y-71931600D01*
X83008400Y-71931600D02*
X83448400Y-71931600D01*
X82854800Y-72644000D02*
X82854800Y-72085200D01*
X70088000Y-71931600D02*
X70153600Y-71931600D01*
X70153600Y-71931600D02*
X70408800Y-72186800D01*
X70408800Y-72186800D02*
X70408800Y-72593200D01*
X70408800Y-72593200D02*
X70408800Y-72593200D01*
X97078800Y-75464498D02*
X96946699Y-75596599D01*
X97078800Y-73914000D02*
X97078800Y-75464498D01*
X104292400Y-75450898D02*
X104146699Y-75596599D01*
X104292400Y-73914000D02*
X104292400Y-75450898D01*
X116946699Y-74122299D02*
X116636800Y-73812400D01*
X116946699Y-75596599D02*
X116946699Y-74122299D01*
X123342400Y-75592300D02*
X123346699Y-75596599D01*
X123342400Y-73761600D02*
X123342400Y-75592300D01*
X128981200Y-75562098D02*
X128946699Y-75596599D01*
X128981200Y-73761600D02*
X128981200Y-75562098D01*
X86106000Y-75437298D02*
X85946699Y-75596599D01*
X86106000Y-73863200D02*
X86106000Y-75437298D01*
X96723200Y-69432200D02*
X96965800Y-69432200D01*
X96965800Y-69432200D02*
X97637600Y-70104000D01*
X97637600Y-70104000D02*
X97637600Y-71831200D01*
X97180400Y-72288400D02*
X96723200Y-72288400D01*
X97637600Y-71831200D02*
X97180400Y-72288400D01*
X67767200Y-55575200D02*
X67716400Y-55626000D01*
X67767200Y-54723000D02*
X67767200Y-55575200D01*
X72542400Y-73914000D02*
X72542400Y-74117200D01*
X72346699Y-74312901D02*
X72346699Y-75596599D01*
X72542400Y-74117200D02*
X72346699Y-74312901D01*
X78892400Y-75450898D02*
X78746699Y-75596599D01*
X78892400Y-73914000D02*
X78892400Y-75450898D01*
X111963200Y-75413100D02*
X112146699Y-75596599D01*
X111963200Y-73761600D02*
X111963200Y-75413100D01*
X71475600Y-67892800D02*
X71436800Y-67931600D01*
X71475600Y-67868800D02*
X71475600Y-67892800D01*
X71412800Y-67931600D02*
X71475600Y-67868800D01*
X70088000Y-67931600D02*
X71412800Y-67931600D01*
D15*
X69090400Y-71131600D02*
X68815600Y-71406400D01*
X70088000Y-71131600D02*
X69090400Y-71131600D01*
X75546699Y-75596599D02*
X75546699Y-74124299D01*
X75546699Y-74124299D02*
X74371200Y-72948800D01*
X74371200Y-72948800D02*
X74371200Y-72288400D01*
X74371200Y-72288400D02*
X74726800Y-71932800D01*
X74726800Y-71932800D02*
X74726800Y-71424800D01*
X74726800Y-71424800D02*
X75488800Y-70662800D01*
X79756000Y-70662800D02*
X80010000Y-70916800D01*
X75488800Y-70662800D02*
X79756000Y-70662800D01*
X80224800Y-71131600D02*
X80010000Y-70916800D01*
X81188000Y-71131600D02*
X80224800Y-71131600D01*
X70890400Y-70331600D02*
X70088000Y-70331600D01*
X71424800Y-70866000D02*
X70890400Y-70331600D01*
X79577200Y-70331600D02*
X79349600Y-70104000D01*
X81188000Y-70331600D02*
X79577200Y-70331600D01*
X79349600Y-70104000D02*
X75539600Y-70104000D01*
X75539600Y-70104000D02*
X74320400Y-71323200D01*
X74320400Y-71323200D02*
X74320400Y-71780400D01*
X74320400Y-71780400D02*
X73914000Y-72186800D01*
X73914000Y-72186800D02*
X73914000Y-73456800D01*
X74746699Y-74289499D02*
X74746699Y-75596599D01*
X73914000Y-73456800D02*
X74746699Y-74289499D01*
X70203200Y-69646800D02*
X70088000Y-69531600D01*
X71577200Y-69646800D02*
X70203200Y-69646800D01*
X73946699Y-75596599D02*
X73946699Y-73997499D01*
X73946699Y-73997499D02*
X73609200Y-73660000D01*
X73609200Y-73660000D02*
X73609200Y-72034400D01*
X73609200Y-72034400D02*
X74015600Y-71628000D01*
X74015600Y-71628000D02*
X74015600Y-71120000D01*
X75742800Y-69392800D02*
X80010000Y-69392800D01*
X74015600Y-71120000D02*
X75742800Y-69392800D01*
X81049200Y-69392800D02*
X81188000Y-69531600D01*
X80010000Y-69392800D02*
X81049200Y-69392800D01*
X71425600Y-68731600D02*
X71476400Y-68680800D01*
X70088000Y-68731600D02*
X71425600Y-68731600D01*
X79096400Y-68731600D02*
X79044800Y-68783200D01*
X81188000Y-68731600D02*
X79096400Y-68731600D01*
X73253600Y-71882000D02*
X73253600Y-75489698D01*
X73507600Y-71628000D02*
X73253600Y-71882000D01*
X75107800Y-68783200D02*
X74320400Y-69570600D01*
X74320400Y-70307200D02*
X73507600Y-71120000D01*
X79044800Y-68783200D02*
X75107800Y-68783200D01*
X74320400Y-69570600D02*
X74320400Y-70307200D01*
X73253600Y-75489698D02*
X73146699Y-75596599D01*
X73507600Y-71120000D02*
X73507600Y-71628000D01*
X71501600Y-67131600D02*
X71526400Y-67106800D01*
X70088000Y-67131600D02*
X71501600Y-67131600D01*
X81061600Y-67005200D02*
X81188000Y-67131600D01*
X78435200Y-67005200D02*
X81061600Y-67005200D01*
X78435200Y-67005200D02*
X74777600Y-67005200D01*
X74777600Y-67005200D02*
X73964800Y-67818000D01*
X73964800Y-67818000D02*
X73964800Y-70104000D01*
X73964800Y-70104000D02*
X73152000Y-70916800D01*
X73152000Y-70916800D02*
X73152000Y-71424800D01*
X73152000Y-71424800D02*
X72440800Y-72136000D01*
X72440800Y-72136000D02*
X72440800Y-73050400D01*
X71546699Y-73944501D02*
X71546699Y-75596599D01*
X72440800Y-73050400D02*
X71546699Y-73944501D01*
X70177400Y-66421000D02*
X70088000Y-66331600D01*
X71907400Y-66421000D02*
X70177400Y-66421000D01*
X70746699Y-75596599D02*
X70746699Y-74236501D01*
X70746699Y-74236501D02*
X72085200Y-72898000D01*
X72085200Y-72898000D02*
X72085200Y-71932800D01*
X72085200Y-71932800D02*
X72796400Y-71221600D01*
X72796400Y-71221600D02*
X72796400Y-70764400D01*
X72796400Y-70764400D02*
X73558400Y-70002400D01*
X73558400Y-70002400D02*
X73558400Y-67208400D01*
X74435200Y-66331600D02*
X79870800Y-66331600D01*
X73558400Y-67208400D02*
X74435200Y-66331600D01*
X79870800Y-66331600D02*
X81188000Y-66331600D01*
X70138400Y-65481200D02*
X70088000Y-65531600D01*
X71577200Y-65481200D02*
X70138400Y-65481200D01*
X81188000Y-65531600D02*
X80112000Y-65531600D01*
X79908400Y-65735200D02*
X78790800Y-65735200D01*
X80112000Y-65531600D02*
X79908400Y-65735200D01*
X78790800Y-65735200D02*
X74523600Y-65735200D01*
X74523600Y-65735200D02*
X73202800Y-67056000D01*
X73202800Y-67056000D02*
X73202800Y-69850000D01*
X73202800Y-69850000D02*
X72390000Y-70662800D01*
X72390000Y-70662800D02*
X72390000Y-71069200D01*
X72390000Y-71069200D02*
X71628000Y-71831200D01*
X71628000Y-71831200D02*
X71628000Y-72796400D01*
X71628000Y-72796400D02*
X70713600Y-73710800D01*
X70713600Y-73710800D02*
X70104000Y-73710800D01*
X69946699Y-73868101D02*
X69946699Y-75596599D01*
X70104000Y-73710800D02*
X69946699Y-73868101D01*
X71869600Y-64731600D02*
X71882000Y-64719200D01*
X70088000Y-64731600D02*
X71869600Y-64731600D01*
X69146699Y-75596599D02*
X69146699Y-73906101D01*
X69146699Y-73906101D02*
X69748400Y-73304400D01*
X69748400Y-73304400D02*
X70662800Y-73304400D01*
X70662800Y-73304400D02*
X71272400Y-72694800D01*
X71272400Y-72694800D02*
X71272400Y-71729600D01*
X71272400Y-71729600D02*
X72085200Y-70916800D01*
X72085200Y-70916800D02*
X72085200Y-70459600D01*
X72085200Y-70459600D02*
X72847200Y-69697600D01*
X72847200Y-69697600D02*
X72847200Y-66954400D01*
X74726800Y-65074800D02*
X77673200Y-65074800D01*
X72847200Y-66954400D02*
X74726800Y-65074800D01*
X77673200Y-65074800D02*
X79908400Y-65074800D01*
X80251600Y-64731600D02*
X81188000Y-64731600D01*
X79908400Y-65074800D02*
X80251600Y-64731600D01*
X72219736Y-62687200D02*
X73101200Y-62687200D01*
X71729600Y-61976000D02*
X71729600Y-62197064D01*
X71729600Y-62197064D02*
X72219736Y-62687200D01*
X73101200Y-62687200D02*
X79806800Y-62687200D01*
X80162400Y-62331600D02*
X81188000Y-62331600D01*
X79806800Y-62687200D02*
X80162400Y-62331600D01*
X75184000Y-72491600D02*
X75895200Y-73202800D01*
X75895200Y-73202800D02*
X76606400Y-73202800D01*
X77146699Y-73743099D02*
X77146699Y-75596599D01*
X76606400Y-73202800D02*
X77146699Y-73743099D01*
X72644000Y-62077600D02*
X78587600Y-62077600D01*
X78587600Y-62077600D02*
X79248000Y-61417200D01*
X80285600Y-61531600D02*
X81188000Y-61531600D01*
X80171200Y-61417200D02*
X80285600Y-61531600D01*
X79248000Y-61417200D02*
X80171200Y-61417200D01*
X88239600Y-63246000D02*
X88392000Y-63093600D01*
X88493600Y-62992000D02*
X88239600Y-63246000D01*
X91592400Y-62992000D02*
X88493600Y-62992000D01*
X94548400Y-62331600D02*
X92252800Y-62331600D01*
X92252800Y-62331600D02*
X91592400Y-62992000D01*
X76454000Y-72186800D02*
X76454000Y-72186800D01*
X76454000Y-72237600D02*
X76454000Y-72186800D01*
X77946699Y-75596599D02*
X77946699Y-73730299D01*
X77946699Y-73730299D02*
X76454000Y-72237600D01*
X94548400Y-61531600D02*
X92544800Y-61531600D01*
X92544800Y-61531600D02*
X91440000Y-62636400D01*
X91440000Y-62636400D02*
X86664800Y-62636400D01*
X86664800Y-62636400D02*
X86664800Y-62636400D01*
X101447600Y-58166000D02*
X100380800Y-58166000D01*
X99746400Y-57531600D02*
X98891600Y-57531600D01*
X100380800Y-58166000D02*
X99746400Y-57531600D01*
X76784200Y-57988200D02*
X72313800Y-57988200D01*
X78638400Y-58420000D02*
X77216000Y-58420000D01*
X77216000Y-58420000D02*
X76784200Y-57988200D01*
X72313800Y-57988200D02*
X71501000Y-57988200D01*
X71044400Y-57531600D02*
X70088000Y-57531600D01*
X71501000Y-57988200D02*
X71044400Y-57531600D01*
X113893600Y-58166000D02*
X113792000Y-58166000D01*
X113157600Y-57531600D02*
X112252000Y-57531600D01*
X113792000Y-58166000D02*
X113157600Y-57531600D01*
X84201600Y-57531600D02*
X85090000Y-58420000D01*
X83448400Y-57531600D02*
X84201600Y-57531600D01*
X80346699Y-73945899D02*
X80346699Y-75596599D01*
X78689200Y-72440800D02*
X78841600Y-72440800D01*
X78841600Y-72440800D02*
X80346699Y-73945899D01*
X77724000Y-72611064D02*
X78315736Y-73202800D01*
X77724000Y-72186800D02*
X77724000Y-72611064D01*
X78315736Y-73202800D02*
X78994000Y-73202800D01*
X79546699Y-73755499D02*
X79546699Y-75596599D01*
X78994000Y-73202800D02*
X79546699Y-73755499D01*
X74726800Y-59232800D02*
X74676000Y-59182000D01*
X75895200Y-59232800D02*
X74726800Y-59232800D01*
X77266800Y-71323200D02*
X79146400Y-71323200D01*
X79146400Y-71323200D02*
X80060800Y-72237600D01*
X80060800Y-72237600D02*
X80060800Y-72948800D01*
X80060800Y-72948800D02*
X80416400Y-73304400D01*
X80416400Y-73304400D02*
X80822800Y-73304400D01*
X81146699Y-73628299D02*
X81146699Y-75596599D01*
X80822800Y-73304400D02*
X81146699Y-73628299D01*
X77655336Y-63246000D02*
X78079600Y-63246000D01*
X71904800Y-63246000D02*
X77655336Y-63246000D01*
X70990400Y-62331600D02*
X71904800Y-63246000D01*
X70088000Y-62331600D02*
X70990400Y-62331600D01*
X70688000Y-61531600D02*
X70802400Y-61417200D01*
X70088000Y-61531600D02*
X70688000Y-61531600D01*
X70802400Y-61417200D02*
X78384400Y-61417200D01*
X78384400Y-61417200D02*
X78384400Y-61417200D01*
X81137200Y-60680800D02*
X81188000Y-60731600D01*
X71653600Y-60680800D02*
X79578000Y-60680800D01*
X79578000Y-60680800D02*
X81137200Y-60680800D01*
X83448400Y-55131600D02*
X81188000Y-55131600D01*
X91490800Y-55321200D02*
X91490800Y-55321200D01*
X90678000Y-55321200D02*
X91490800Y-55321200D01*
X84205600Y-55131600D02*
X84828800Y-54508400D01*
X86969600Y-54305200D02*
X89662000Y-54305200D01*
X86461600Y-54813200D02*
X86969600Y-54305200D01*
X86156800Y-54813200D02*
X86461600Y-54813200D01*
X83448400Y-55131600D02*
X84205600Y-55131600D01*
X89662000Y-54305200D02*
X90678000Y-55321200D01*
X84828800Y-54508400D02*
X85852000Y-54508400D01*
X85852000Y-54508400D02*
X86156800Y-54813200D01*
X81188000Y-55131600D02*
X78980400Y-55131600D01*
X78663800Y-55448200D02*
X77343000Y-55448200D01*
X78980400Y-55131600D02*
X78663800Y-55448200D01*
X86817200Y-56540400D02*
X86156800Y-57200800D01*
X86156800Y-57200800D02*
X85445600Y-57200800D01*
X84976400Y-56731600D02*
X83448400Y-56731600D01*
X85445600Y-57200800D02*
X84976400Y-56731600D01*
X84976400Y-56731600D02*
X84988400Y-56540400D01*
X84988400Y-56540400D02*
X84976400Y-56552400D01*
X102717600Y-57404000D02*
X101396800Y-57404000D01*
X100724400Y-56731600D02*
X98891600Y-56731600D01*
X101396800Y-57404000D02*
X100724400Y-56731600D01*
X98891600Y-56731600D02*
X98157600Y-56731600D01*
X98157600Y-56731600D02*
X97739200Y-57150000D01*
X97739200Y-57150000D02*
X97739200Y-58013600D01*
X97739200Y-58013600D02*
X97383600Y-58369200D01*
X96824800Y-58369200D02*
X96215200Y-57759600D01*
X97383600Y-58369200D02*
X96824800Y-58369200D01*
X70126800Y-56692800D02*
X70088000Y-56731600D01*
X75793600Y-56692800D02*
X70126800Y-56692800D01*
X112252000Y-56731600D02*
X113627600Y-56731600D01*
X113627600Y-56731600D02*
X113944400Y-57048400D01*
X115163600Y-57048400D02*
X115570000Y-56642000D01*
X113944400Y-57048400D02*
X115163600Y-57048400D01*
X81188000Y-54331600D02*
X83448400Y-54331600D01*
X109991600Y-54331600D02*
X109193600Y-54331600D01*
X109193600Y-54331600D02*
X108153200Y-55372000D01*
X108153200Y-55372000D02*
X107543600Y-55372000D01*
X107543600Y-55372000D02*
X106680000Y-54508400D01*
X106680000Y-54508400D02*
X102565200Y-54508400D01*
X102565200Y-54508400D02*
X102565200Y-54508400D01*
X78815200Y-54331600D02*
X81188000Y-54331600D01*
X78384400Y-54762400D02*
X78815200Y-54331600D01*
X81188000Y-55931600D02*
X83448400Y-55931600D01*
X90220800Y-55829200D02*
X90220800Y-55829200D01*
X89865200Y-55829200D02*
X90220800Y-55829200D01*
X88696800Y-54660800D02*
X89865200Y-55829200D01*
X87122000Y-54660800D02*
X88696800Y-54660800D01*
X83448400Y-55931600D02*
X85851200Y-55931600D01*
X85851200Y-55931600D02*
X87122000Y-54660800D01*
X81163400Y-55956200D02*
X81188000Y-55931600D01*
X79171800Y-55956200D02*
X81163400Y-55956200D01*
X83448400Y-53531600D02*
X81188000Y-53531600D01*
X109028400Y-53531600D02*
X108508800Y-54051200D01*
X109991600Y-53531600D02*
X109028400Y-53531600D01*
X81137200Y-53480800D02*
X81188000Y-53531600D01*
X79767600Y-53480800D02*
X81137200Y-53480800D01*
X83448400Y-71131600D02*
X84785200Y-71170800D01*
X84785200Y-71170800D02*
X84746000Y-71131600D01*
X90881200Y-64719200D02*
X94640400Y-64719200D01*
X89916000Y-64719200D02*
X90881200Y-64719200D01*
X89306400Y-65328800D02*
X89916000Y-64719200D01*
X84124800Y-73304400D02*
X89306400Y-68122800D01*
X82746699Y-74294199D02*
X82753200Y-74287698D01*
X82753200Y-73507600D02*
X82956400Y-73304400D01*
X82746699Y-75596599D02*
X82746699Y-74294199D01*
X82753200Y-74287698D02*
X82753200Y-73507600D01*
X89306400Y-68122800D02*
X89306400Y-65328800D01*
X82956400Y-73304400D02*
X84124800Y-73304400D01*
X83448400Y-70331600D02*
X85266800Y-70331600D01*
X85266800Y-70331600D02*
X85598000Y-70662800D01*
X85598000Y-70662800D02*
X85598000Y-70662800D01*
X94548400Y-65531600D02*
X91389600Y-65531600D01*
X83546699Y-73933301D02*
X83546699Y-75596599D01*
X90373600Y-65531600D02*
X89712800Y-66192400D01*
X89712800Y-68224400D02*
X84226400Y-73710800D01*
X84226400Y-73710800D02*
X83769200Y-73710800D01*
X91389600Y-65531600D02*
X90373600Y-65531600D01*
X83769200Y-73710800D02*
X83546699Y-73933301D01*
X89712800Y-66192400D02*
X89712800Y-68224400D01*
X84350800Y-69531600D02*
X84388000Y-69494400D01*
X83448400Y-69531600D02*
X84350800Y-69531600D01*
X84388000Y-69494400D02*
X85344000Y-69494400D01*
X85344000Y-69494400D02*
X85344000Y-69494400D01*
X90792800Y-66331600D02*
X94548400Y-66331600D01*
X90792800Y-66331600D02*
X90792800Y-66331600D01*
X84346699Y-75596599D02*
X84346699Y-74098501D01*
X90068400Y-67056000D02*
X90792800Y-66331600D01*
X90068400Y-68376800D02*
X90068400Y-67056000D01*
X84346699Y-74098501D02*
X90068400Y-68376800D01*
X83448400Y-68731600D02*
X85800400Y-68731600D01*
X85800400Y-68731600D02*
X86156800Y-69088000D01*
X86156800Y-69088000D02*
X86156800Y-69088000D01*
X90474800Y-68476461D02*
X85146699Y-73804562D01*
X85146699Y-73804562D02*
X85146699Y-75596599D01*
X94548400Y-67131600D02*
X91313600Y-67131600D01*
X90474800Y-67664400D02*
X90474800Y-68476461D01*
X91007600Y-67131600D02*
X90474800Y-67664400D01*
X91313600Y-67131600D02*
X91007600Y-67131600D01*
X83448400Y-67131600D02*
X86435600Y-67131600D01*
X86435600Y-67131600D02*
X86766400Y-67462400D01*
X86766400Y-67462400D02*
X86766400Y-69189600D01*
X86766400Y-69189600D02*
X87071200Y-69494400D01*
X87071200Y-69494400D02*
X87071200Y-69494400D01*
X86664800Y-75514700D02*
X86746699Y-75596599D01*
X93646000Y-68731600D02*
X93645200Y-68732400D01*
X94548400Y-68731600D02*
X93646000Y-68731600D01*
X93645200Y-68732400D02*
X91389200Y-68732400D01*
X90678000Y-68732400D02*
X86664800Y-72745600D01*
X86664800Y-72745600D02*
X86664800Y-75514700D01*
X91389200Y-68732400D02*
X90678000Y-68732400D01*
X83448400Y-66331600D02*
X86143600Y-66331600D01*
X86143600Y-66331600D02*
X86664800Y-66852800D01*
X86664800Y-66852800D02*
X87223600Y-66852800D01*
X87223600Y-66852800D02*
X87426800Y-67056000D01*
X87426800Y-67056000D02*
X87426800Y-67513200D01*
X87426800Y-67513200D02*
X87426800Y-67513200D01*
X94548400Y-69531600D02*
X90844000Y-69531600D01*
X87546699Y-72371701D02*
X87546699Y-75596599D01*
X90386800Y-69531600D02*
X87546699Y-72371701D01*
X90844000Y-69531600D02*
X90386800Y-69531600D01*
X83448400Y-65531600D02*
X85851600Y-65531600D01*
X85851600Y-65531600D02*
X86766400Y-66446400D01*
X86766400Y-66446400D02*
X87680800Y-66446400D01*
X87680800Y-66446400D02*
X88087200Y-66852800D01*
X88087200Y-66852800D02*
X88087200Y-68275200D01*
X88087200Y-68275200D02*
X88087200Y-68275200D01*
X88346699Y-75596599D02*
X88346699Y-72181301D01*
X90196400Y-70331600D02*
X91364800Y-70331600D01*
X88346699Y-72181301D02*
X90196400Y-70331600D01*
X91364800Y-70331600D02*
X94548400Y-70331600D01*
X83448400Y-64731600D02*
X85762800Y-64731600D01*
X85762800Y-64731600D02*
X87122000Y-66090800D01*
X87122000Y-66090800D02*
X88188800Y-66090800D01*
X88188800Y-66090800D02*
X88747600Y-66649600D01*
X88747600Y-66649600D02*
X88747600Y-67564000D01*
X88747600Y-67564000D02*
X88747600Y-67564000D01*
X94548400Y-71131600D02*
X90818800Y-71131600D01*
X89146699Y-71838501D02*
X89146699Y-75596599D01*
X89853600Y-71131600D02*
X89146699Y-71838501D01*
X90818800Y-71131600D02*
X89853600Y-71131600D01*
X83448400Y-62331600D02*
X85496400Y-62331600D01*
X85496400Y-62331600D02*
X86461600Y-63296800D01*
X86461600Y-63296800D02*
X87325200Y-63296800D01*
X87325200Y-63296800D02*
X88087200Y-64058800D01*
X88087200Y-64058800D02*
X89509600Y-64058800D01*
X89509600Y-64058800D02*
X89916000Y-63652400D01*
X89916000Y-63652400D02*
X91236800Y-63652400D01*
X91236800Y-63652400D02*
X91236800Y-63652400D01*
X87325200Y-63296800D02*
X87325200Y-63296800D01*
X100888800Y-64058800D02*
X100888800Y-62687200D01*
X100533200Y-62331600D02*
X98891600Y-62331600D01*
X100888800Y-62687200D02*
X100533200Y-62331600D01*
X100888800Y-62687200D02*
X102514400Y-62687200D01*
X102971600Y-63144400D02*
X107137200Y-63144400D01*
X102514400Y-62687200D02*
X102971600Y-63144400D01*
X97282000Y-62331600D02*
X97028000Y-62585600D01*
X98891600Y-62331600D02*
X97282000Y-62331600D01*
X116179600Y-63195200D02*
X116128800Y-63195200D01*
X115265200Y-62331600D02*
X112252000Y-62331600D01*
X116128800Y-63195200D02*
X115265200Y-62331600D01*
X102057200Y-63195200D02*
X102057200Y-63347600D01*
X102514400Y-63804800D02*
X105613200Y-63804800D01*
X102057200Y-63347600D02*
X102514400Y-63804800D01*
X91287600Y-61976000D02*
X87782400Y-61976000D01*
X87782400Y-61976000D02*
X87782400Y-61976000D01*
X84350800Y-61531600D02*
X84465200Y-61417200D01*
X83448400Y-61531600D02*
X84350800Y-61531600D01*
X84465200Y-61417200D02*
X87172800Y-61417200D01*
X90627200Y-61417200D02*
X90627200Y-61417200D01*
X87172800Y-61417200D02*
X90627200Y-61417200D01*
X98891600Y-61531600D02*
X99606000Y-61531600D01*
X99822000Y-61315600D02*
X103378000Y-61315600D01*
X99606000Y-61531600D02*
X99822000Y-61315600D01*
X103378000Y-61315600D02*
X107188000Y-61315600D01*
X107188000Y-61315600D02*
X107238800Y-61366400D01*
X107238800Y-61366400D02*
X107238800Y-61366400D01*
X98891600Y-61531600D02*
X96990000Y-61531600D01*
X96990000Y-61531600D02*
X96774000Y-61315600D01*
X96774000Y-61315600D02*
X96774000Y-61315600D01*
X112252000Y-61531600D02*
X114033200Y-61531600D01*
X114033200Y-61531600D02*
X114198400Y-61366400D01*
X114198400Y-61366400D02*
X114198400Y-61366400D01*
X94548400Y-60731600D02*
X85039200Y-60756800D01*
X85039200Y-60756800D02*
X85064400Y-60731600D01*
X101777600Y-60731600D02*
X101676000Y-60630000D01*
X109991600Y-60731600D02*
X107873600Y-60731600D01*
X107873600Y-60731600D02*
X101777600Y-60731600D01*
X94624800Y-60655200D02*
X94548400Y-60731600D01*
X97383600Y-60604400D02*
X97332800Y-60655200D01*
X97332800Y-60655200D02*
X94624800Y-60655200D01*
X100126800Y-71170800D02*
X100076000Y-71120000D01*
X102971600Y-71170800D02*
X100126800Y-71170800D01*
X98903200Y-71120000D02*
X98891600Y-71131600D01*
X100076000Y-71120000D02*
X98903200Y-71120000D01*
X109106800Y-71131600D02*
X108762800Y-71475600D01*
X109991600Y-71131600D02*
X109106800Y-71131600D01*
X108762800Y-71475600D02*
X108762800Y-72694800D01*
X108762800Y-72694800D02*
X109372400Y-73304400D01*
X109372400Y-73304400D02*
X110388400Y-73304400D01*
X111346699Y-74262699D02*
X111346699Y-75596599D01*
X110388400Y-73304400D02*
X111346699Y-74262699D01*
X100557600Y-70331600D02*
X100584000Y-70358000D01*
X98891600Y-70331600D02*
X100557600Y-70331600D01*
X100634800Y-70408800D02*
X100584000Y-70358000D01*
X103479600Y-70408800D02*
X100634800Y-70408800D01*
X108586000Y-70331600D02*
X108407200Y-70510400D01*
X109991600Y-70331600D02*
X108586000Y-70331600D01*
X108407200Y-70510400D02*
X107848400Y-70510400D01*
X107848400Y-70510400D02*
X107391200Y-70967600D01*
X107391200Y-70967600D02*
X107391200Y-71831200D01*
X107391200Y-71831200D02*
X109270800Y-73710800D01*
X109270800Y-73710800D02*
X109880400Y-73710800D01*
X110546699Y-74377099D02*
X110546699Y-75596599D01*
X109880400Y-73710800D02*
X110546699Y-74377099D01*
X100330000Y-69646800D02*
X100177600Y-69494400D01*
X103022400Y-69646800D02*
X100330000Y-69646800D01*
X98928800Y-69494400D02*
X98891600Y-69531600D01*
X100177600Y-69494400D02*
X98928800Y-69494400D01*
X109030400Y-69531600D02*
X108813600Y-69748400D01*
X109991600Y-69531600D02*
X109030400Y-69531600D01*
X109746699Y-74288299D02*
X109575600Y-74117200D01*
X109118400Y-74117200D02*
X106832400Y-71831200D01*
X109746699Y-75596599D02*
X109746699Y-74288299D01*
X109575600Y-74117200D02*
X109118400Y-74117200D01*
X107035600Y-69748400D02*
X108813600Y-69748400D01*
X106832400Y-69951600D02*
X107035600Y-69748400D01*
X106832400Y-71831200D02*
X106832400Y-69951600D01*
X100532400Y-68731600D02*
X100533200Y-68732400D01*
X98891600Y-68731600D02*
X100532400Y-68731600D01*
X100533200Y-68732400D02*
X103530400Y-68732400D01*
X109991600Y-68731600D02*
X108763600Y-68731600D01*
X108356400Y-69138800D02*
X107594400Y-69138800D01*
X108763600Y-68731600D02*
X108356400Y-69138800D01*
X107594400Y-69138800D02*
X106680000Y-69138800D01*
X106680000Y-69138800D02*
X106172000Y-69646800D01*
X106172000Y-69646800D02*
X106172000Y-71678800D01*
X108946699Y-74453499D02*
X108946699Y-75596599D01*
X106172000Y-71678800D02*
X108946699Y-74453499D01*
X100634800Y-67056000D02*
X100584000Y-67005200D01*
X102920800Y-67056000D02*
X100634800Y-67056000D01*
X100457600Y-67131600D02*
X100584000Y-67005200D01*
X98891600Y-67131600D02*
X100457600Y-67131600D01*
X107346699Y-75596599D02*
X107346699Y-74529899D01*
X107346699Y-74529899D02*
X105664000Y-72847200D01*
X105664000Y-72847200D02*
X105664000Y-67716400D01*
X106375200Y-67005200D02*
X107086400Y-67005200D01*
X105664000Y-67716400D02*
X106375200Y-67005200D01*
X107212800Y-67131600D02*
X107086400Y-67005200D01*
X109991600Y-67131600D02*
X107212800Y-67131600D01*
X100038400Y-66331600D02*
X100126800Y-66243200D01*
X98891600Y-66331600D02*
X100038400Y-66331600D01*
X103428800Y-66243200D02*
X103479600Y-66294000D01*
X100126800Y-66243200D02*
X103428800Y-66243200D01*
X107632000Y-66331600D02*
X107594400Y-66294000D01*
X109991600Y-66331600D02*
X107632000Y-66331600D01*
X107594400Y-66294000D02*
X105918000Y-66294000D01*
X105918000Y-66294000D02*
X105156000Y-67056000D01*
X105156000Y-67056000D02*
X105156000Y-72898000D01*
X106546699Y-74288699D02*
X106546699Y-75596599D01*
X105156000Y-72898000D02*
X106546699Y-74288699D01*
X102971600Y-65532000D02*
X100533200Y-65532000D01*
X100532800Y-65531600D02*
X100533200Y-65532000D01*
X98891600Y-65531600D02*
X100532800Y-65531600D01*
X109890000Y-65430000D02*
X109991600Y-65531600D01*
X107086800Y-65430000D02*
X109890000Y-65430000D01*
X105766000Y-65430000D02*
X107086800Y-65430000D01*
X104698800Y-72948800D02*
X104698800Y-66497200D01*
X104698800Y-66497200D02*
X105766000Y-65430000D01*
X105746699Y-75596599D02*
X105746699Y-73996699D01*
X105746699Y-73996699D02*
X104698800Y-72948800D01*
X98891600Y-64731600D02*
X100291600Y-64731600D01*
X100330000Y-64770000D02*
X103479600Y-64770000D01*
X100291600Y-64731600D02*
X100330000Y-64770000D01*
X107708400Y-64731600D02*
X107594400Y-64617600D01*
X109991600Y-64731600D02*
X107708400Y-64731600D01*
X105460800Y-64617600D02*
X104140000Y-65938400D01*
X107594400Y-64617600D02*
X105460800Y-64617600D01*
X104140000Y-72948800D02*
X104800400Y-73609200D01*
X104800400Y-73609200D02*
X104800400Y-75450300D01*
X104800400Y-75450300D02*
X104946699Y-75596599D01*
X104140000Y-65938400D02*
X104140000Y-72948800D01*
X94548400Y-53531600D02*
X93208061Y-53533261D01*
X85191600Y-53543200D02*
X85203200Y-53531600D01*
X93208061Y-53533261D02*
X85191600Y-53543200D01*
X100138400Y-53531600D02*
X100228400Y-53441600D01*
X98891600Y-53531600D02*
X100138400Y-53531600D01*
X100228400Y-53441600D02*
X107797600Y-53441600D01*
X107797600Y-53441600D02*
X107797600Y-53441600D01*
X71639600Y-53531600D02*
X71678800Y-53492400D01*
X70088000Y-53531600D02*
X71639600Y-53531600D01*
X71678800Y-53492400D02*
X75539600Y-53492400D01*
X75539600Y-53492400D02*
X75641200Y-53594000D01*
X75641200Y-53594000D02*
X75641200Y-53594000D01*
X113538000Y-71882000D02*
X113893600Y-71882000D01*
X113893600Y-71882000D02*
X114096800Y-71678800D01*
X114096800Y-71678800D02*
X114096800Y-71069200D01*
X114096800Y-71069200D02*
X114808000Y-70358000D01*
X114808000Y-70358000D02*
X115214400Y-70358000D01*
X115214400Y-70358000D02*
X115417600Y-70154800D01*
X115417600Y-70154800D02*
X115417600Y-64871600D01*
X115417600Y-64871600D02*
X117449600Y-62839600D01*
X117449600Y-62839600D02*
X117449600Y-54203600D01*
X117449600Y-54203600D02*
X118160800Y-53492400D01*
X86309200Y-54203600D02*
X86309200Y-54203600D01*
X86614000Y-53898800D02*
X86309200Y-54203600D01*
X93291800Y-54331600D02*
X93191900Y-54431500D01*
X94548400Y-54331600D02*
X93291800Y-54331600D01*
X91897200Y-54711600D02*
X91084400Y-53898800D01*
X92911800Y-54711600D02*
X91897200Y-54711600D01*
X91084400Y-53898800D02*
X86614000Y-53898800D01*
X93191900Y-54431500D02*
X92911800Y-54711600D01*
X100202000Y-54331600D02*
X100228400Y-54305200D01*
X98891600Y-54331600D02*
X100202000Y-54331600D01*
X107848400Y-54711600D02*
X107848400Y-54508400D01*
X100228400Y-54305200D02*
X100685600Y-54762400D01*
X100685600Y-54762400D02*
X101346000Y-54762400D01*
X102260400Y-53848000D02*
X107289600Y-53848000D01*
X107848400Y-54406800D02*
X107848400Y-54711600D01*
X101346000Y-54762400D02*
X102260400Y-53848000D01*
X107289600Y-53848000D02*
X107848400Y-54406800D01*
X70088000Y-54331600D02*
X71144400Y-54331600D01*
X71374000Y-54102000D02*
X72339200Y-54102000D01*
X71144400Y-54331600D02*
X71374000Y-54102000D01*
X72339200Y-54102000D02*
X75031600Y-54102000D01*
X75031600Y-54102000D02*
X75031600Y-54102000D01*
X112327200Y-54406800D02*
X112252000Y-54331600D01*
X113588800Y-54406800D02*
X112327200Y-54406800D01*
X93052000Y-55131600D02*
X94548400Y-55131600D01*
X91795600Y-55981600D02*
X92202000Y-55981600D01*
X92202000Y-55981600D02*
X93052000Y-55131600D01*
X98891600Y-55131600D02*
X101004000Y-55131600D01*
X101600000Y-55727600D02*
X102565200Y-55727600D01*
X101004000Y-55131600D02*
X101600000Y-55727600D01*
X108661200Y-55727600D02*
X108661200Y-55727600D01*
X94548400Y-55131600D02*
X95162000Y-55131600D01*
X95162000Y-55131600D02*
X96418400Y-56388000D01*
X96418400Y-56388000D02*
X96875600Y-56388000D01*
X98132000Y-55131600D02*
X98891600Y-55131600D01*
X96875600Y-56388000D02*
X98132000Y-55131600D01*
X108559600Y-55829200D02*
X108661200Y-55727600D01*
X107442000Y-55829200D02*
X108559600Y-55829200D01*
X106984800Y-55372000D02*
X107442000Y-55829200D01*
X102565200Y-55727600D02*
X102920800Y-55372000D01*
X102920800Y-55372000D02*
X106984800Y-55372000D01*
X71628000Y-54762400D02*
X71678800Y-54813200D01*
X71360400Y-54762400D02*
X71628000Y-54762400D01*
X70088000Y-55131600D02*
X70991200Y-55131600D01*
X70991200Y-55131600D02*
X71360400Y-54762400D01*
X71678800Y-54813200D02*
X76708000Y-54762400D01*
X76708000Y-54762400D02*
X76657200Y-54813200D01*
X114032400Y-55131600D02*
X112252000Y-55131600D01*
X114452400Y-54711600D02*
X114032400Y-55131600D01*
X109991600Y-55131600D02*
X112252000Y-55131600D01*
X109991600Y-54331600D02*
X112252000Y-54331600D01*
X94548400Y-55931600D02*
X92810800Y-55931600D01*
X92810800Y-55931600D02*
X92049600Y-56692800D01*
X92049600Y-56692800D02*
X91440000Y-56692800D01*
X91440000Y-56692800D02*
X91186000Y-56438800D01*
X91186000Y-56438800D02*
X89204800Y-56438800D01*
X88036400Y-55270400D02*
X87477600Y-55270400D01*
X89204800Y-56438800D02*
X88036400Y-55270400D01*
X98891600Y-55931600D02*
X100432400Y-55931600D01*
X100432400Y-55931600D02*
X101498400Y-56997600D01*
X101498400Y-56997600D02*
X102158800Y-56997600D01*
X102158800Y-56997600D02*
X103124000Y-56032400D01*
X103124000Y-56032400D02*
X107086400Y-56032400D01*
X107086400Y-56032400D02*
X107442000Y-56388000D01*
X107442000Y-56388000D02*
X107442000Y-56388000D01*
X98891600Y-55931600D02*
X98043200Y-55931600D01*
X98043200Y-55931600D02*
X97180400Y-56794400D01*
X97180400Y-56794400D02*
X96316800Y-56794400D01*
X95454000Y-55931600D02*
X94548400Y-55931600D01*
X96316800Y-56794400D02*
X95454000Y-55931600D01*
X70088000Y-55931600D02*
X70916000Y-55931600D01*
X71424800Y-55422800D02*
X72339200Y-55422800D01*
X70916000Y-55931600D02*
X71424800Y-55422800D01*
X72339200Y-55422800D02*
X76149200Y-55422800D01*
X76149200Y-55422800D02*
X77266800Y-56540400D01*
X77266800Y-56540400D02*
X79857600Y-56540400D01*
X79857600Y-56540400D02*
X79857600Y-56540400D01*
X113384800Y-55931600D02*
X112252000Y-55931600D01*
X113588800Y-55727600D02*
X113384800Y-55931600D01*
X112252000Y-55931600D02*
X109991600Y-55931600D01*
X112252000Y-53531600D02*
X109991600Y-53531600D01*
X121945600Y-60731600D02*
X121869200Y-60655200D01*
X123352000Y-60731600D02*
X121945600Y-60731600D01*
X121818400Y-53492400D02*
X121886674Y-53424126D01*
X121158000Y-53492400D02*
X121818400Y-53492400D01*
X121158000Y-53492400D02*
X121259600Y-53492400D01*
X118160800Y-53492400D02*
X121158000Y-53492400D01*
X123244526Y-53424126D02*
X123352000Y-53531600D01*
X121886674Y-53424126D02*
X123244526Y-53424126D01*
X121107200Y-54051200D02*
X122224800Y-54051200D01*
X122505200Y-54331600D02*
X123352000Y-54331600D01*
X122224800Y-54051200D02*
X122505200Y-54331600D01*
X112946699Y-74440299D02*
X112946699Y-75596599D01*
X112623600Y-73609200D02*
X112623600Y-74117200D01*
X113792000Y-72440800D02*
X112623600Y-73609200D01*
X121107200Y-54051200D02*
X118618000Y-54051200D01*
X115722400Y-65176400D02*
X115722400Y-70358000D01*
X112623600Y-74117200D02*
X112946699Y-74440299D01*
X117805200Y-63093600D02*
X115722400Y-65176400D01*
X114452400Y-71272400D02*
X114452400Y-72009000D01*
X117805200Y-54864000D02*
X117805200Y-63093600D01*
X118618000Y-54051200D02*
X117805200Y-54864000D01*
X115316000Y-70764400D02*
X114960400Y-70764400D01*
X114960400Y-70764400D02*
X114452400Y-71272400D01*
X115722400Y-70358000D02*
X115316000Y-70764400D01*
X114452400Y-72009000D02*
X114020600Y-72440800D01*
X114020600Y-72440800D02*
X113792000Y-72440800D01*
X122441600Y-55131600D02*
X121970800Y-54660800D01*
X123352000Y-55131600D02*
X122441600Y-55131600D01*
X113385600Y-73761600D02*
X113385600Y-73507600D01*
X114452400Y-72796400D02*
X114046000Y-72796400D01*
X114655600Y-72593200D02*
X114452400Y-72796400D01*
X118110000Y-63347600D02*
X116027200Y-65430400D01*
X116027200Y-70764400D02*
X115671600Y-71120000D01*
X118110000Y-55524400D02*
X118110000Y-63347600D01*
X114808000Y-72136000D02*
X114655600Y-72288400D01*
X114655600Y-72288400D02*
X114655600Y-72593200D01*
X113385600Y-73456800D02*
X113385600Y-73761600D01*
X114046000Y-72796400D02*
X113385600Y-73456800D01*
X121970800Y-54660800D02*
X118973600Y-54660800D01*
X114808000Y-71374000D02*
X114808000Y-72136000D01*
X116027200Y-65430400D02*
X116027200Y-70764400D01*
X118973600Y-54660800D02*
X118110000Y-55524400D01*
X115671600Y-71120000D02*
X115062000Y-71120000D01*
X115062000Y-71120000D02*
X114808000Y-71374000D01*
X121107200Y-55321200D02*
X121970800Y-55321200D01*
X122581200Y-55931600D02*
X123352000Y-55931600D01*
X121970800Y-55321200D02*
X122581200Y-55931600D01*
X121107200Y-55321200D02*
X119430800Y-55321200D01*
X119430800Y-55321200D02*
X118516400Y-56235600D01*
X118516400Y-56235600D02*
X118516400Y-63449200D01*
X118516400Y-63449200D02*
X116433600Y-65532000D01*
X116433600Y-65532000D02*
X116433600Y-70967600D01*
X116433600Y-70967600D02*
X115620800Y-71780400D01*
X115620800Y-71780400D02*
X115620800Y-71780400D01*
X93646000Y-58331600D02*
X93632800Y-58318400D01*
X94548400Y-58331600D02*
X93646000Y-58331600D01*
X93632800Y-58318400D02*
X92659200Y-58318400D01*
X92659200Y-58318400D02*
X92303600Y-58674000D01*
X92303600Y-58674000D02*
X91846400Y-58674000D01*
X91846400Y-58674000D02*
X91287600Y-58115200D01*
X91287600Y-58115200D02*
X86461600Y-58115200D01*
X85953600Y-58623200D02*
X85953600Y-59080400D01*
X86461600Y-58115200D02*
X85953600Y-58623200D01*
X91287600Y-58115200D02*
X91287600Y-58115200D01*
X109991600Y-58331600D02*
X109206800Y-58331600D01*
X109206800Y-58331600D02*
X108432600Y-59105800D01*
X108254800Y-59283600D02*
X106934000Y-59283600D01*
X106476800Y-58826400D02*
X100634800Y-58826400D01*
X106934000Y-59283600D02*
X106476800Y-58826400D01*
X108432600Y-59105800D02*
X108254800Y-59283600D01*
X81188000Y-58331600D02*
X80098400Y-58331600D01*
X80098400Y-58331600D02*
X79349600Y-59080400D01*
X79349600Y-59080400D02*
X79298800Y-59080400D01*
X76844400Y-58607200D02*
X71662800Y-58607200D01*
X77317600Y-59080400D02*
X76844400Y-58607200D01*
X79298800Y-59080400D02*
X77317600Y-59080400D01*
X122160800Y-58331600D02*
X121920000Y-58572400D01*
X123352000Y-58331600D02*
X122160800Y-58331600D01*
X115570000Y-75373298D02*
X115346699Y-75596599D01*
X121920000Y-58572400D02*
X120040400Y-58572400D01*
X115570000Y-73914000D02*
X115570000Y-75373298D01*
X120040400Y-58572400D02*
X119634000Y-58978800D01*
X119634000Y-58978800D02*
X119634000Y-63957200D01*
X119634000Y-63957200D02*
X117449600Y-66141600D01*
X117449600Y-72034400D02*
X115570000Y-73914000D01*
X117449600Y-66141600D02*
X117449600Y-72034400D01*
X97129600Y-57810400D02*
X97129600Y-57810400D01*
X103327200Y-56743600D02*
X106730800Y-56743600D01*
X106883200Y-56743600D02*
X107188000Y-57048400D01*
X107188000Y-57048400D02*
X107696000Y-57048400D01*
X108012800Y-56731600D02*
X109991600Y-56731600D01*
X107696000Y-57048400D02*
X108012800Y-56731600D01*
X106730800Y-56743600D02*
X106883200Y-56743600D01*
X122314400Y-56731600D02*
X123352000Y-56731600D01*
X121615200Y-55930800D02*
X121615200Y-56032400D01*
X121615200Y-56032400D02*
X122314400Y-56731600D01*
X92518800Y-56731600D02*
X94548400Y-56731600D01*
X92202000Y-57048400D02*
X92518800Y-56731600D01*
X85902800Y-56540400D02*
X86512400Y-55930800D01*
X88442800Y-56794400D02*
X91084400Y-56794400D01*
X91338400Y-57048400D02*
X92202000Y-57048400D01*
X86512400Y-55930800D02*
X87579200Y-55930800D01*
X91084400Y-56794400D02*
X91338400Y-57048400D01*
X87579200Y-55930800D02*
X88442800Y-56794400D01*
X96520000Y-57200800D02*
X97129600Y-57810400D01*
X94548400Y-56731600D02*
X95695200Y-56731600D01*
X96164400Y-57200800D02*
X96520000Y-57200800D01*
X95695200Y-56731600D02*
X96164400Y-57200800D01*
X81188000Y-56731600D02*
X80530000Y-56731600D01*
X80530000Y-56731600D02*
X80111600Y-57150000D01*
X80111600Y-57150000D02*
X78638400Y-57150000D01*
X76047600Y-56083200D02*
X71628000Y-56083200D01*
X77114400Y-57150000D02*
X76047600Y-56083200D01*
X78638400Y-57150000D02*
X77114400Y-57150000D01*
X121615200Y-55930800D02*
X119938800Y-55930800D01*
X119938800Y-55930800D02*
X118872000Y-56997600D01*
X118872000Y-56997600D02*
X118872000Y-63652400D01*
X118872000Y-63652400D02*
X116738400Y-65786000D01*
X116738400Y-65786000D02*
X116738400Y-71475600D01*
X116738400Y-71475600D02*
X115468400Y-72745600D01*
X115468400Y-72745600D02*
X115468400Y-72745600D01*
X93646000Y-57531600D02*
X93569200Y-57454800D01*
X94548400Y-57531600D02*
X93646000Y-57531600D01*
X93569200Y-57454800D02*
X92710000Y-57454800D01*
X90932000Y-57200800D02*
X86664800Y-57200800D01*
X86106000Y-57759600D02*
X85953600Y-57759600D01*
X92710000Y-57454800D02*
X91186000Y-57454800D01*
X86664800Y-57200800D02*
X86106000Y-57759600D01*
X91186000Y-57454800D02*
X90932000Y-57200800D01*
X109991600Y-57531600D02*
X109041600Y-57531600D01*
X108508800Y-58064400D02*
X106883200Y-58064400D01*
X109041600Y-57531600D02*
X108508800Y-58064400D01*
X106883200Y-58064400D02*
X103327200Y-58064400D01*
X71628000Y-57302400D02*
X76708000Y-57302400D01*
X76708000Y-57302400D02*
X77216000Y-57810400D01*
X77216000Y-57810400D02*
X77825600Y-57810400D01*
X80390400Y-57531600D02*
X81188000Y-57531600D01*
X80111600Y-57810400D02*
X80390400Y-57531600D01*
X77825600Y-57810400D02*
X80111600Y-57810400D01*
X113746699Y-75596599D02*
X113746699Y-74670501D01*
X113746699Y-74670501D02*
X113995200Y-74422000D01*
X113995200Y-74422000D02*
X113995200Y-73456800D01*
X113995200Y-73456800D02*
X114300000Y-73152000D01*
X114300000Y-73152000D02*
X114858800Y-73152000D01*
X114858800Y-73152000D02*
X115112800Y-73406000D01*
X115112800Y-73406000D02*
X115519200Y-73406000D01*
X115519200Y-73406000D02*
X117094000Y-71831200D01*
X117094000Y-71831200D02*
X117094000Y-65938400D01*
X117094000Y-65938400D02*
X119278400Y-63754000D01*
X119278400Y-63754000D02*
X119278400Y-58013600D01*
X119938800Y-57353200D02*
X121056400Y-57353200D01*
X119278400Y-58013600D02*
X119938800Y-57353200D01*
X123326000Y-57505600D02*
X123352000Y-57531600D01*
X122529600Y-57505600D02*
X123326000Y-57505600D01*
X121056400Y-57353200D02*
X122377200Y-57353200D01*
X122377200Y-57353200D02*
X122529600Y-57505600D01*
X103378000Y-62585600D02*
X105664000Y-62585600D01*
X108051600Y-62331600D02*
X109991600Y-62331600D01*
X107797600Y-62585600D02*
X108051600Y-62331600D01*
X105664000Y-62585600D02*
X107797600Y-62585600D01*
X117195600Y-73101200D02*
X117195600Y-72745600D01*
X117195600Y-72745600D02*
X117856000Y-72085200D01*
X117856000Y-72085200D02*
X117856000Y-66294000D01*
X117856000Y-66294000D02*
X119938800Y-64211200D01*
X119938800Y-64211200D02*
X119938800Y-59740800D01*
X119938800Y-59740800D02*
X120294400Y-59385200D01*
X120294400Y-59385200D02*
X120294400Y-59385200D01*
X101701600Y-61976000D02*
X106324400Y-61976000D01*
X107988000Y-61531600D02*
X109991600Y-61531600D01*
X107543600Y-61976000D02*
X107988000Y-61531600D01*
X106324400Y-61976000D02*
X107543600Y-61976000D01*
X121005600Y-60045600D02*
X121005600Y-60045600D01*
X117746699Y-72702501D02*
X118211600Y-72237600D01*
X120294400Y-60756800D02*
X121005600Y-60045600D01*
X120294400Y-64363600D02*
X120294400Y-60756800D01*
X118211600Y-72237600D02*
X118211600Y-66446400D01*
X117746699Y-75596599D02*
X117746699Y-72702501D01*
X118211600Y-66446400D02*
X120294400Y-64363600D01*
X115773200Y-61874400D02*
X115773200Y-61976000D01*
X115773200Y-61976000D02*
X116382800Y-62585600D01*
X116382800Y-62585600D02*
X116789200Y-62585600D01*
X116789200Y-62585600D02*
X116789200Y-62585600D01*
X123352000Y-62331600D02*
X121869200Y-62331600D01*
X121869200Y-62331600D02*
X121513600Y-62687200D01*
X121513600Y-62687200D02*
X121513600Y-62687200D01*
X121513600Y-64160400D02*
X118872000Y-66802000D01*
X118872000Y-66802000D02*
X118872000Y-73152000D01*
X118872000Y-73152000D02*
X118872000Y-73152000D01*
X121513600Y-62687200D02*
X121513600Y-64160400D01*
X120954800Y-61925200D02*
X121005600Y-61925200D01*
X121399200Y-61531600D02*
X123352000Y-61531600D01*
X121005600Y-61925200D02*
X121399200Y-61531600D01*
X118618000Y-75525298D02*
X118546699Y-75596599D01*
X120954800Y-64262000D02*
X118567200Y-66649600D01*
X118110000Y-73355200D02*
X118618000Y-73863200D01*
X118567200Y-72440800D02*
X118110000Y-72898000D01*
X120954800Y-61925200D02*
X120954800Y-64262000D01*
X118567200Y-66649600D02*
X118567200Y-72440800D01*
X118618000Y-73863200D02*
X118618000Y-75525298D01*
X118110000Y-72898000D02*
X118110000Y-73355200D01*
X113323200Y-71131600D02*
X113424800Y-71030000D01*
X112252000Y-71131600D02*
X113323200Y-71131600D01*
X122957600Y-64630000D02*
X123860000Y-64630000D01*
X112353600Y-70230000D02*
X112252000Y-70331600D01*
X114021600Y-70230000D02*
X112353600Y-70230000D01*
X123860000Y-65430000D02*
X122957600Y-65430000D01*
X122957600Y-66230000D02*
X123860000Y-66230000D01*
X122957600Y-67030000D02*
X123860000Y-67030000D01*
X123860000Y-68630000D02*
X122957600Y-68630000D01*
X122957600Y-69430000D02*
X123860000Y-69430000D01*
X123860000Y-70230000D02*
X122957600Y-70230000D01*
X126546699Y-75596599D02*
X126546699Y-73402101D01*
X126546699Y-73402101D02*
X126898400Y-73050400D01*
X126898400Y-73050400D02*
X126898400Y-72034400D01*
X125995600Y-71131600D02*
X123352000Y-71131600D01*
X126898400Y-72034400D02*
X125995600Y-71131600D01*
X122264000Y-71131600D02*
X122162400Y-71030000D01*
X123352000Y-71131600D02*
X122264000Y-71131600D01*
X121844800Y-70331600D02*
X121818400Y-70358000D01*
X123352000Y-70331600D02*
X121844800Y-70331600D01*
X121818400Y-70358000D02*
X121513600Y-70358000D01*
X121513600Y-70358000D02*
X121412000Y-70459600D01*
X121412000Y-70459600D02*
X121412000Y-71678800D01*
X121412000Y-71678800D02*
X122123200Y-72390000D01*
X122123200Y-72390000D02*
X124104400Y-72390000D01*
X124104400Y-72390000D02*
X125323600Y-73609200D01*
X125323600Y-73609200D02*
X125323600Y-74015600D01*
X125746699Y-74438699D02*
X125746699Y-75596599D01*
X125323600Y-74015600D02*
X125746699Y-74438699D01*
X112353600Y-69430000D02*
X112252000Y-69531600D01*
X113450000Y-69430000D02*
X112353600Y-69430000D01*
X123264000Y-69443600D02*
X123352000Y-69531600D01*
X122072400Y-69443600D02*
X123264000Y-69443600D01*
X121005600Y-69900800D02*
X121462800Y-69443600D01*
X121005600Y-71780400D02*
X121005600Y-69900800D01*
X124764800Y-75414700D02*
X124764800Y-73761600D01*
X121920000Y-72694800D02*
X121005600Y-71780400D01*
X121462800Y-69443600D02*
X122072400Y-69443600D01*
X124946699Y-75596599D02*
X124764800Y-75414700D01*
X123698000Y-72694800D02*
X121920000Y-72694800D01*
X124764800Y-73761600D02*
X123698000Y-72694800D01*
X113892800Y-68731600D02*
X114046000Y-68884800D01*
X112252000Y-68731600D02*
X113892800Y-68731600D01*
X121512800Y-68731600D02*
X121462800Y-68681600D01*
X123352000Y-68731600D02*
X121512800Y-68731600D01*
X124053600Y-75503500D02*
X124146699Y-75596599D01*
X123596400Y-73101200D02*
X124053600Y-73558400D01*
X124053600Y-73558400D02*
X124053600Y-75503500D01*
X121005600Y-68681600D02*
X120650000Y-69037200D01*
X121462800Y-68681600D02*
X121005600Y-68681600D01*
X120650000Y-72034400D02*
X121716800Y-73101200D01*
X120650000Y-69037200D02*
X120650000Y-72034400D01*
X121716800Y-73101200D02*
X123596400Y-73101200D01*
X112353600Y-67030000D02*
X112252000Y-67131600D01*
X114732400Y-67030000D02*
X112353600Y-67030000D01*
X121741600Y-67131600D02*
X121564400Y-66954400D01*
X123352000Y-67131600D02*
X121741600Y-67131600D01*
X121107200Y-66954400D02*
X121564400Y-66954400D01*
X120294400Y-67767200D02*
X121107200Y-66954400D01*
X122546699Y-75596599D02*
X122546699Y-74032699D01*
X122123200Y-73609200D02*
X121716800Y-73609200D01*
X120294400Y-72186800D02*
X120294400Y-67767200D01*
X122546699Y-74032699D02*
X122123200Y-73609200D01*
X121716800Y-73609200D02*
X120294400Y-72186800D01*
X113602000Y-66331600D02*
X113703600Y-66230000D01*
X112252000Y-66331600D02*
X113602000Y-66331600D01*
X122211600Y-66331600D02*
X122072400Y-66192400D01*
X123352000Y-66331600D02*
X122211600Y-66331600D01*
X122072400Y-66192400D02*
X121158000Y-66192400D01*
X121158000Y-66192400D02*
X119938800Y-67411600D01*
X119938800Y-67411600D02*
X119938800Y-72288400D01*
X121746699Y-74096299D02*
X121746699Y-75596599D01*
X119938800Y-72288400D02*
X121746699Y-74096299D01*
X114148000Y-65531600D02*
X114249600Y-65430000D01*
X112252000Y-65531600D02*
X114148000Y-65531600D01*
X121665600Y-65531600D02*
X121615200Y-65481200D01*
X123352000Y-65531600D02*
X121665600Y-65531600D01*
X121310400Y-65481200D02*
X121615200Y-65481200D01*
X119583200Y-72440800D02*
X119583200Y-67208400D01*
X119583200Y-67208400D02*
X121310400Y-65481200D01*
X120946699Y-75596599D02*
X120946699Y-73804299D01*
X120946699Y-73804299D02*
X119583200Y-72440800D01*
X112264400Y-64719200D02*
X112252000Y-64731600D01*
X113588800Y-64719200D02*
X112264400Y-64719200D01*
X122237200Y-64731600D02*
X122174000Y-64668400D01*
X123352000Y-64731600D02*
X122237200Y-64731600D01*
X119227600Y-72745600D02*
X120146699Y-73664699D01*
X119227600Y-67005200D02*
X119227600Y-72745600D01*
X120146699Y-73664699D02*
X120146699Y-75596599D01*
X122174000Y-64668400D02*
X121564400Y-64668400D01*
X121564400Y-64668400D02*
X119227600Y-67005200D01*
X128146699Y-64080501D02*
X128270000Y-63957200D01*
X128146699Y-75596599D02*
X128146699Y-64080501D01*
M02*
