G04 #@! TF.GenerationSoftware,KiCad,Pcbnew,5.1.5*
G04 #@! TF.CreationDate,2020-05-24T05:14:00+08:00*
G04 #@! TF.ProjectId,EDO RAM Stick Recreated,45444f20-5241-44d2-9053-7469636b2052,01*
G04 #@! TF.SameCoordinates,Original*
G04 #@! TF.FileFunction,Legend,Bot*
G04 #@! TF.FilePolarity,Positive*
%FSLAX46Y46*%
G04 Gerber Fmt 4.6, Leading zero omitted, Abs format (unit mm)*
G04 Created by KiCad (PCBNEW 5.1.5) date 2020-05-24 05:14:00*
%MOMM*%
%LPD*%
G04 APERTURE LIST*
%ADD10C,0.120000*%
%ADD11C,0.150000*%
G04 APERTURE END LIST*
D10*
X113502000Y-71831600D02*
X114802000Y-73131600D01*
X114802000Y-73131600D02*
X120802000Y-73131600D01*
X122102000Y-71831600D02*
X122102000Y-52081600D01*
X122102000Y-52081600D02*
X113502000Y-52081600D01*
X113502000Y-52081600D02*
X113502000Y-71831600D01*
X120802000Y-73131600D02*
X122102000Y-71831600D01*
X100141600Y-71831600D02*
X101441600Y-73131600D01*
X101441600Y-73131600D02*
X107441600Y-73131600D01*
X108741600Y-71831600D02*
X108741600Y-52081600D01*
X108741600Y-52081600D02*
X100141600Y-52081600D01*
X100141600Y-52081600D02*
X100141600Y-71831600D01*
X107441600Y-73131600D02*
X108741600Y-71831600D01*
X84698400Y-71831600D02*
X85998400Y-73131600D01*
X85998400Y-73131600D02*
X91998400Y-73131600D01*
X93298400Y-71831600D02*
X93298400Y-52081600D01*
X93298400Y-52081600D02*
X84698400Y-52081600D01*
X84698400Y-52081600D02*
X84698400Y-71831600D01*
X91998400Y-73131600D02*
X93298400Y-71831600D01*
X71338000Y-71831600D02*
X72638000Y-73131600D01*
X72638000Y-73131600D02*
X78638000Y-73131600D01*
X79938000Y-71831600D02*
X79938000Y-52081600D01*
X79938000Y-52081600D02*
X71338000Y-52081600D01*
X71338000Y-52081600D02*
X71338000Y-71831600D01*
X78638000Y-73131600D02*
X79938000Y-71831600D01*
X68429600Y-68307133D02*
X68429600Y-68649667D01*
X67409600Y-68307133D02*
X67409600Y-68649667D01*
X67257200Y-54019267D02*
X67257200Y-53676733D01*
X68277200Y-54019267D02*
X68277200Y-53676733D01*
X97233200Y-70135933D02*
X97233200Y-70478467D01*
X96213200Y-70135933D02*
X96213200Y-70478467D01*
X96162400Y-54019267D02*
X96162400Y-53676733D01*
X97182400Y-54019267D02*
X97182400Y-53676733D01*
X125169200Y-68536667D02*
X125169200Y-68194133D01*
X126189200Y-68536667D02*
X126189200Y-68194133D01*
X125118400Y-54007867D02*
X125118400Y-53665333D01*
X126138400Y-54007867D02*
X126138400Y-53665333D01*
D11*
X124113904Y-72583980D02*
X124113904Y-73393504D01*
X124066285Y-73488742D01*
X124018666Y-73536361D01*
X123923428Y-73583980D01*
X123732952Y-73583980D01*
X123637714Y-73536361D01*
X123590095Y-73488742D01*
X123542476Y-73393504D01*
X123542476Y-72583980D01*
X122923428Y-73012552D02*
X123018666Y-72964933D01*
X123066285Y-72917314D01*
X123113904Y-72822076D01*
X123113904Y-72774457D01*
X123066285Y-72679219D01*
X123018666Y-72631600D01*
X122923428Y-72583980D01*
X122732952Y-72583980D01*
X122637714Y-72631600D01*
X122590095Y-72679219D01*
X122542476Y-72774457D01*
X122542476Y-72822076D01*
X122590095Y-72917314D01*
X122637714Y-72964933D01*
X122732952Y-73012552D01*
X122923428Y-73012552D01*
X123018666Y-73060171D01*
X123066285Y-73107790D01*
X123113904Y-73203028D01*
X123113904Y-73393504D01*
X123066285Y-73488742D01*
X123018666Y-73536361D01*
X122923428Y-73583980D01*
X122732952Y-73583980D01*
X122637714Y-73536361D01*
X122590095Y-73488742D01*
X122542476Y-73393504D01*
X122542476Y-73203028D01*
X122590095Y-73107790D01*
X122637714Y-73060171D01*
X122732952Y-73012552D01*
X110753504Y-72583980D02*
X110753504Y-73393504D01*
X110705885Y-73488742D01*
X110658266Y-73536361D01*
X110563028Y-73583980D01*
X110372552Y-73583980D01*
X110277314Y-73536361D01*
X110229695Y-73488742D01*
X110182076Y-73393504D01*
X110182076Y-72583980D01*
X109801123Y-72583980D02*
X109134457Y-72583980D01*
X109563028Y-73583980D01*
X84353304Y-72604380D02*
X84353304Y-73413904D01*
X84305685Y-73509142D01*
X84258066Y-73556761D01*
X84162828Y-73604380D01*
X83972352Y-73604380D01*
X83877114Y-73556761D01*
X83829495Y-73509142D01*
X83781876Y-73413904D01*
X83781876Y-72604380D01*
X82877114Y-72604380D02*
X83067590Y-72604380D01*
X83162828Y-72652000D01*
X83210447Y-72699619D01*
X83305685Y-72842476D01*
X83353304Y-73032952D01*
X83353304Y-73413904D01*
X83305685Y-73509142D01*
X83258066Y-73556761D01*
X83162828Y-73604380D01*
X82972352Y-73604380D01*
X82877114Y-73556761D01*
X82829495Y-73509142D01*
X82781876Y-73413904D01*
X82781876Y-73175809D01*
X82829495Y-73080571D01*
X82877114Y-73032952D01*
X82972352Y-72985333D01*
X83162828Y-72985333D01*
X83258066Y-73032952D01*
X83305685Y-73080571D01*
X83353304Y-73175809D01*
X70738904Y-72583980D02*
X70738904Y-73393504D01*
X70691285Y-73488742D01*
X70643666Y-73536361D01*
X70548428Y-73583980D01*
X70357952Y-73583980D01*
X70262714Y-73536361D01*
X70215095Y-73488742D01*
X70167476Y-73393504D01*
X70167476Y-72583980D01*
X69215095Y-72583980D02*
X69691285Y-72583980D01*
X69738904Y-73060171D01*
X69691285Y-73012552D01*
X69596047Y-72964933D01*
X69357952Y-72964933D01*
X69262714Y-73012552D01*
X69215095Y-73060171D01*
X69167476Y-73155409D01*
X69167476Y-73393504D01*
X69215095Y-73488742D01*
X69262714Y-73536361D01*
X69357952Y-73583980D01*
X69596047Y-73583980D01*
X69691285Y-73536361D01*
X69738904Y-73488742D01*
X68327542Y-71758542D02*
X68375161Y-71710923D01*
X68422780Y-71568066D01*
X68422780Y-71472828D01*
X68375161Y-71329971D01*
X68279923Y-71234733D01*
X68184685Y-71187114D01*
X67994209Y-71139495D01*
X67851352Y-71139495D01*
X67660876Y-71187114D01*
X67565638Y-71234733D01*
X67470400Y-71329971D01*
X67422780Y-71472828D01*
X67422780Y-71568066D01*
X67470400Y-71710923D01*
X67518019Y-71758542D01*
X68422780Y-72710923D02*
X68422780Y-72139495D01*
X68422780Y-72425209D02*
X67422780Y-72425209D01*
X67565638Y-72329971D01*
X67660876Y-72234733D01*
X67708495Y-72139495D01*
X67518019Y-73091876D02*
X67470400Y-73139495D01*
X67422780Y-73234733D01*
X67422780Y-73472828D01*
X67470400Y-73568066D01*
X67518019Y-73615685D01*
X67613257Y-73663304D01*
X67708495Y-73663304D01*
X67851352Y-73615685D01*
X68422780Y-73044257D01*
X68422780Y-73663304D01*
X68632342Y-57940942D02*
X68679961Y-57893323D01*
X68727580Y-57750466D01*
X68727580Y-57655228D01*
X68679961Y-57512371D01*
X68584723Y-57417133D01*
X68489485Y-57369514D01*
X68299009Y-57321895D01*
X68156152Y-57321895D01*
X67965676Y-57369514D01*
X67870438Y-57417133D01*
X67775200Y-57512371D01*
X67727580Y-57655228D01*
X67727580Y-57750466D01*
X67775200Y-57893323D01*
X67822819Y-57940942D01*
X68727580Y-58893323D02*
X68727580Y-58321895D01*
X68727580Y-58607609D02*
X67727580Y-58607609D01*
X67870438Y-58512371D01*
X67965676Y-58417133D01*
X68013295Y-58321895D01*
X68727580Y-59845704D02*
X68727580Y-59274276D01*
X68727580Y-59559990D02*
X67727580Y-59559990D01*
X67870438Y-59464752D01*
X67965676Y-59369514D01*
X68013295Y-59274276D01*
X97080342Y-74021742D02*
X97127961Y-73974123D01*
X97175580Y-73831266D01*
X97175580Y-73736028D01*
X97127961Y-73593171D01*
X97032723Y-73497933D01*
X96937485Y-73450314D01*
X96747009Y-73402695D01*
X96604152Y-73402695D01*
X96413676Y-73450314D01*
X96318438Y-73497933D01*
X96223200Y-73593171D01*
X96175580Y-73736028D01*
X96175580Y-73831266D01*
X96223200Y-73974123D01*
X96270819Y-74021742D01*
X97175580Y-74974123D02*
X97175580Y-74402695D01*
X97175580Y-74688409D02*
X96175580Y-74688409D01*
X96318438Y-74593171D01*
X96413676Y-74497933D01*
X96461295Y-74402695D01*
X96175580Y-75593171D02*
X96175580Y-75688409D01*
X96223200Y-75783647D01*
X96270819Y-75831266D01*
X96366057Y-75878885D01*
X96556533Y-75926504D01*
X96794628Y-75926504D01*
X96985104Y-75878885D01*
X97080342Y-75831266D01*
X97127961Y-75783647D01*
X97175580Y-75688409D01*
X97175580Y-75593171D01*
X97127961Y-75497933D01*
X97080342Y-75450314D01*
X96985104Y-75402695D01*
X96794628Y-75355076D01*
X96556533Y-75355076D01*
X96366057Y-75402695D01*
X96270819Y-75450314D01*
X96223200Y-75497933D01*
X96175580Y-75593171D01*
X97029542Y-49809133D02*
X97077161Y-49761514D01*
X97124780Y-49618657D01*
X97124780Y-49523419D01*
X97077161Y-49380561D01*
X96981923Y-49285323D01*
X96886685Y-49237704D01*
X96696209Y-49190085D01*
X96553352Y-49190085D01*
X96362876Y-49237704D01*
X96267638Y-49285323D01*
X96172400Y-49380561D01*
X96124780Y-49523419D01*
X96124780Y-49618657D01*
X96172400Y-49761514D01*
X96220019Y-49809133D01*
X97124780Y-50285323D02*
X97124780Y-50475800D01*
X97077161Y-50571038D01*
X97029542Y-50618657D01*
X96886685Y-50713895D01*
X96696209Y-50761514D01*
X96315257Y-50761514D01*
X96220019Y-50713895D01*
X96172400Y-50666276D01*
X96124780Y-50571038D01*
X96124780Y-50380561D01*
X96172400Y-50285323D01*
X96220019Y-50237704D01*
X96315257Y-50190085D01*
X96553352Y-50190085D01*
X96648590Y-50237704D01*
X96696209Y-50285323D01*
X96743828Y-50380561D01*
X96743828Y-50571038D01*
X96696209Y-50666276D01*
X96648590Y-50713895D01*
X96553352Y-50761514D01*
X126036342Y-70981333D02*
X126083961Y-70933714D01*
X126131580Y-70790857D01*
X126131580Y-70695619D01*
X126083961Y-70552761D01*
X125988723Y-70457523D01*
X125893485Y-70409904D01*
X125703009Y-70362285D01*
X125560152Y-70362285D01*
X125369676Y-70409904D01*
X125274438Y-70457523D01*
X125179200Y-70552761D01*
X125131580Y-70695619D01*
X125131580Y-70790857D01*
X125179200Y-70933714D01*
X125226819Y-70981333D01*
X125560152Y-71552761D02*
X125512533Y-71457523D01*
X125464914Y-71409904D01*
X125369676Y-71362285D01*
X125322057Y-71362285D01*
X125226819Y-71409904D01*
X125179200Y-71457523D01*
X125131580Y-71552761D01*
X125131580Y-71743238D01*
X125179200Y-71838476D01*
X125226819Y-71886095D01*
X125322057Y-71933714D01*
X125369676Y-71933714D01*
X125464914Y-71886095D01*
X125512533Y-71838476D01*
X125560152Y-71743238D01*
X125560152Y-71552761D01*
X125607771Y-71457523D01*
X125655390Y-71409904D01*
X125750628Y-71362285D01*
X125941104Y-71362285D01*
X126036342Y-71409904D01*
X126083961Y-71457523D01*
X126131580Y-71552761D01*
X126131580Y-71743238D01*
X126083961Y-71838476D01*
X126036342Y-71886095D01*
X125941104Y-71933714D01*
X125750628Y-71933714D01*
X125655390Y-71886095D01*
X125607771Y-71838476D01*
X125560152Y-71743238D01*
X125985542Y-50153333D02*
X126033161Y-50105714D01*
X126080780Y-49962857D01*
X126080780Y-49867619D01*
X126033161Y-49724761D01*
X125937923Y-49629523D01*
X125842685Y-49581904D01*
X125652209Y-49534285D01*
X125509352Y-49534285D01*
X125318876Y-49581904D01*
X125223638Y-49629523D01*
X125128400Y-49724761D01*
X125080780Y-49867619D01*
X125080780Y-49962857D01*
X125128400Y-50105714D01*
X125176019Y-50153333D01*
X125080780Y-50486666D02*
X125080780Y-51153333D01*
X126080780Y-50724761D01*
M02*
